<?xml version="1.0" standalone="no"?>
<!DOCTYPE svg PUBLIC "-//W3C//DTD SVG 1.1//EN" "http://www.w3.org/Graphics/SVG/1.1/DTD/svg11.dtd" >
<svg xmlns="http://www.w3.org/2000/svg">
<metadata></metadata>
<defs>
<font id="fengardo_neueblack" horiz-adv-x="1058" >
<font-face units-per-em="2048" ascent="1475" descent="-573" />
<missing-glyph horiz-adv-x="450" />
<glyph unicode="IJ" horiz-adv-x="1261" d="M1159 1454v-1245q0 -233 -144.5 -368.5t-379.5 -135.5q-238 0 -384.5 140.5t-148.5 371.5h410q8 -174 125 -174q113 0 113 164v1247h409zM512 1454v-1106h-410v1106h410z" />
<glyph unicode="&#x3c;&#x2d;" horiz-adv-x="1566" d="M862 975l-217 -197l-135 -63l995 4v-344l-987 6l131 -62l213 -210l-215 -197l-596 590v104l606 574z" />
<glyph unicode="&#x2d;&#x2265;" horiz-adv-x="1214" d="M1036 569l-196 217l-62 136l2 -996h-344l4 987l-59 -131l-211 -213l-197 215l590 596h105l573 -596z" />
<glyph unicode="&#x2d;&#x3e;" horiz-adv-x="1566" d="M705 115l217 196l135 64l-996 -4v344l988 -4l-131 59l-213 211l215 197l596 -590v-105l-607 -573z" />
<glyph unicode="&#x2264;&#x2d;" horiz-adv-x="1214" d="M180 717l197 -217l61 -135l-2 995h344l-4 -987l60 131l211 213l192 -215l-590 -596h-104l-574 596z" />
<glyph unicode="ff" horiz-adv-x="1353" d="M786 1014v137q0 178 114 281.5t282 103.5q162 0 233 -61l-47 -256q-51 10 -104 10q-45 0 -77 -24.5t-32 -74.5v-116h197v-256h-197v-758h-369v758h-305v-758h-368v758h-113v256h113v127q0 178 113.5 281.5t281.5 103.5q129 0 223 -62l-47 -256q-41 10 -94 11 q-45 0 -77 -25t-32 -74v-106h305z" />
<glyph unicode="fi" horiz-adv-x="1259" d="M113 1014v137q0 178 113.5 281.5t281.5 103.5q121 0 205 -39q-57 -78 -58 -158q0 -41 8.5 -70.5t16.5 -39.5l8 -10q-45 10 -98 10q-45 0 -77 -24.5t-32 -74.5v-116h629v-668q0 -55 29.5 -72.5t89.5 -17.5v-256q-82 -18 -156 -19t-154.5 18t-129 91t-48.5 191v477h-260 v-758h-368v758h-113v256h113zM715 1333q0 88 60.5 145.5t148.5 57.5q90 0 150.5 -56.5t60.5 -146.5q0 -86 -61.5 -141t-149.5 -55t-148.5 56t-60.5 140z" />
<glyph unicode="fl" horiz-adv-x="1273" d="M1124 1536v-1190q0 -55 30 -72.5t89 -17.5v-256q-82 -18 -155.5 -19t-154.5 18t-129 91t-48 191v927l-2 -8q-51 29 -123 29q-61 0 -100 -34t-39 -105v-76h155v-256h-155v-758h-369v758h-113v256h113v86q0 195 127 315.5t309 120.5q147 0 248 -53z" />
<glyph unicode="ffi" horiz-adv-x="1935" d="M788 1014v137q0 178 114 281.5t282 103.5q121 0 205 -39q-57 -78 -58 -158q0 -41 8.5 -70.5t16.5 -39.5l8 -10q-45 10 -98 10q-45 0 -77 -24.5t-32 -74.5v-116h629v-668q0 -55 29.5 -72.5t89.5 -17.5v-256q-82 -18 -156 -19t-155 18t-129 91t-48 191v477h-260v-758h-369 v758h-307v-758h-368v758h-113v256h113v127q0 178 113.5 281.5t281.5 103.5q135 0 244 -62l-68 -256q-41 10 -94 11q-45 0 -77 -25t-32 -74v-106h307zM1391 1333q0 88 60 145.5t148 57.5q90 0 150.5 -56.5t60.5 -146.5q0 -86 -61 -141t-149.5 -55t-148.5 56t-60 140z" />
<glyph unicode="ffl" horiz-adv-x="1937" d="M113 1014v127q0 178 113.5 281.5t281.5 103.5q139 0 233 -62l-57 -256q-41 10 -94 11q-45 0 -77 -25t-32 -74v-106h307v86q0 195 127 315.5t310 120.5q147 0 248 -53l315 53v-1190q0 -55 29.5 -72.5t89.5 -17.5v-256q-82 -18 -156 -19t-154.5 18t-129 91t-48.5 191v919 q-51 29 -123 29q-61 0 -100 -34t-39 -105v-76h156v-256h-156v-758h-369v758h-307v-758h-368v758h-113v256h113z" />
<glyph unicode="FJ" horiz-adv-x="1742" d="M102 0v1454h924v-338h-514v-256h504v-328h-504v-532h-410zM1251 1485h410v-1014q0 -242 -148.5 -372t-365.5 -130q-227 0 -365.5 124t-126.5 358h359q4 -72 38.5 -108t86.5 -36q113 0 112 164v1014z" />
<glyph unicode="fb" horiz-adv-x="1714" d="M1122 1536v-584q8 10 24.5 25.5t76 41t129.5 25.5q129 0 211 -81.5t86 -225.5q8 -197 0 -411q-6 -164 -139.5 -260.5t-305.5 -96.5q-119 0 -231.5 18.5t-165.5 37.5l-53 16v1159q-51 29 -123 29q-61 0 -100 -34t-39 -105v-76h155v-256h-155v-758h-369v758h-113v256h113 v86q0 195 127 315.5t309 120.5q147 0 248 -53zM1122 651v-370q31 -14 78 -15q29 0 53.5 19.5t26.5 52.5q4 156 0 332q0 78 -70 78q-41 0 -64.5 -28t-23.5 -69z" />
<glyph unicode="ffb" horiz-adv-x="2390" d="M123 1014v127q0 178 113.5 281.5t281.5 103.5q139 0 234 -62l-58 -256q-41 10 -94 11q-45 0 -76.5 -25t-31.5 -74v-106h307v86q0 195 127 315.5t309 120.5q147 0 248 -53l315 53v-584q8 10 24.5 25.5t76 41t129.5 25.5q129 0 210.5 -81.5t85.5 -225.5q8 -197 0 -411 q-6 -164 -139 -260.5t-305 -96.5q-119 0 -231.5 18.5t-165.5 37.5l-53 16v1159q-51 29 -123 29q-61 0 -100.5 -34t-39.5 -105v-76h156v-256h-156v-758h-368v758h-307v-758h-369v758h-113v256h113zM1798 651v-370q31 -14 78 -15q29 0 53.5 19.5t26.5 52.5q4 156 0 332 q0 78 -70 78q-41 0 -64.5 -28t-23.5 -69z" />
<glyph unicode="fh" horiz-adv-x="1730" d="M1290 0v645q0 102 -76 103q-45 0 -67.5 -29t-24.5 -57v-662h-368v1200q-51 29 -123 29q-61 0 -100 -34t-39 -105v-76h155v-256h-155v-758h-369v758h-113v256h113v86q0 195 127 315.5t309 120.5q147 0 248 -53l315 53v-627h4q82 135 246 135q127 0 207 -83.5t80 -262.5 v-698h-369z" />
<glyph unicode="ffh" horiz-adv-x="2406" d="M123 1014v127q0 178 113.5 281.5t281.5 103.5q139 0 234 -62l-58 -256q-41 10 -94 11q-45 0 -76.5 -25t-31.5 -74v-106h307v86q0 195 127 315.5t309 120.5q147 0 248 -53l315 53v-627h4q82 135 246 135q127 0 207 -83.5t80 -262.5v-698h-369v645q0 102 -76 103 q-51 0 -71.5 -32t-20.5 -61v-655h-368v1200q-51 29 -123 29q-61 0 -100.5 -34t-39.5 -105v-76h156v-256h-156v-758h-368v758h-307v-758h-369v758h-113v256h113z" />
<glyph unicode="fj" horiz-adv-x="1226" d="M113 1014v137q0 178 113.5 281.5t281.5 103.5q121 0 205 -39q-57 -78 -58 -158q0 -41 8.5 -70.5t16.5 -39.5l8 -10q-45 10 -98 10q-45 0 -77 -24.5t-32 -74.5v-116h629v-1188q0 -106 -36 -181t-88 -111t-123.5 -51t-134 -12t-126.5 17v256q139 0 139 111v903h-260v-758 h-368v758h-113v256h113zM715 1333q0 88 60.5 145.5t148.5 57.5q90 0 150.5 -56.5t60.5 -146.5q0 -86 -61.5 -141t-149.5 -55t-148.5 56t-60.5 140z" />
<glyph unicode="ffj" horiz-adv-x="1859" d="M745 1014v137q0 178 114 281.5t282 103.5q121 0 205 -39q-57 -78 -58 -158q0 -41 8.5 -70.5t16.5 -39.5l8 -10q-45 10 -98 10q-45 0 -77 -24.5t-32 -74.5v-116h629v-1188q0 -131 -53.5 -215t-130 -108.5t-164.5 -31t-160 16.5v256q139 0 139 111v903h-260v-758h-369v758 h-264v-758h-368v758h-113v256h113v127q0 178 113.5 281.5t281.5 103.5q135 0 244 -62l-68 -256q-41 10 -94 11q-45 0 -77 -25t-32 -74v-106h264zM1348 1333q0 88 60 145.5t148 57.5q90 0 150.5 -56.5t60.5 -146.5q0 -86 -61 -141t-149.5 -55t-148.5 56t-60 140z" />
<glyph unicode="fk" horiz-adv-x="1740" d="M1124 1536v-1536h-368v1208l-2 -8q-51 29 -123 29q-61 0 -100 -34t-39 -105v-76h155v-256h-155v-758h-369v758h-113v256h113v86q0 195 127 315.5t309 120.5q147 0 248 -53zM1139 590l157 252q68 106 136.5 154t166.5 48q37 0 64 -4t37 -8l8 -6v-256q-45 0 -70.5 -13.5 t-52.5 -51.5l-84 -127l113 -240q39 -84 127 -84v-256q-68 -29 -125 -29q-100 0 -181 45t-141 176l-155 345v55z" />
<glyph unicode="ffk" horiz-adv-x="2414" d="M123 1014v127q0 178 113.5 281.5t281.5 103.5q139 0 234 -62l-58 -256q-41 10 -94 11q-45 0 -76.5 -25t-31.5 -74v-106h307v86q0 195 127 315.5t309 120.5q147 0 248 -53l315 53v-1536h-368v1200q-51 29 -123 29q-61 0 -100.5 -34t-39.5 -105v-76h156v-256h-156v-758 h-368v758h-307v-758h-369v758h-113v256h113zM1812 590l158 252q68 106 136.5 154t166.5 48q37 0 63.5 -4t35.5 -8l10 -6v-256q-45 0 -70.5 -13.5t-52.5 -51.5l-84 -127l113 -240q39 -84 127 -84v-256q-68 -29 -125 -29q-100 0 -181 45t-141 176l-156 345v55z" />
<glyph unicode="ft" horiz-adv-x="1431" d="M1159 406q0 -82 39 -118t117 -36q72 0 96 4l10 -256q-88 -31 -223 -31q-80 0 -148.5 18.5t-129 59.5t-95 118t-34.5 181v412h-310v-758h-368v758h-113v256h113v137q0 178 109.5 281.5t277.5 103.5q119 0 221 -55l-47 -262q-39 10 -92 10q-43 0 -72 -24.5t-29 -74.5v-116 h310v172l368 61v-233h244v-256h-244v-352z" />
<glyph unicode="fft" horiz-adv-x="2105" d="M1833 406q0 -82 39 -118t117 -36q72 0 96 4l10 -256q-88 -31 -223 -31q-80 0 -148.5 18.5t-129 59.5t-95.5 118t-35 181v412h-309v-758h-369v758h-305v-758h-368v758h-113v256h113v127q0 178 113.5 281.5t281.5 103.5q129 0 223 -62l-47 -256q-41 10 -94 11 q-45 0 -77 -25t-32 -74v-106h305v137q0 178 110 281.5t278 103.5q119 0 221 -55l-47 -262q-39 10 -93 10q-43 0 -71.5 -24.5t-28.5 -74.5v-116h309v172l369 61v-233h244v-256h-244v-352z" />
<glyph unicode="tt" horiz-adv-x="1499" d="M1227 406q0 -82 39 -118t116 -36q72 0 97 4l10 -256q-88 -31 -223 -31q-80 0 -148.5 18.5t-129 59.5t-95.5 118t-35 181v412h-358v-352q0 -82 39 -118t116 -36q72 0 97 4l10 -256q-88 -31 -223 -31q-80 0 -148.5 18.5t-129 59.5t-95.5 118t-35 181v412h-141v256h141v223 l369 61v-284h358v223l369 61v-284h243v-256h-243v-352z" />
<glyph unicode="Th" horiz-adv-x="2011" d="M315 0v1126h-325v328h1044l369 62v-607h4q82 135 246 135q127 0 206.5 -83.5t79.5 -262.5v-698h-368v645q0 102 -76 103q-51 0 -71.5 -32t-20.5 -61v-655h-369v1126h-309v-1126h-410z" />
<glyph unicode="&#xd;" horiz-adv-x="681" />
<glyph unicode=" "  horiz-adv-x="450" />
<glyph unicode="&#x09;" horiz-adv-x="450" />
<glyph unicode="&#xa0;" horiz-adv-x="450" />
<glyph unicode="!" horiz-adv-x="501" d="M45 170q0 90 58.5 147.5t146.5 57.5t147.5 -57.5t59.5 -147.5q0 -86 -59.5 -143.5t-147.5 -57.5q-86 0 -145.5 57.5t-59.5 143.5zM31 1452l440 33l-106 -942h-232q-102 868 -102 909z" />
<glyph unicode="&#x22;" horiz-adv-x="845" d="M31 1485l338 35l-21 -701h-239q-78 639 -78 666zM469 1485l346 35l-117 -701h-239q10 639 10 666z" />
<glyph unicode="#" horiz-adv-x="1267" d="M1163 293h-194l-29 -293h-291l29 293h-152l-28 -293h-291l29 293h-195l31 256h190l14 153h-194l29 256h192l29 271h286l-26 -271h153l29 271h287l-27 -271h193l-27 -256h-190l-17 -153h195zM567 702l-16 -153h154l14 153h-152z" />
<glyph unicode="$" horiz-adv-x="1103" d="M573 375q111 0 111 84q0 25 -12.5 43t-45 35.5t-55 25.5t-80 26.5t-79.5 26.5q-162 55 -248 138.5t-86 246.5q0 162 101.5 263.5t266.5 128.5v135l267 69v-213q156 -33 240.5 -135t74.5 -278l-360 -10q0 156 -111 155q-47 0 -76.5 -23.5t-29.5 -68.5q0 -16 5 -31.5 t12 -27t22.5 -22.5t26.5 -18t34.5 -17.5t36 -15.5t43.5 -16.5t43 -15.5q68 -25 109.5 -43t100 -53t91.5 -72t57.5 -94t24.5 -127q0 -143 -95.5 -239.5t-248.5 -127.5v-147l-267 -70v213q-383 59 -372 420l362 10q0 -155 137 -155z" />
<glyph unicode="%" horiz-adv-x="1517" d="M41 1083q0 137 86 223.5t221 86.5q137 0 223 -86t86 -224q0 -133 -90 -219t-219 -86q-135 0 -221 85t-86 220zM289 1085.5q0 -30.5 17.5 -51t44 -20.5t44 20.5t17.5 51t-17.5 51t-44 20.5t-44 -20.5t-17.5 -51zM860 274q0 137 86 223.5t221 86.5q137 0 223.5 -86 t86.5 -224q0 -133 -90.5 -219t-219.5 -86q-135 0 -221 85t-86 220zM1108 276.5q0 -30.5 17.5 -51t44 -20.5t44 20.5t17.5 51t-17.5 51t-44 20.5t-44 -20.5t-17.5 -51zM1257 1454l-690 -1454h-266l690 1454h266z" />
<glyph unicode="&#x26;" horiz-adv-x="1325" d="M612 879v-246q-82 0 -127 -44t-45 -122q0 -82 51.5 -131t129.5 -49q90 0 144 63.5t54 165.5v117h-104v246h579v-246h-106v-86q0 -248 -169 -413t-417 -165t-399.5 123t-151.5 332q0 113 62.5 205t169.5 149q-82 41 -137.5 124t-55.5 183q0 182 148.5 291t351.5 109 q225 0 354 -121t129 -350l-358 -10q0 78 -32 120.5t-87 42.5q-57 0 -87 -38.5t-30 -98.5q0 -66 31.5 -108.5t101.5 -42.5z" />
<glyph unicode="'" horiz-adv-x="403" d="M31 1485l342 35l-45 -701h-240q-57 639 -57 666z" />
<glyph unicode="(" horiz-adv-x="755" d="M745 -254l-210 -55q-18 12 -49 34.5t-109 104.5t-137.5 177t-108.5 254t-49 333t48 335t115.5 265t135.5 183t115 114l49 37l211 -35q-12 -14 -33 -41t-74 -116t-93 -186t-72.5 -245.5t-32.5 -300.5q0 -156 30.5 -301t73.5 -241.5t86 -171t74 -109.5z" />
<glyph unicode=")" horiz-adv-x="755" d="M221 -309l-211 55q12 12 31.5 35.5t71 106.5t90.5 175.5t70.5 239t31.5 301.5q0 152 -31.5 299.5t-75.5 248.5t-89.5 182t-75.5 120l-33 39l211 35q18 -12 50 -37t112 -112t140 -186t110.5 -262t50.5 -337q0 -127 -24.5 -245t-64.5 -206t-89.5 -164.5t-97.5 -128t-88 -88 t-64 -53.5z" />
<glyph unicode="*" horiz-adv-x="872" d="M-25 1116l78 217l254 -100l-31 270l263 13l-29 -283l246 100l69 -231l-262 -47l201 -246l-207 -135l-156 254l-153 -250l-199 133l184 238z" />
<glyph unicode="+" horiz-adv-x="1105" d="M717 -10h-328v379h-338v297h338v368h328v-368h338v-297h-338v-379z" />
<glyph unicode="," horiz-adv-x="501" d="M59 -346l-69 104q98 29 154.5 81t64.5 91l8 37q-78 4 -130 60.5t-52 144.5q0 90 61.5 143.5t141.5 53.5q104 0 163.5 -72t59.5 -184q0 -115 -42 -205t-107.5 -141.5t-129.5 -79t-123 -33.5z" />
<glyph unicode="-" horiz-adv-x="579" d="M31 369v297h518v-297h-518z" />
<glyph unicode="." horiz-adv-x="509" d="M51 174q0 94 57.5 152.5t145.5 58.5t146.5 -58.5t58.5 -152.5q0 -90 -58.5 -147.5t-146.5 -57.5q-86 0 -144.5 57.5t-58.5 147.5z" />
<glyph unicode="/" horiz-adv-x="1019" d="M1030 1516l-733 -1721h-307l733 1721h307z" />
<glyph unicode="0" horiz-adv-x="1120" d="M1055 731q6 -168 0 -344q-6 -180 -135 -299t-354.5 -119t-360.5 120t-139 298q-4 223 0 340q8 180 141 305t352 125q213 0 350.5 -121t145.5 -305zM686 408q8 154 0 303q-4 61 -37 100t-88 39q-123 0 -131 -145q-8 -113 0 -295q4 -57 40 -95.5t91 -38.5q57 0 89 35.5 t36 96.5z" />
<glyph unicode="1" horiz-adv-x="890" d="M279 811h-173l-22 203l418 121l145 -9v-854l203 -47v-225h-768v225l197 47v539z" />
<glyph unicode="2" horiz-adv-x="1062" d="M86 0l-20 211q37 29 370 295q164 131 164 239q0 47 -24.5 76t-65.5 29q-53 0 -83 -39t-28 -106l-348 -21q-8 211 126 342t345 131q190 0 319.5 -99.5t129.5 -287.5q0 -180 -180 -338q-125 -106 -271 -164l174 19h328v-287h-936z" />
<glyph unicode="3" horiz-adv-x="1112" d="M545 -358q-225 0 -361.5 122.5t-142.5 319.5l348 20q6 -78 46 -116.5t101.5 -38.5t98.5 46t37 138t-50.5 143.5t-146.5 51.5l-88 -13l-49 162l229 342h-483v307h895l31 -225l-271 -385q135 -27 218 -139.5t83 -267.5q0 -209 -139 -338t-356 -129z" />
<glyph unicode="4" horiz-adv-x="1155" d="M657 584l338 92v-389h129v-277h-129l-10 -338h-348v338h-547l-39 199l309 917l388 82l-306 -921h195z" />
<glyph unicode="5" horiz-adv-x="1091" d="M1040 154q0 -250 -144 -381t-353 -131q-195 0 -339.5 110.5t-152.5 321.5l348 20q12 -145 138 -145q66 0 100.5 54t34.5 144q0 190 -137 191q-39 0 -69 -23.5t-42 -52.5l-295 21l57 843h781v-307h-486l-22 -274q78 39 200 39q164 0 272.5 -107.5t108.5 -322.5z" />
<glyph unicode="6" horiz-adv-x="1150" d="M70 459q-16 303 0 534q16 207 147 334t365 127q213 0 337.5 -105.5t127.5 -314.5l-349 -20q0 61 -31.5 97t-91.5 36q-129 0 -137 -172q-6 -94 -6 -230q12 25 36 52.5t95.5 60.5t165.5 33q162 0 266.5 -121t104.5 -307q0 -233 -141.5 -362.5t-362.5 -129.5 q-219 0 -366.5 130.5t-159.5 357.5zM588 614q-70 0 -108 -41t-42 -104q12 -193 158 -193q59 0 97 44.5t38 123.5q0 170 -143 170z" />
<glyph unicode="7" horiz-adv-x="1048" d="M977 1126l41 -256l-510 -1198h-408l494 1147h-584v307h967z" />
<glyph unicode="8" horiz-adv-x="1110" d="M428 1012q0 -70 36 -106t91 -36t91 36t36 106q0 68 -36 101.5t-91 33.5t-91 -33.5t-36 -101.5zM418 430q0 -76 39 -115t98 -39q57 0 97 39t40 115q0 74 -40 114t-97 40t-97 -40t-40 -114zM1059 412q0 -219 -145.5 -331t-364.5 -112q-215 0 -356.5 106.5t-141.5 315.5 q0 221 197 336q-88 45 -138.5 129t-50.5 172q0 207 144.5 316.5t355.5 109.5q207 0 349.5 -106.5t142.5 -307.5q0 -88 -54.5 -177t-142.5 -136q98 -31 151.5 -120t53.5 -195z" />
<glyph unicode="9" horiz-adv-x="1167" d="M1075 672q20 -268 0 -561q-16 -225 -156.5 -347t-371.5 -122q-207 0 -340 114.5t-141 302.5l348 21q0 -59 41 -95t102 -36q137 0 150 166q6 92 6 215q-47 -133 -254 -133q-176 0 -292 124.5t-116 331.5q0 215 132 359.5t365.5 144.5t372 -132t154.5 -353zM578 483 q76 0 105.5 46t23.5 118v19q-10 184 -152 184q-59 0 -97 -49t-38 -135q0 -183 158 -183z" />
<glyph unicode=":" horiz-adv-x="493" d="M61 174q0 94 57.5 152.5t145.5 58.5t146.5 -58.5t58.5 -152.5q0 -90 -58.5 -147.5t-146.5 -57.5q-86 0 -144.5 57.5t-58.5 147.5zM61 766q0 94 57.5 152.5t145.5 58.5t146.5 -58.5t58.5 -152.5q0 -90 -58.5 -147.5t-146.5 -57.5q-86 0 -144.5 57.5t-58.5 147.5z" />
<glyph unicode=";" horiz-adv-x="499" d="M59 -346l-69 104q98 29 154.5 81t64.5 91l8 37q-78 4 -130 60.5t-52 144.5q0 90 61.5 143.5t141.5 53.5q104 0 163.5 -72t59.5 -184q0 -115 -42 -205t-107.5 -141.5t-129.5 -79t-123 -33.5zM68 768q0 94 57 152.5t145 58.5t146.5 -58.5t58.5 -152.5q0 -90 -58.5 -147.5 t-146.5 -57.5q-86 0 -144 57.5t-58 147.5z" />
<glyph unicode="&#x3c;" horiz-adv-x="1046" d="M61 442v82l799 514l135 -229l-489 -303l2 -23l485 -327l-157 -219z" />
<glyph unicode="=" horiz-adv-x="1048" d="M51 590v287h946v-287h-946zM51 190v287h946v-287h-946z" />
<glyph unicode="&#x3e;" horiz-adv-x="1046" d="M985 520v-82l-799 -504l-135 230l488 303l-2 27l-484 323l158 219z" />
<glyph unicode="?" horiz-adv-x="995" d="M559 532h-190l-13 52q-18 92 12.5 149.5t131.5 159.5q51 55 63 89t12 89q0 96 -83 96q-41 0 -67 -34.5t-24 -98.5l-358 -10q-8 221 127 341t346 120q184 0 316.5 -104.5t132.5 -288.5q0 -98 -43 -164t-158 -154q-20 -14 -45 -33.5t-39 -31t-32.5 -24.5t-29 -22.5 t-21.5 -19.5t-17.5 -17.5t-11.5 -16.5t-7 -16t-2 -15v-46zM266 170q0 90 58.5 147.5t146.5 57.5t147.5 -57.5t59.5 -147.5q0 -86 -59.5 -143.5t-147.5 -57.5q-86 0 -145.5 57.5t-59.5 143.5z" />
<glyph unicode="@" horiz-adv-x="1964" d="M1020 377l59 323q-27 18 -61 19q-70 0 -92 -84q-25 -92 -39 -211q-12 -94 59 -94q49 0 74 47zM1448 -47l80 -184q-115 -90 -284 -135.5t-339 -45.5q-238 0 -431 91.5t-313 276.5t-120 437q0 451 286.5 735.5t737.5 284.5q178 0 330.5 -48t271.5 -141.5t187.5 -243 t68.5 -337.5q0 -270 -146.5 -440t-402.5 -170q-231 0 -315 164q-102 -133 -258 -134q-125 0 -197 88.5t-55 274.5q10 106 43 238q86 332 452 331q242 0 386 -133l-82 -475q-20 -123 75 -123q74 0 134.5 83t60.5 276q0 246 -146.5 390t-408.5 144q-319 0 -513 -200.5 t-194 -536.5q0 -266 166 -420t453 -154q229 1 473 107z" />
<glyph unicode="A" horiz-adv-x="1243" d="M834 0l-48 256h-348l-49 -256h-399l327 1368v86h605l331 -1454h-419zM588 1014l-84 -430h223l-78 430l-31 188z" />
<glyph unicode="B" horiz-adv-x="1214" d="M102 0v1454q281 2 486 2q129 0 225 -15.5t179 -54t126 -112.5t43 -182q0 -119 -80 -206t-200 -120v-6q8 0 33.5 -5t72.5 -25.5t86 -53.5t70 -98.5t31 -151.5q0 -186 -137.5 -307t-444.5 -121zM512 614v-276q2 0 30.5 -1t57.5 -1q164 0 164 139q0 141 -162 141 q-20 0 -40.5 -1t-34 -1h-15.5zM512 1116v-256q2 0 37 -1t59 -1q143 0 144 135q0 125 -158 125q-29 0 -54.5 -1t-27.5 -1z" />
<glyph unicode="C" horiz-adv-x="1146" d="M1126 983l-378 -10q0 86 -36 130t-97.5 44t-99.5 -40t-40 -116q-8 -193 0 -516q6 -168 137 -168q59 0 102.5 46t43.5 128l379 -10q0 -225 -144.5 -363.5t-390.5 -138.5q-238 0 -385 130t-151 356q-6 385 0 555q8 225 167.5 350t380.5 125q109 0 201 -31t164 -90 t111.5 -157.5t35.5 -223.5z" />
<glyph unicode="D" horiz-adv-x="1241" d="M102 0v1454q184 10 381 10q645 0 680 -481q25 -330 11 -524q-35 -469 -707 -469zM756 956q-10 170 -197 170l-57 -4v-790q2 -4 51 -4q188 0 203 172q16 196 0 456z" />
<glyph unicode="E" horiz-adv-x="1052" d="M102 0v1454h869v-338h-459v-215h416v-328h-416v-235h459v-338h-869z" />
<glyph unicode="F" horiz-adv-x="995" d="M102 0v1454h883v-338h-473v-276h432v-328h-432v-512h-410z" />
<glyph unicode="G" horiz-adv-x="1208" d="M1163 481q-8 -258 -162.5 -385t-388 -127t-388 127t-158.5 359q-6 385 0 555q8 225 169.5 350t385.5 125q227 0 377.5 -129t142.5 -373l-379 -10q0 84 -39 129t-102.5 45t-102.5 -42t-43 -114q-10 -244 0 -516q2 -82 44 -125t106 -43q68 0 106.5 41t42.5 111v73h-147v287 h538q2 -227 -2 -338z" />
<glyph unicode="H" horiz-adv-x="1372" d="M1270 1454v-1454h-410v563h-348v-563h-410v1454h410v-553h348v553h410z" />
<glyph unicode="I" horiz-adv-x="614" d="M512 1454v-1454h-410v1454h410z" />
<glyph unicode="J" horiz-adv-x="1069" d="M578 1454h409v-983q0 -242 -144.5 -372t-359.5 -130q-219 0 -356 131t-125 371l358 10q-4 -174 115 -174q102 0 103 164v983z" />
<glyph unicode="K" horiz-adv-x="1288" d="M1298 0h-450l-326 739l326 715h432l-340 -670zM512 1454v-1454h-410v1454h410z" />
<glyph unicode="L" horiz-adv-x="956" d="M102 0v1454h410v-1116h424v-338h-834z" />
<glyph unicode="M" horiz-adv-x="1572" d="M834 266h-129l-162 373l-72 197l-4 -2l20 -201l5 -633h-390v1454h400l217 -543l63 -161h4l60 159l237 545h387v-1454h-409l4 637l20 197l-4 2l-77 -199z" />
<glyph unicode="N" horiz-adv-x="1357" d="M866 1454h389v-1454h-360l-344 598l-59 168v-766h-390v1454h355l360 -676l49 -137v813z" />
<glyph unicode="O" horiz-adv-x="1232" d="M68 985q8 238 162.5 369t388 131t387 -131t161.5 -369q8 -242 0 -518q-6 -238 -161.5 -368t-389 -130t-386 130t-162.5 372q-10 246 0 514zM477 461q8 -154 139 -154q133 0 142 154q12 254 0 543q-6 143 -139.5 143t-141.5 -143q-6 -94 -6 -270.5t6 -272.5z" />
<glyph unicode="P" horiz-adv-x="1187" d="M512 0h-410v1454q176 2 349 2q123 0 213 -7t195.5 -37t172 -82t111.5 -147.5t45 -226.5q0 -219 -154.5 -353t-410.5 -134l-111 4v-473zM512 1116v-328q25 -2 70 -2q86 0 141 41t55 129q0 162 -211 162z" />
<glyph unicode="Q" horiz-adv-x="1241" d="M68 985q8 238 162.5 369t388 131t387 -131t161.5 -369q8 -242 0 -518q-6 -201 -120.5 -327t-296.5 -158q70 -8 225 -41q184 -37 229 -37t58 2v-256q-35 -47 -111 -47q-145 0 -352 139q-324 217 -428 270q-135 53 -215 170t-88 289q-10 246 0 514zM477 461 q8 -154 139 -154q133 0 142 154q12 254 0 543q-6 143 -139.5 143t-141.5 -143q-6 -94 -6 -270.5t6 -272.5z" />
<glyph unicode="R" horiz-adv-x="1226" d="M584 547h-62v-547h-409v1454q197 4 413 4q150 0 258.5 -16.5t202.5 -59.5t143.5 -125.5t49.5 -205.5q0 -281 -269 -396q55 -31 103 -123q37 -74 95 -206.5t99 -229.5l39 -96h-436zM772 985q0 154 -192 154l-58 -2v-303q6 -4 45 -5q205 0 205 156z" />
<glyph unicode="S" horiz-adv-x="1185" d="M608 307q127 0 127 90q0 49 -58.5 90t-219.5 95q-383 125 -383 446q0 219 153.5 338t376.5 119q229 0 374.5 -126t135.5 -376l-379 -10q0 174 -135 174q-49 0 -83 -23.5t-34 -66.5q0 -57 52.5 -95t226.5 -100q193 -68 288 -165t95 -289q0 -199 -150.5 -319t-384.5 -120 q-154 0 -276.5 50.5t-200.5 167t-70 284.5l379 10q0 -90 46 -132t120 -42z" />
<glyph unicode="T" horiz-adv-x="1040" d="M315 0v1116h-325v338h1061v-338h-326v-1116h-410z" />
<glyph unicode="U" horiz-adv-x="1239" d="M762 1454h391q6 -518 0 -1014q-2 -221 -158.5 -346t-380.5 -125q-221 0 -373.5 125t-154.5 350v1010h391q-2 -113 -2 -488.5t2 -492.5q2 -78 42 -122t103.5 -44t99.5 44t40 122q2 111 2 484.5t-2 496.5z" />
<glyph unicode="V" horiz-adv-x="1222" d="M813 1454h410l-324 -1454h-559l-340 1454h430l195 -1057z" />
<glyph unicode="W" horiz-adv-x="1775" d="M1235 518l25 260l86 676h409l-282 -1454h-429l-122 676l-27 227h-4l-27 -227l-116 -676h-445l-283 1454h431l96 -676l26 -254h7l26 254l115 676h352l125 -676l31 -260h6z" />
<glyph unicode="X" horiz-adv-x="1255" d="M1237 1454l-369 -711l398 -743h-471l-191 438l-164 -438h-440l371 752l-371 702h471l164 -387l162 387h440z" />
<glyph unicode="Y" horiz-adv-x="1148" d="M774 0h-409v543l-426 911h434l164 -420l43 -141l45 141l170 420h415l-436 -913v-541z" />
<glyph unicode="Z" horiz-adv-x="1089" d="M41 1116v338h995l15 -219l-529 -897h537v-338h-1016l-12 229l530 887h-520z" />
<glyph unicode="[" horiz-adv-x="636" d="M51 -287v1803h545v-136l-197 -51v-1429l197 -52v-135h-545z" />
<glyph unicode="\" horiz-adv-x="921" d="M629 -205l-639 1721h307l635 -1721h-303z" />
<glyph unicode="]" horiz-adv-x="636" d="M586 1516v-1803h-545v135l197 52v1429l-197 51v136h545z" />
<glyph unicode="^" horiz-adv-x="907" d="M295 1454h334l268 -369h-307l-131 201l-152 -201h-297z" />
<glyph unicode="_" horiz-adv-x="925" d="M-10 -369v297h946v-297h-946z" />
<glyph unicode="`" horiz-adv-x="604" d="M-20 1454h378l164 -297h-243z" />
<glyph unicode="a" d="M1038 256v-256q-55 -20 -124.5 -26.5t-153.5 24.5t-123 106h-4q-100 -135 -271 -135q-129 0 -215 88t-86 224q0 102 50.5 162.5t164.5 93.5q61 18 133 35.5t113 25.5l41 8v70q0 72 -55 72q-31 0 -49.5 -20.5t-12.5 -61.5l-337 -11q-14 178 100.5 283.5t312.5 105.5 q180 0 295 -95t115 -271v-324q0 -61 19 -79.5t87 -18.5zM483 422q-53 -18 -53 -88q0 -78 68 -78q29 0 47 18.5t18 51.5v118q-45 -10 -80 -22z" />
<glyph unicode="b" horiz-adv-x="1042" d="M451 1536v-584q8 10 24.5 25.5t75.5 41t129 25.5q129 0 211 -81.5t86 -225.5q8 -197 0 -411q-6 -164 -139 -260.5t-306 -96.5q-119 0 -231.5 18.5t-165.5 37.5l-53 16v1434zM451 651v-370q31 -14 77 -15q29 0 53.5 19.5t26.5 52.5q4 156 0 332q0 78 -69 78 q-41 0 -64.5 -28t-23.5 -69z" />
<glyph unicode="c" horiz-adv-x="958" d="M911 655l-338 -10q6 45 -12 74t-53 29q-72 0 -74 -82q-6 -152 0 -314q2 -39 24.5 -62.5t51.5 -23.5q37 0 55.5 25.5t14.5 66.5l338 -10q-4 -164 -114 -271.5t-294 -107.5q-195 0 -316.5 101.5t-128 281.5t0.5 328q8 168 134 266t308 98q201 0 309 -104.5t94 -284.5z" />
<glyph unicode="d" horiz-adv-x="1091" d="M586 342v328q0 37 -21.5 57.5t-52.5 20.5q-74 0 -78 -78q-6 -162 0 -322q4 -82 78 -82q35 0 54.5 20.5t19.5 55.5zM1061 256v-256q-66 -23 -143.5 -25t-154.5 29t-112 96q-2 -6 -8 -14t-27.5 -30.5t-49 -40t-74 -32t-99.5 -14.5q-131 0 -225 88t-102 246q-6 180 0 369 q8 180 101 276t226 96q57 0 105.5 -12t66.5 -24l21 -15v482l368 61v-1182q0 -61 19.5 -79.5t87.5 -18.5z" />
<glyph unicode="e" horiz-adv-x="983" d="M432 352q0 -39 19.5 -62.5t54.5 -23.5q33 0 53.5 21.5t22.5 60.5l338 -10q-6 -168 -122 -268.5t-292 -100.5q-182 0 -307 98.5t-133 284.5q-6 143 0 297q6 176 134 285.5t316 109.5q178 0 297 -94t119 -268q0 -102 -51.5 -147.5t-175.5 -71.5l-273 -47v-64zM432 676v-98 q35 2 70 10q37 8 49 23.5t12 60.5q0 76 -63 76q-68 0 -68 -72z" />
<glyph unicode="f" horiz-adv-x="679" d="M113 1014v137q0 178 113.5 281.5t281.5 103.5q137 0 233 -55l-47 -262q-51 10 -104 10q-45 0 -77 -24.5t-32 -74.5v-116h197v-256h-197v-758h-368v758h-113v256h113z" />
<glyph unicode="g" horiz-adv-x="1087" d="M547 307q-70 0 -119 10q-33 -14 -33 -41q0 -35 37 -41t156 -21t180 -28q145 -31 227 -115.5t82 -215.5q0 -184 -143 -291t-371 -107q-229 0 -386 82t-157 230q0 59 27 89.5t92 49.5l111 24l100 11v10l-67 10q-86 16 -140.5 66.5t-54.5 134.5q0 139 172 213 q-162 98 -162 299q0 174 128 271t315 97q47 0 93 -8t66 -16l23 -6h344q12 -111 -2 -246q-176 8 -223 18v-6q113 -41 112.5 -174t-111 -216t-296.5 -83zM711 -170q0 68 -97 90l-165 -45q-57 -16 -58 -47q0 -37 46 -60.5t116 -23.5q76 0 117 23.5t41 62.5zM541 758 q-31 0 -51.5 -20.5t-20.5 -59.5q0 -84 72 -84q74 0 73 84q1 80 -73 80z" />
<glyph unicode="h" horiz-adv-x="1069" d="M629 0v645q0 102 -76 103q-51 0 -71.5 -32t-20.5 -61v-655h-369v1475l369 61v-627h4q82 135 246 135q127 0 206.5 -83.5t79.5 -262.5v-698h-368z" />
<glyph unicode="i" horiz-adv-x="600" d="M61 1333q0 88 60.5 145.5t148.5 57.5q90 0 150.5 -56.5t60.5 -146.5q0 -86 -61.5 -141t-149.5 -55t-148.5 56t-60.5 140zM451 1024v-678q0 -55 29.5 -72.5t88.5 -17.5v-256q-82 -18 -155.5 -19t-154.5 18t-129 91t-48 191v680z" />
<glyph unicode="j" horiz-adv-x="606" d="M487 1024v-1198q0 -106 -35.5 -181t-88 -111t-124 -51t-134 -12t-125.5 17v256q139 0 139 111v1106zM94 1333q0 88 60.5 145.5t148.5 57.5q90 0 150.5 -56.5t60.5 -146.5q0 -86 -61.5 -141t-149.5 -55t-148.5 56t-60.5 140z" />
<glyph unicode="k" horiz-adv-x="1077" d="M461 1536v-1536h-369v1475zM475 590l158 252q68 106 136.5 154t166.5 48q37 0 63.5 -4t36.5 -8l8 -6v-256q-45 0 -70.5 -13.5t-51.5 -51.5l-84 -127l112 -240q39 -84 127 -84v-256q-68 -29 -125 -29q-100 0 -181 45t-140 176l-156 345v55z" />
<glyph unicode="l" horiz-adv-x="600" d="M451 1536v-1190q0 -55 29.5 -72.5t88.5 -17.5v-256q-82 -18 -155.5 -19t-154.5 18t-129 91t-48 191v1194z" />
<glyph unicode="m" horiz-adv-x="1587" d="M492 0h-369v651q0 59 -22.5 83t-80.5 24v246q68 31 150 30q174 0 258 -127h8q82 137 256 137q178 0 258 -139h8q92 139 261 139q141 0 219 -92t78 -266v-686h-369v670q0 78 -64 78q-33 0 -55 -27t-24 -59v-662h-369v664q0 84 -60 84q-33 0 -56 -21.5t-27 -52.5v-674z" />
<glyph unicode="n" horiz-adv-x="1095" d="M584 748q-45 0 -67.5 -30t-24.5 -59v-659h-369v651q0 59 -22.5 83t-80.5 24v246q68 31 150 30q178 0 262 -133h4q90 143 275 143q139 0 226 -90t87 -276v-678h-369v668q1 80 -71 80z" />
<glyph unicode="o" horiz-adv-x="1017" d="M952 336q-6 -166 -130 -266.5t-312 -100.5t-312 100.5t-132 268.5q-6 162 0 336q6 166 132 268t312 102t310 -102t132 -268q6 -156 0 -338zM584 664q-2 35 -22.5 59.5t-51.5 24.5t-52.5 -25t-23.5 -59q-6 -154 0 -310q2 -39 23.5 -63.5t52.5 -24.5t51.5 24.5t22.5 63.5 q6 146 0 310z" />
<glyph unicode="p" horiz-adv-x="1083" d="M123 -512v1163q0 57 -23.5 82t-79.5 25v256q68 12 139.5 17t148.5 -27.5t120 -102.5q4 6 11 15.5t33 34t54.5 44t76.5 34.5t99 15q139 0 224.5 -92t91.5 -260q6 -166 0 -348q-6 -186 -105.5 -280.5t-261.5 -94.5q-43 0 -83 8.5t-58 16.5l-18 8v-514h-369zM492 651v-301 q0 -39 21.5 -61.5t55.5 -22.5q37 0 58.5 23.5t21.5 58.5v307q0 92 -71 93q-37 0 -61.5 -29t-24.5 -68z" />
<glyph unicode="q" horiz-adv-x="1036" d="M954 969v-1481h-368v543q-61 -61 -197 -62q-133 0 -224 87t-99 241q-8 133 0 365q6 188 131 285t317 97q115 0 224.5 -18t162.5 -39zM586 342v397q-16 8 -72 9q-78 0 -80 -82q-4 -207 0 -322q2 -35 21.5 -56.5t50.5 -21.5q33 0 56.5 22.5t23.5 53.5z" />
<glyph unicode="r" horiz-adv-x="788" d="M123 0v651q0 59 -22.5 83t-80.5 24v246q68 31 150 30q219 0 264 -237h6q0 100 58.5 173.5t148.5 73.5q94 0 141 -51l-20 -276q-25 2 -70 2q-98 0 -151 -33t-55 -123v-563h-369z" />
<glyph unicode="s" horiz-adv-x="929" d="M872 666l-337 -11q0 92 -62 93q-59 0 -59 -56q0 -35 29.5 -54.5t113.5 -43.5q72 -20 104.5 -30.5t86 -36t78 -52t44 -74t19.5 -108.5q0 -133 -121 -228.5t-305 -95.5q-178 0 -296 93.5t-126 275.5l338 10q2 -37 21.5 -59.5t52.5 -22.5q31 0 49 16.5t18 41.5q0 12 -3 20 t-12 15.5t-17.5 12.5t-27 10t-31.5 9t-43 11.5t-50 13.5q-66 18 -110 36.5t-90 50.5t-68.5 83t-22.5 121q0 154 125 245.5t311 91.5q184 0 295.5 -105t95.5 -273z" />
<glyph unicode="t" horiz-adv-x="772" d="M500 406q0 -82 39 -118t116 -36q72 0 97 4l10 -256q-88 -31 -223 -31q-80 0 -148.5 18.5t-129 59.5t-95.5 118t-35 181v412h-141v256h141v223l369 61v-284h243v-256h-243v-352z" />
<glyph unicode="u" horiz-adv-x="1099" d="M1069 256v-256q-96 -39 -224 -15.5t-194 113.5q-12 -20 -30.5 -42.5t-81 -54.5t-140.5 -32q-150 0 -238.5 97.5t-88.5 291.5v605l368 61v-653q0 -104 76 -105q33 0 53.5 21.5t24.5 56.5v621l369 59v-670q0 -61 19 -79.5t87 -18.5z" />
<glyph unicode="v" horiz-adv-x="958" d="M979 1014l-277 -1014h-436l-286 1014h395l80 -455l32 -207h7l36 207l86 455h363z" />
<glyph unicode="w" horiz-adv-x="1529" d="M1540 1014l-237 -1014h-429l-77 395l-33 223h-8l-31 -223l-86 -395h-414l-235 1014h395l55 -465l17 -158h6l24 156l103 467h352l105 -469l26 -152h10l21 154l63 467h373z" />
<glyph unicode="x" horiz-adv-x="1034" d="M1047 1014l-302 -506l310 -508h-418l-137 248l-142 -248h-378l323 506l-321 508h421l125 -275l134 275h385z" />
<glyph unicode="y" horiz-adv-x="985" d="M143 -512l170 522l-323 1004h389l84 -461l29 -180h4l34 180l97 461h368l-483 -1526h-369z" />
<glyph unicode="z" horiz-adv-x="911" d="M881 276v-276h-820l-10 236l371 501h-371v277h789l12 -258l-354 -480h383z" />
<glyph unicode="{" horiz-adv-x="735" d="M156 850v362q0 104 42 174t104.5 96.5t133 30t132 -14t96.5 -46.5l20 -125q-94 0 -137 -31.5t-43 -138.5v-272q0 -109 -72 -188t-172 -83q100 -6 172 -85.5t72 -188.5v-268q0 -106 43 -138t137 -32l-20 -125q-45 -39 -128 -54.5t-169 -1t-148.5 90t-62.5 204.5v369 q0 135 -136 166v133q136 31 136 166z" />
<glyph unicode="|" horiz-adv-x="491" d="M389 1536v-2048h-287v2048h287z" />
<glyph unicode="}" horiz-adv-x="735" d="M580 1212v-362q0 -135 135 -166v-133q-135 -31 -135 -166v-369q0 -129 -62.5 -204.5t-148.5 -90t-169 1t-128 54.5l-21 125q94 0 137 31.5t43 138.5v268q0 109 71 188.5t173 85.5q-102 4 -173 83t-71 188v272q0 106 -43 138t-137 32l21 125q35 29 96 46.5t132 14 t133.5 -30t104.5 -96.5t42 -174z" />
<glyph unicode="~" horiz-adv-x="815" d="M588 395q-61 0 -197.5 41t-152.5 41q-39 0 -74 -80l-82 27q-29 66 -30 139.5t49.5 132t134.5 58.5q74 0 200.5 -41t149.5 -41q8 0 15 4t12 8t11.5 14.5t8.5 15.5t8 19.5t8 18.5l82 -27q29 -66 32 -139.5t-44 -132t-131 -58.5z" />
<glyph unicode="&#xa1;" horiz-adv-x="497" d="M453 844q0 -90 -58.5 -147.5t-146.5 -57.5t-147.5 57.5t-59.5 147.5q0 86 59.5 143t147.5 57q86 0 145.5 -57t59.5 -143zM467 -438l-440 -33l106 942h232q102 -868 102 -909z" />
<glyph unicode="&#xa2;" horiz-adv-x="958" d="M911 655l-338 -10q6 45 -12 74t-53 29q-72 0 -74 -82q-6 -152 0 -314q2 -39 24.5 -62.5t51.5 -23.5q37 0 55.5 25.5t14.5 66.5l338 -10q-4 -129 -75 -226t-196 -134v-150l-287 -74v224q-133 33 -211.5 127t-82.5 237q-6 180 0 328q6 129 85.5 219t208.5 125v141l287 74 v-211q135 -33 204.5 -130.5t59.5 -242.5z" />
<glyph unicode="&#xa3;" horiz-adv-x="1214" d="M801 543h-183v-45q0 -121 -88 -219q137 49 236 49h408l-37 -328h-1045l-33 215q6 2 18.5 5t41 17.5t51.5 35t41 60.5t18 91q0 72 -2 119h-176l37 256h133q-2 70 -2 184q0 233 137.5 367.5t360.5 134.5q213 0 337 -132t107 -349l-379 -11q12 154 -86 154q-88 0 -88 -143 q0 -41 4 -205h226z" />
<glyph unicode="&#xa5;" horiz-adv-x="1271" d="M141 487v195h219l-360 772h434l164 -420l43 -141l45 141l170 420h416l-369 -772h205v-195h-272v-71h272v-195h-272v-221h-410v221h-285v195h285v71h-285z" />
<glyph unicode="&#xa6;" horiz-adv-x="491" d="M389 1536v-829h-287v829h287zM389 338v-850h-287v850h287z" />
<glyph unicode="&#xa7;" horiz-adv-x="1026" d="M838 461q-23 25 -68 45t-195 74q27 20 27 65q0 23 -11 41.5t-36 34.5t-49.5 27.5t-68.5 31t-75 35.5q-117 57 -181 136t-64 210q0 145 114.5 234.5t292.5 89.5q176 0 279.5 -91t101.5 -261l-313 -11q0 86 -62 86q-25 0 -40 -17t-15 -46q0 -35 32 -66.5t69.5 -51 t111.5 -52.5q125 -55 201 -128t76 -188q0 -147 -127 -198zM209 782q12 -20 58 -39.5t190 -70.5q-31 -18 -31 -64q0 -25 20.5 -45t45 -32.5t74.5 -34t81 -37.5q68 -35 103.5 -56.5t85 -64.5t72 -99.5t22.5 -129.5q0 -139 -124 -228.5t-306.5 -89.5t-301 92t-126.5 256l338 11 q2 -37 23.5 -59.5t55.5 -22.5q33 0 52.5 20.5t19.5 46.5q0 35 -43 60.5t-131 60.5q-18 6 -27 10q-131 53 -207.5 122t-76.5 183q0 137 133 211z" />
<glyph unicode="&#xa8;" horiz-adv-x="950" d="M119 1312.5q0 63.5 45 109.5t110 46q63 0 108.5 -46t45.5 -109.5t-45 -108.5t-108.5 -45t-109.5 45t-46 108.5zM522 1312.5q0 63.5 46 109.5t109.5 46t108.5 -46t45 -109.5t-45 -108.5t-108.5 -45t-109.5 45t-46 108.5z" />
<glyph unicode="&#xa9;" horiz-adv-x="1748" d="M113 669.5q0 317.5 222 541t539.5 223.5t540.5 -223.5t223 -541t-223 -539.5t-540.5 -222t-539.5 222t-222 539.5zM358 671.5q0 -239.5 145.5 -394t375.5 -154.5q227 0 370.5 154.5t143.5 394t-143.5 394.5t-370.5 155q-229 0 -375 -155t-146 -394.5zM1217 782l-267 -10 q0 102 -76 102q-63 0 -67 -77q-2 -104 0 -226q4 -82 74 -82q39 0 60.5 29t21.5 72l264 -10q-2 -135 -101.5 -214t-246.5 -79q-313 0 -336 286q-6 80 0 209q8 139 99 216t243 77q156 0 245 -77t87 -216z" />
<glyph unicode="&#xaa;" horiz-adv-x="790" d="M719 965v-166q-37 -14 -86 -18.5t-108.5 14t-84.5 71.5h-2q-23 -37 -69.5 -62.5t-106.5 -25.5q-96 0 -153.5 56.5t-57.5 146.5q0 68 35 105.5t111 60.5l196 45v41q0 47 -37 47q-47 0 -39 -53l-235 -6q-8 115 73 184.5t212 69.5q119 0 200.5 -62.5t81.5 -175.5v-209 q0 -39 13.5 -51t56.5 -12zM51 369v266h688v-266h-688zM340 1073q-35 -14 -35 -53q0 -47 45 -47q43 0 43 45v69q-30 -6 -53 -14z" />
<glyph unicode="&#xab;" horiz-adv-x="1167" d="M903 586v-39l258 -279l-174 -180l-448 449v43l460 426l168 -185zM385 586v-39l258 -279l-174 -180l-449 449v43l461 426l168 -185z" />
<glyph unicode="&#xac;" horiz-adv-x="1064" d="M51 379v297h963v-676h-328v379h-635z" />
<glyph unicode="&#xae;" horiz-adv-x="1628" d="M51 669.5q0 317.5 222.5 541t539.5 223.5t540.5 -223.5t223.5 -541t-223.5 -539.5t-540.5 -222t-539.5 222t-222.5 539.5zM297 671.5q0 -239.5 145.5 -394t374.5 -154.5q227 0 370.5 154.5t143.5 394t-143.5 394.5t-370.5 155q-229 0 -374.5 -155t-145.5 -394.5zM891 307 l-105 275h-18v-275h-266v748h332q158 0 241.5 -63.5t83.5 -164.5q0 -125 -137 -200q35 -33 41 -49l115 -271h-287zM768 852v-129h45q80 0 80 70q0 59 -82 59h-43z" />
<glyph unicode="&#xaf;" horiz-adv-x="802" d="M102 1116v266h598v-266h-598z" />
<glyph unicode="&#xb0;" horiz-adv-x="675" d="M20 1085.5q0 131.5 92.5 224.5t225.5 93t225 -93t92 -224.5t-92 -224.5t-225 -93t-225.5 93t-92.5 224.5zM256 1085.5q0 -38.5 22.5 -65.5t59.5 -27t59.5 27t22.5 65.5t-22.5 65.5t-59.5 27t-59.5 -27t-22.5 -65.5z" />
<glyph unicode="&#xb1;" horiz-adv-x="1146" d="M172 246h799v-277h-799v277zM737 328h-327v295h-287v286h287v316h327v-316h287v-286h-287v-295z" />
<glyph unicode="&#xb2;" horiz-adv-x="817" d="M94 799l-22 174q39 33 132 99.5t126 92.5q76 61 103.5 104.5t27.5 96.5q0 27 -14.5 42t-36.5 15q-68 0 -68 -92l-266 -10q-8 137 87 222t257 85q145 0 231 -73.5t86 -200.5q0 -70 -28.5 -119t-87.5 -102q-47 -41 -193 -119h338v-215h-672z" />
<glyph unicode="&#xb3;" horiz-adv-x="786" d="M449 1059q0 100 -123 100q-8 0 -64 -6l-16 102l139 138h-305v204h608v-147l-160 -180q90 -2 143.5 -61.5t53.5 -147.5q0 -127 -101.5 -205t-244.5 -78q-139 0 -228.5 66.5t-99.5 199.5l266 11q0 -72 66 -72q29 0 47.5 21.5t18.5 54.5z" />
<glyph unicode="&#xb4;" horiz-adv-x="612" d="M236 1454h409l-321 -297h-242z" />
<glyph unicode="&#xb6;" horiz-adv-x="1165" d="M471 1178v194h612v-194h-153v-983h153v-195h-612v195h152v983h-152zM516 1075v-760h-49q-209 0 -322.5 108.5t-113.5 272.5t113.5 271.5t322.5 107.5h49z" />
<glyph unicode="&#xb7;" horiz-adv-x="534" d="M82 522q0 94 57.5 152.5t145.5 58.5t146 -58.5t58 -152.5q0 -90 -58 -147.5t-146 -57.5q-86 0 -144.5 57.5t-58.5 147.5z" />
<glyph unicode="&#xb8;" horiz-adv-x="661" d="M328 -246v185q121 0 194.5 -67t73.5 -167q0 -104 -75 -170.5t-183.5 -66.5t-184 66.5t-67.5 176.5h195q0 -23 14 -41t41 -18q45 0 45 49q0 20 -14 36.5t-39 16.5z" />
<glyph unicode="&#xb9;" horiz-adv-x="688" d="M229 1403h-135l-12 147l305 68l119 -10v-615l151 -24v-170h-575v168l147 24v412z" />
<glyph unicode="&#xba;" horiz-adv-x="727" d="M51 369v266h625v-266h-625zM670 1022q-4 -111 -86 -177.5t-217.5 -66.5t-217 66.5t-88.5 177.5q-6 102 0 209q6 111 89 177.5t216.5 66.5t216.5 -67t87 -177q6 -96 0 -209zM414 1225q0 23 -13.5 39t-34 16t-35 -16.5t-14.5 -38.5q-6 -96 0 -193q0 -25 14.5 -42t35 -17 t34 17.5t13.5 41.5q6 91 0 193z" />
<glyph unicode="&#xbb;" horiz-adv-x="1167" d="M776 539v39l-258 264l189 194l440 -461v-43l-428 -475l-195 191zM258 539v39l-258 264l188 194l441 -461v-43l-428 -475l-195 191z" />
<glyph unicode="&#xbc;" horiz-adv-x="1886" d="M250 1260h-135l-13 147l306 68l118 -11v-614l152 -25v-170h-576v168l148 25v412zM1413 174h-342l-31 141l334 504q174 0 305 -10v-440h105v-195h-105v-174h-266v174zM1243 369h170v252zM1434 1454l-691 -1454h-266l690 1454h267z" />
<glyph unicode="&#xbd;" horiz-adv-x="1939" d="M250 1260h-135l-13 147l306 68l118 -11v-614l152 -25v-170h-576v168l148 25v412zM1165 0l-22 174q39 33 132 99.5t126 93.5q76 61 103.5 104t27.5 96q0 27 -14.5 42.5t-36.5 15.5q-68 0 -68 -93l-266 -10q-8 137 87 222t257 85q145 0 231 -73.5t86 -200.5 q0 -70 -28.5 -119t-87.5 -102q-47 -41 -193 -119h338v-215h-672zM1434 1454l-691 -1454h-266l690 1454h267z" />
<glyph unicode="&#xbe;" horiz-adv-x="1912" d="M500 915q0 100 -123 101q-8 0 -64 -6l-16 102l139 137h-305v205h608v-147l-159 -181q90 -2 143 -61t53 -147q0 -127 -101.5 -205t-244.5 -78q-139 0 -228 66.5t-100 199.5l267 10q0 -72 65 -71q29 0 47.5 21t18.5 54zM1440 174h-342l-31 141l334 504q174 0 305 -10v-440 h104v-195h-104v-174h-266v174zM1270 369h170v252zM1468 1454l-690 -1454h-266l690 1454h266z" />
<glyph unicode="&#xbf;" horiz-adv-x="962" d="M381 481h190l13 -51q18 -92 -12.5 -149.5t-131.5 -159.5q-51 -55 -63 -89t-12 -89q0 -96 84 -97q41 0 66.5 35t23.5 99l358 10q8 -221 -127 -341t-346 -120q-184 0 -316.5 104.5t-132.5 288.5q0 98 43 164t158 154q20 14 45 33.5t39 30.5t32.5 24.5t29 22.5t21.5 19.5 t17.5 17.5t11.5 16.5t7 16.5t2 15v45zM674 844q0 -90 -58.5 -147.5t-146.5 -57.5t-147.5 57.5t-59.5 147.5q0 86 59.5 143t147.5 57q86 0 145.5 -57t59.5 -143z" />
<glyph unicode="&#xc0;" horiz-adv-x="1243" d="M834 0l-48 256h-348l-49 -256h-399l327 1368v86h605l331 -1454h-419zM227 1759h389l154 -235h-244zM588 1014l-84 -430h223l-78 430l-31 188z" />
<glyph unicode="&#xc1;" horiz-adv-x="1243" d="M834 0l-48 256h-348l-49 -256h-399l327 1368v86h605l331 -1454h-419zM666 1763h399l-322 -235h-241zM588 1014l-84 -430h223l-78 430l-31 188z" />
<glyph unicode="&#xc2;" horiz-adv-x="1243" d="M834 0l-48 256h-348l-49 -256h-399l327 1368v86h605l331 -1454h-419zM453 1761h346l186 -235h-297l-70 108l-79 -108h-287zM588 1014l-84 -430h223l-78 430l-31 188z" />
<glyph unicode="&#xc3;" horiz-adv-x="1243" d="M834 0l-48 256h-348l-49 -256h-399l327 1368v86h605l331 -1454h-419zM754 1534q-53 0 -143.5 39t-114.5 39q-8 0 -14.5 -2t-11.5 -7.5t-8 -8.5t-8 -13t-7.5 -14t-7.5 -15.5t-7 -15.5l-82 27q-29 59 -32 118.5t43.5 104.5t132.5 45q68 0 147.5 -39t110.5 -39q12 0 20 7 t12 15.5t10.5 27t10.5 26.5l82 -27q33 -57 35 -117.5t-41 -105.5t-127 -45zM588 1014l-84 -430h223l-78 430l-31 188z" />
<glyph unicode="&#xc4;" horiz-adv-x="1243" d="M834 0l-48 256h-348l-49 -256h-399l327 1368v86h605l331 -1454h-419zM588 1014l-84 -430h223l-78 430l-31 188zM305 1675.5q0 59.5 42 102.5t104 43q57 0 99 -43t42 -102.5t-42 -101.5t-99 -42q-61 0 -103.5 42t-42.5 101.5zM664 1675.5q0 59.5 42 102.5t101 43t101 -43 t42 -102.5t-42 -101.5t-101 -42t-101 42t-42 101.5z" />
<glyph unicode="&#xc5;" horiz-adv-x="1269" d="M870 0l-53 266h-375l-57 -266h-389l321 1386l13 68h57q6 -8 21.5 -22.5t78 -37t146.5 -22.5q76 0 136 20.5t83 41.5l20 20h76l332 -1454h-410zM604 1034l-92 -440h240l-86 440l-31 189zM385 1648.5q0 92.5 68.5 154t175 61.5t175 -61.5t68.5 -154t-68.5 -154.5t-175 -62 t-175 62t-68.5 154.5zM567 1648.5q0 -24.5 17.5 -43t44 -18.5t44 18.5t17.5 43t-17.5 43t-44 18.5t-44 -18.5t-17.5 -43z" />
<glyph unicode="&#xc6;" horiz-adv-x="1609" d="M752 0v246h-287l-76 -246h-420l488 1454h1071v-338h-387v-215h344v-328h-344v-235h387v-338h-776zM752 1174l-187 -601h187v601z" />
<glyph unicode="&#xc7;" horiz-adv-x="1146" d="M1126 983l-378 -10q0 86 -36 130t-97.5 44t-99.5 -40t-40 -116q-8 -193 0 -516q6 -168 137 -168q59 0 102.5 46t43.5 128l379 -10q0 -225 -144.5 -363.5t-390.5 -138.5q-238 0 -385 130t-151 356q-6 385 0 555q8 225 167.5 350t380.5 125q109 0 201 -31t164 -90 t111.5 -157.5t35.5 -223.5zM561 -225v184q121 0 194.5 -66.5t73.5 -166.5q0 -104 -74.5 -171t-183 -67t-184.5 66.5t-68 177.5h195q0 -23 14.5 -41.5t40.5 -18.5q45 0 45 49q0 20 -14 37t-39 17z" />
<glyph unicode="&#xc8;" horiz-adv-x="1052" d="M102 0v1454h869v-338h-459v-215h416v-328h-416v-235h459v-338h-869zM152 1761h389l153 -235h-243z" />
<glyph unicode="&#xc9;" horiz-adv-x="1052" d="M102 0v1454h869v-338h-459v-215h416v-328h-416v-235h459v-338h-869zM518 1761h400l-322 -235h-242z" />
<glyph unicode="&#xca;" horiz-adv-x="1052" d="M102 0v1454h869v-338h-459v-215h416v-328h-416v-235h459v-338h-869zM379 1761h346l186 -235h-297l-69 108l-80 -108h-287z" />
<glyph unicode="&#xcb;" horiz-adv-x="1052" d="M102 0v1454h869v-338h-459v-215h416v-328h-416v-235h459v-338h-869zM236 1679.5q0 59.5 41.5 102.5t103.5 43q57 0 99 -43t42 -102.5t-42 -101.5t-99 -42q-61 0 -103 42t-42 101.5zM594 1679.5q0 59.5 42 102.5t101.5 43t101.5 -43t42 -102.5t-42 -101.5t-101.5 -42 t-101.5 42t-42 101.5z" />
<glyph unicode="&#xcc;" horiz-adv-x="614" d="M512 1454v-1454h-410v1454h410zM-51 1761h389l154 -235h-244z" />
<glyph unicode="&#xcd;" horiz-adv-x="614" d="M512 1454v-1454h-410v1454h410zM309 1761h400l-322 -235h-242z" />
<glyph unicode="&#xce;" horiz-adv-x="614" d="M512 1454v-1454h-410v1454h410zM137 1761h346l187 -235h-297l-70 108l-80 -108h-286z" />
<glyph unicode="&#xcf;" horiz-adv-x="614" d="M512 1454v-1454h-410v1454h410zM-6 1677.5q0 59.5 42 102.5t103 43q57 0 99.5 -43t42.5 -102.5t-42 -101.5t-100 -42q-61 0 -103 42t-42 101.5zM352 1677.5q0 59.5 42 102.5t101.5 43t101.5 -43t42 -102.5t-42 -101.5t-101.5 -42t-101.5 42t-42 101.5z" />
<glyph unicode="&#xd0;" horiz-adv-x="1261" d="M0 584v272l113 2v596q184 10 381 10q645 0 680 -481q25 -330 10 -524q-35 -469 -707 -469l-364 10v580zM766 956q-10 170 -197 170l-57 -4v-262l129 -4v-272l-129 -4v-248q2 -4 51 -4q188 0 203 172q16 196 0 456z" />
<glyph unicode="&#xd1;" horiz-adv-x="1357" d="M866 1454h389v-1454h-360l-344 598l-59 168v-766h-390v1454h355l360 -676l49 -137v813zM805 1536q-53 0 -143.5 39t-114.5 39q-8 0 -14.5 -2t-11.5 -7.5t-8 -8.5t-8 -13l-7 -14t-7.5 -15.5t-7.5 -15.5l-82 27q-29 59 -31.5 118.5t43.5 104.5t132 45q66 0 147.5 -39 t110.5 -39q12 0 20 7t12.5 15.5t10.5 27t10 26.5l82 -27q33 -57 35 -117.5t-41 -105.5t-127 -45z" />
<glyph unicode="&#xd2;" horiz-adv-x="1232" d="M68 985q8 238 162.5 369t388 131t387 -131t161.5 -369q8 -242 0 -518q-6 -238 -161.5 -368t-389 -130t-386 130t-162.5 372q-10 246 0 514zM477 461q8 -154 139 -154q133 0 142 154q12 254 0 543q-6 143 -139.5 143t-141.5 -143q-6 -94 -6 -270.5t6 -272.5zM217 1761h389 l154 -235h-244z" />
<glyph unicode="&#xd3;" horiz-adv-x="1232" d="M68 985q8 238 162.5 369t388 131t387 -131t161.5 -369q8 -242 0 -518q-6 -238 -161.5 -368t-389 -130t-386 130t-162.5 372q-10 246 0 514zM477 461q8 -154 139 -154q133 0 142 154q12 254 0 543q-6 143 -139.5 143t-141.5 -143q-6 -94 -6 -270.5t6 -272.5zM635 1761h399 l-321 -235h-242z" />
<glyph unicode="&#xd4;" horiz-adv-x="1232" d="M68 985q8 238 162.5 369t388 131t387 -131t161.5 -369q8 -242 0 -518q-6 -238 -161.5 -368t-389 -130t-386 130t-162.5 372q-10 246 0 514zM477 461q8 -154 139 -154q133 0 142 154q12 254 0 543q-6 143 -139.5 143t-141.5 -143q-6 -94 -6 -270.5t6 -272.5zM457 1761h346 l186 -235h-297l-69 108l-80 -108h-287z" />
<glyph unicode="&#xd5;" horiz-adv-x="1232" d="M68 985q8 238 162.5 369t388 131t387 -131t161.5 -369q8 -242 0 -518q-6 -238 -161.5 -368t-389 -130t-386 130t-162.5 372q-10 246 0 514zM477 461q8 -154 139 -154q133 0 142 154q12 254 0 543q-6 143 -139.5 143t-141.5 -143q-6 -94 -6 -270.5t6 -272.5zM754 1534 q-53 0 -143.5 39t-114.5 39q-8 0 -14.5 -2t-11.5 -7.5t-8 -8.5t-8 -13t-7.5 -14t-7.5 -15.5t-7 -15.5l-82 27q-29 59 -32 118.5t43.5 104.5t132.5 45q68 0 147.5 -39t110.5 -39q12 0 20 7t12 15.5t10.5 27t10.5 26.5l82 -27q33 -57 35 -117.5t-41 -105.5t-127 -45z" />
<glyph unicode="&#xd6;" horiz-adv-x="1232" d="M68 985q8 238 162.5 369t388 131t387 -131t161.5 -369q8 -242 0 -518q-6 -238 -161.5 -368t-389 -130t-386 130t-162.5 372q-10 246 0 514zM477 461q8 -154 139 -154q133 0 142 154q12 254 0 543q-6 143 -139.5 143t-141.5 -143q-6 -94 -6 -270.5t6 -272.5zM303 1677.5 q0 59.5 42 102.5t104 43q57 0 99 -43t42 -102.5t-42 -101.5t-99 -42q-61 0 -103.5 42t-42.5 101.5zM662 1677.5q0 59.5 41.5 102.5t101 43t101.5 -43t42 -102.5t-42 -101.5t-101.5 -42t-101 42t-41.5 101.5z" />
<glyph unicode="&#xd7;" horiz-adv-x="1110" d="M1059 801l-291 -289l289 -281l-221 -231l-291 297l-293 -297l-201 203l293 289l-287 278l222 231l286 -292l299 295z" />
<glyph unicode="&#xd8;" horiz-adv-x="1263" d="M74 985q8 238 162.5 369t388.5 131q178 0 313 -80l59 80h215l-133 -207q88 -125 95 -293q8 -242 0 -518q-6 -238 -162 -368t-389 -130q-176 0 -312 76l-55 -76h-225l139 203q-90 123 -96 299q-10 246 0 514zM483 1004q-10 -141 -6 -396l266 475q-33 63 -118 64 q-134 0 -142 -143zM764 461q4 72 4 336l-254 -441q35 -49 109 -49q133 0 141 154z" />
<glyph unicode="&#xd9;" horiz-adv-x="1239" d="M762 1454h391q6 -518 0 -1014q-2 -221 -158.5 -346t-380.5 -125q-221 0 -373.5 125t-154.5 350v1010h391q-2 -113 -2 -488.5t2 -492.5q2 -78 42 -122t103.5 -44t99.5 44t40 122q2 111 2 484.5t-2 496.5zM207 1761h389l154 -235h-244z" />
<glyph unicode="&#xda;" horiz-adv-x="1239" d="M762 1454h391q6 -518 0 -1014q-2 -221 -158.5 -346t-380.5 -125q-221 0 -373.5 125t-154.5 350v1010h391q-2 -113 -2 -488.5t2 -492.5q2 -78 42 -122t103.5 -44t99.5 44t40 122q2 111 2 484.5t-2 496.5zM649 1761h400l-322 -235h-242z" />
<glyph unicode="&#xdb;" horiz-adv-x="1239" d="M762 1454h391q6 -518 0 -1014q-2 -221 -158.5 -346t-380.5 -125q-221 0 -373.5 125t-154.5 350v1010h391q-2 -113 -2 -488.5t2 -492.5q2 -78 42 -122t103.5 -44t99.5 44t40 122q2 111 2 484.5t-2 496.5zM457 1761h346l186 -235h-297l-69 108l-80 -108h-287z" />
<glyph unicode="&#xdc;" horiz-adv-x="1239" d="M762 1454h391q6 -518 0 -1014q-2 -221 -158.5 -346t-380.5 -125q-221 0 -373.5 125t-154.5 350v1010h391q-2 -113 -2 -488.5t2 -492.5q2 -78 42 -122t103.5 -44t99.5 44t40 122q2 111 2 484.5t-2 496.5zM309 1679.5q0 59.5 42 102.5t104 43q57 0 99 -43t42 -102.5 t-42 -101.5t-99 -42q-61 0 -103.5 42t-42.5 101.5zM668 1679.5q0 59.5 42 102.5t101 43t101 -43t42 -102.5t-42 -101.5t-101 -42t-101 42t-42 101.5z" />
<glyph unicode="&#xdd;" horiz-adv-x="1189" d="M795 0h-410v543l-426 911h434l164 -420l43 -141l45 141l170 420h416l-436 -913v-541zM631 1761h399l-321 -235h-242z" />
<glyph unicode="&#xde;" horiz-adv-x="1198" d="M512 1454v-205h154q254 0 393 -146.5t139 -346.5q0 -199 -133 -344.5t-371 -145.5h-182v-266h-410v1454h410zM512 911v-317h111q80 0 122.5 44t42.5 120q0 154 -170 153h-106z" />
<glyph unicode="&#xdf;" horiz-adv-x="1159" d="M567 578v366q92 74 115 98.5t23 63.5q0 133 -113 133q-59 0 -95 -36t-36 -95v-1108h-369v1081q0 215 153.5 335t366.5 120q193 0 323 -97.5t130 -275.5q0 -82 -25.5 -119.5t-103.5 -91.5q-119 -80 -229 -135q154 29 272.5 -51t126.5 -254q4 -82 0 -176 q-6 -168 -117.5 -257t-298.5 -89q-68 0 -143 12v258q20 -4 74 -4q113 0 116 82q4 78 0 147q-2 53 -57.5 79t-112.5 14z" />
<glyph unicode="&#xe0;" d="M1038 256v-256q-55 -20 -124.5 -26.5t-153.5 24.5t-123 106h-4q-100 -135 -271 -135q-129 0 -215 88t-86 224q0 102 50.5 162.5t164.5 93.5q61 18 133 35.5t113 25.5l41 8v70q0 72 -55 72q-31 0 -49.5 -20.5t-12.5 -61.5l-337 -11q-14 178 100.5 283.5t312.5 105.5 q180 0 295 -95t115 -271v-324q0 -61 19 -79.5t87 -18.5zM150 1454h378l164 -297h-243zM483 422q-53 -18 -53 -88q0 -78 68 -78q29 0 47 18.5t18 51.5v118q-45 -10 -80 -22z" />
<glyph unicode="&#xe1;" d="M1038 256v-256q-55 -20 -124.5 -26.5t-153.5 24.5t-123 106h-4q-100 -135 -271 -135q-129 0 -215 88t-86 224q0 102 50.5 162.5t164.5 93.5q61 18 133 35.5t113 25.5l41 8v70q0 72 -55 72q-31 0 -49.5 -20.5t-12.5 -61.5l-337 -11q-14 178 100.5 283.5t312.5 105.5 q180 0 295 -95t115 -271v-324q0 -61 19 -79.5t87 -18.5zM506 1454h409l-321 -297h-242zM483 422q-53 -18 -53 -88q0 -78 68 -78q29 0 47 18.5t18 51.5v118q-45 -10 -80 -22z" />
<glyph unicode="&#xe2;" d="M1038 256v-256q-55 -20 -124.5 -26.5t-153.5 24.5t-123 106h-4q-100 -135 -271 -135q-129 0 -215 88t-86 224q0 102 50.5 162.5t164.5 93.5q61 18 133 35.5t113 25.5l41 8v70q0 72 -55 72q-31 0 -49.5 -20.5t-12.5 -61.5l-337 -11q-14 178 100.5 283.5t312.5 105.5 q180 0 295 -95t115 -271v-324q0 -61 19 -79.5t87 -18.5zM346 1413h326l227 -297h-307l-90 129l-101 -129h-297zM483 422q-53 -18 -53 -88q0 -78 68 -78q29 0 47 18.5t18 51.5v118q-45 -10 -80 -22z" />
<glyph unicode="&#xe3;" d="M1038 256v-256q-55 -20 -124.5 -26.5t-153.5 24.5t-123 106h-4q-100 -135 -271 -135q-129 0 -215 88t-86 224q0 102 50.5 162.5t164.5 93.5q61 18 133 35.5t113 25.5l41 8v70q0 72 -55 72q-31 0 -49.5 -20.5t-12.5 -61.5l-337 -11q-14 178 100.5 283.5t312.5 105.5 q180 0 295 -95t115 -271v-324q0 -61 19 -79.5t87 -18.5zM664 1149q-68 0 -177.5 44t-132.5 44q-10 0 -18 -5t-14.5 -15.5t-10.5 -18.5t-11 -24.5t-9 -22.5l-82 27q-29 66 -30 132t46 116.5t127 50.5t181.5 -44t128.5 -44q16 0 24 11t16.5 38.5t12.5 36.5l82 -27 q29 -66 31.5 -132.5t-41 -116.5t-123.5 -50zM483 422q-53 -18 -53 -88q0 -78 68 -78q29 0 47 18.5t18 51.5v118q-45 -10 -80 -22z" />
<glyph unicode="&#xe4;" d="M1038 256v-256q-55 -20 -124.5 -26.5t-153.5 24.5t-123 106h-4q-100 -135 -271 -135q-129 0 -215 88t-86 224q0 102 50.5 162.5t164.5 93.5q61 18 133 35.5t113 25.5l41 8v70q0 72 -55 72q-31 0 -49.5 -20.5t-12.5 -61.5l-337 -11q-14 178 100.5 283.5t312.5 105.5 q180 0 295 -95t115 -271v-324q0 -61 19 -79.5t87 -18.5zM555 1300.5q0 63.5 46 109.5t109.5 46t108.5 -46t45 -109.5t-45 -108.5t-108.5 -45t-109.5 45t-46 108.5zM152 1300.5q0 63.5 45 109.5t110 46q63 0 108.5 -46t45.5 -109.5t-45 -108.5t-108.5 -45t-109.5 45 t-46 108.5zM483 422q-53 -18 -53 -88q0 -78 68 -78q29 0 47 18.5t18 51.5v118q-45 -10 -80 -22z" />
<glyph unicode="&#xe5;" d="M1038 256v-256q-55 -20 -124.5 -26.5t-153.5 24.5t-123 106h-4q-100 -135 -271 -135q-129 0 -215 88t-86 224q0 102 50.5 162.5t164.5 93.5q61 18 133 35.5t113 25.5l41 8v70q0 72 -55 72q-31 0 -49.5 -20.5t-12.5 -61.5l-337 -11q-14 178 100.5 283.5t312.5 105.5 q180 0 295 -95t115 -271v-324q0 -61 19 -79.5t87 -18.5zM264 1321q0 92 68.5 153.5t175 61.5t175.5 -61.5t69 -153.5t-69 -154.5t-175.5 -62.5t-175 62.5t-68.5 154.5zM483 422q-53 -18 -53 -88q0 -78 68 -78q29 0 47 18.5t18 51.5v118q-45 -10 -80 -22zM446 1321 q0 -25 17.5 -43t44.5 -18t44 18t17 43t-17 43t-44 18t-44.5 -18t-17.5 -43z" />
<glyph unicode="&#xe6;" horiz-adv-x="1476" d="M926 352q0 -53 35.5 -74.5t73.5 -2t40 72.5l338 -10q-6 -168 -121.5 -268.5t-292.5 -100.5q-229 0 -337 146q-98 -145 -300 -146q-129 0 -215 88t-86 224q0 104 50.5 164.5t164.5 91.5q61 16 133 30.5t113 20.5l41 6v82q0 72 -55 72q-31 0 -49.5 -20.5t-12.5 -61.5 l-337 -11q-14 178 100.5 283.5t312.5 105.5q145 0 246 -63q102 63 242 63q176 0 295.5 -94t119.5 -264q0 -102 -51 -142t-176 -71q-55 -14 -123.5 -25.5t-107.5 -15.5l-41 -4v-76zM483 422q-53 -18 -53 -88q0 -78 68 -78q29 0 47 18.5t18 51.5v116q-45 -8 -80 -20zM926 676 v-88q35 2 69 10q37 8 49.5 22.5t12.5 51.5q0 76 -64 76q-67 0 -67 -72z" />
<glyph unicode="&#xe7;" horiz-adv-x="958" d="M911 655l-338 -10q6 45 -12 74t-53 29q-72 0 -74 -82q-6 -152 0 -314q2 -39 24.5 -62.5t51.5 -23.5q37 0 55.5 25.5t14.5 66.5l338 -10q-4 -164 -114 -271.5t-294 -107.5q-195 0 -316.5 101.5t-128 281.5t0.5 328q8 168 134 266t308 98q201 0 309 -104.5t94 -284.5z M473 -225v184q121 0 194.5 -66.5t73.5 -166.5q0 -104 -74.5 -171t-183 -67t-184.5 66.5t-68 177.5h195q0 -23 14.5 -41.5t40.5 -18.5q45 0 45 49q0 20 -14 37t-39 17z" />
<glyph unicode="&#xe8;" horiz-adv-x="983" d="M432 352q0 -39 19.5 -62.5t54.5 -23.5q33 0 53.5 21.5t22.5 60.5l338 -10q-6 -168 -122 -268.5t-292 -100.5q-182 0 -307 98.5t-133 284.5q-6 143 0 297q6 176 134 285.5t316 109.5q178 0 297 -94t119 -268q0 -102 -51.5 -147.5t-175.5 -71.5l-273 -47v-64zM86 1454h379 l164 -297h-244zM432 676v-98q35 2 70 10q37 8 49 23.5t12 60.5q0 76 -63 76q-68 0 -68 -72z" />
<glyph unicode="&#xe9;" horiz-adv-x="983" d="M432 352q0 -39 19.5 -62.5t54.5 -23.5q33 0 53.5 21.5t22.5 60.5l338 -10q-6 -168 -122 -268.5t-292 -100.5q-182 0 -307 98.5t-133 284.5q-6 143 0 297q6 176 134 285.5t316 109.5q178 0 297 -94t119 -268q0 -102 -51.5 -147.5t-175.5 -71.5l-273 -47v-64zM479 1454h410 l-322 -297h-241zM432 676v-98q35 2 70 10q37 8 49 23.5t12 60.5q0 76 -63 76q-68 0 -68 -72z" />
<glyph unicode="&#xea;" horiz-adv-x="983" d="M432 352q0 -39 19.5 -62.5t54.5 -23.5q33 0 53.5 21.5t22.5 60.5l338 -10q-6 -168 -122 -268.5t-292 -100.5q-182 0 -307 98.5t-133 284.5q-6 143 0 297q6 176 134 285.5t316 109.5q178 0 297 -94t119 -268q0 -102 -51.5 -147.5t-175.5 -71.5l-273 -47v-64zM338 1413h326 l227 -297h-307l-90 129l-101 -129h-297zM432 676v-98q35 2 70 10q37 8 49 23.5t12 60.5q0 76 -63 76q-68 0 -68 -72z" />
<glyph unicode="&#xeb;" horiz-adv-x="983" d="M432 352q0 -39 19.5 -62.5t54.5 -23.5q33 0 53.5 21.5t22.5 60.5l338 -10q-6 -168 -122 -268.5t-292 -100.5q-182 0 -307 98.5t-133 284.5q-6 143 0 297q6 176 134 285.5t316 109.5q178 0 297 -94t119 -268q0 -102 -51.5 -147.5t-175.5 -71.5l-273 -47v-64zM545 1280 q0 63 45 109.5t110 46.5q63 0 108.5 -46.5t45.5 -109.5t-45 -108.5t-108.5 -45.5t-109.5 45.5t-46 108.5zM141 1280q0 63 46 109.5t109.5 46.5t109 -46.5t45.5 -109.5t-45.5 -108.5t-109 -45.5t-109.5 45.5t-46 108.5zM432 676v-98q35 2 70 10q37 8 49 23.5t12 60.5 q0 76 -63 76q-68 0 -68 -72z" />
<glyph unicode="&#xec;" horiz-adv-x="600" d="M451 1024v-678q0 -55 29.5 -72.5t88.5 -17.5v-256q-82 -18 -155.5 -19t-154.5 18t-129 91t-48 191v680zM-100 1454h379l163 -297h-243z" />
<glyph unicode="&#xed;" horiz-adv-x="600" d="M451 1024v-678q0 -55 29.5 -72.5t88.5 -17.5v-256q-82 -18 -155.5 -19t-154.5 18t-129 91t-48 191v680zM266 1454h410l-322 -297h-241z" />
<glyph unicode="&#xee;" horiz-adv-x="600" d="M451 1024v-678q0 -55 29.5 -72.5t88.5 -17.5v-256q-82 -18 -155.5 -19t-154.5 18t-129 91t-48 191v680zM121 1413h325l228 -297h-307l-91 129l-100 -129h-297z" />
<glyph unicode="&#xef;" horiz-adv-x="600" d="M451 1024v-678q0 -55 29.5 -72.5t88.5 -17.5v-256q-82 -18 -155.5 -19t-154.5 18t-129 91t-48 191v680zM-74 1280q0 63 45 109.5t111 46.5q63 0 108.5 -46.5t45.5 -109.5t-45.5 -108.5t-109 -45.5t-109.5 45.5t-46 108.5zM330 1280q0 63 46 109.5t109.5 46.5t108.5 -46.5 t45 -109.5t-45 -108.5t-108.5 -45.5t-109.5 45.5t-46 108.5z" />
<glyph unicode="&#xf0;" horiz-adv-x="1038" d="M682 1516h272l-268 -175q266 -244 266 -675q6 -160 0 -349q-6 -162 -133 -255t-313 -93q-184 0 -308 90.5t-132 249.5q-6 115 0 301q6 178 103 270.5t234 92.5q102 0 164 -41q-33 150 -112 262l-117 -76h-275l291 187q-104 94 -243 151l229 60q106 -14 217 -80zM586 618 q-2 37 -22.5 57.5t-51.5 20.5q-74 0 -78 -78q-6 -145 0 -292q2 -37 24.5 -58.5t51.5 -21.5q27 0 49.5 21.5t24.5 58.5q8 159 2 292z" />
<glyph unicode="&#xf1;" horiz-adv-x="1095" d="M584 748q-45 0 -67.5 -30t-24.5 -59v-659h-369v651q0 59 -22.5 83t-80.5 24v246q68 31 150 30q178 0 262 -133h4q90 143 275 143q139 0 226 -90t87 -276v-678h-369v668q1 80 -71 80zM713 1149q-68 0 -177.5 44t-132.5 44q-10 0 -18 -5t-14 -15.5t-10.5 -18.5t-11.5 -24.5 t-9 -22.5l-82 27q-29 66 -30 132t46.5 116.5t127 50.5t181 -44t128.5 -44q16 0 24 11t16.5 38.5t12.5 36.5l82 -27q29 -66 32 -132.5t-41 -116.5t-124 -50z" />
<glyph unicode="&#xf2;" horiz-adv-x="1017" d="M952 336q-6 -166 -130 -266.5t-312 -100.5t-312 100.5t-132 268.5q-6 162 0 336q6 166 132 268t312 102t310 -102t132 -268q6 -156 0 -338zM584 664q-2 35 -22.5 59.5t-51.5 24.5t-52.5 -25t-23.5 -59q-6 -154 0 -310q2 -39 23.5 -63.5t52.5 -24.5t51.5 24.5t22.5 63.5 q6 146 0 310zM84 1454h379l164 -297h-244z" />
<glyph unicode="&#xf3;" horiz-adv-x="1017" d="M952 336q-6 -166 -130 -266.5t-312 -100.5t-312 100.5t-132 268.5q-6 162 0 336q6 166 132 268t312 102t310 -102t132 -268q6 -156 0 -338zM584 664q-2 35 -22.5 59.5t-51.5 24.5t-52.5 -25t-23.5 -59q-6 -154 0 -310q2 -39 23.5 -63.5t52.5 -24.5t51.5 24.5t22.5 63.5 q6 146 0 310zM530 1456h410l-322 -297h-241z" />
<glyph unicode="&#xf4;" horiz-adv-x="1017" d="M952 336q-6 -166 -130 -266.5t-312 -100.5t-312 100.5t-132 268.5q-6 162 0 336q6 166 132 268t312 102t310 -102t132 -268q6 -156 0 -338zM584 664q-2 35 -22.5 59.5t-51.5 24.5t-52.5 -25t-23.5 -59q-6 -154 0 -310q2 -39 23.5 -63.5t52.5 -24.5t51.5 24.5t22.5 63.5 q6 146 0 310zM356 1413h326l227 -297h-307l-90 129l-100 -129h-297z" />
<glyph unicode="&#xf5;" horiz-adv-x="1017" d="M952 336q-6 -166 -130 -266.5t-312 -100.5t-312 100.5t-132 268.5q-6 162 0 336q6 166 132 268t312 102t310 -102t132 -268q6 -156 0 -338zM584 664q-2 35 -22.5 59.5t-51.5 24.5t-52.5 -25t-23.5 -59q-6 -154 0 -310q2 -39 23.5 -63.5t52.5 -24.5t51.5 24.5t22.5 63.5 q6 146 0 310zM670 1149q-68 0 -177.5 44t-132.5 44q-10 0 -18 -5t-14 -15.5t-10.5 -18.5t-11.5 -24.5t-9 -22.5l-82 27q-29 66 -30 132t46.5 116.5t127 50.5t181 -44t128.5 -44q16 0 24 11t16.5 38.5t12.5 36.5l82 -27q29 -66 32 -132.5t-41 -116.5t-124 -50z" />
<glyph unicode="&#xf6;" horiz-adv-x="1017" d="M952 336q-6 -166 -130 -266.5t-312 -100.5t-312 100.5t-132 268.5q-6 162 0 336q6 166 132 268t312 102t310 -102t132 -268q6 -156 0 -338zM584 664q-2 35 -22.5 59.5t-51.5 24.5t-52.5 -25t-23.5 -59q-6 -154 0 -310q2 -39 23.5 -63.5t52.5 -24.5t51.5 24.5t22.5 63.5 q6 146 0 310zM154 1280q0 63 46 109.5t109.5 46.5t108.5 -46.5t45 -109.5t-45 -108.5t-108.5 -45.5t-109.5 45.5t-46 108.5zM557 1280q0 63 45 109.5t111 46.5q63 0 108 -46.5t45 -109.5t-45 -108.5t-108.5 -45.5t-109.5 45.5t-46 108.5z" />
<glyph unicode="&#xf7;" horiz-adv-x="1048" d="M330 915q0 88 55 144.5t137 56.5t138.5 -56t56.5 -145q0 -84 -56.5 -139t-138.5 -55q-80 0 -136 55t-56 139zM328 113q0 88 55 144t137 56t138.5 -56t56.5 -144q0 -84 -56.5 -139.5t-138.5 -55.5q-80 0 -136 55.5t-56 139.5zM51 369v297h946v-297h-946z" />
<glyph unicode="&#xf8;" horiz-adv-x="1038" d="M963 336q-6 -166 -130 -266.5t-313 -100.5q-115 0 -221 43l-29 -43h-194l90 140q-84 94 -90 229q-6 162 0 336q6 166 132 268t312 102q133 0 236 -53l37 53h194l-104 -155q74 -90 80 -215q6 -156 0 -338zM444 664q-4 -115 -4 -191l138 240q-20 35 -58 35 q-31 0 -52.5 -24.5t-23.5 -59.5zM594 354q2 45 2 160l-127 -227q20 -20 51 -20.5t51.5 24t22.5 63.5z" />
<glyph unicode="&#xf9;" horiz-adv-x="1099" d="M1069 256v-256q-96 -39 -224 -15.5t-194 113.5q-12 -20 -30.5 -42.5t-81 -54.5t-140.5 -32q-150 0 -238.5 97.5t-88.5 291.5v605l368 61v-653q0 -104 76 -105q37 0 57.5 23.5t20.5 62.5v613l369 59v-670q0 -61 19 -79.5t87 -18.5zM174 1454h379l164 -297h-244z" />
<glyph unicode="&#xfa;" horiz-adv-x="1099" d="M1069 256v-256q-96 -39 -224 -15.5t-194 113.5q-12 -20 -30.5 -42.5t-81 -54.5t-140.5 -32q-150 0 -238.5 97.5t-88.5 291.5v605l368 61v-653q0 -104 76 -105q72 0 78 74v625l369 59v-670q0 -61 19 -79.5t87 -18.5zM520 1454h410l-322 -297h-241z" />
<glyph unicode="&#xfb;" horiz-adv-x="1099" d="M1069 256v-256q-96 -39 -224 -15.5t-194 113.5q-12 -20 -30.5 -42.5t-81 -54.5t-140.5 -32q-150 0 -238.5 97.5t-88.5 291.5v605l368 61v-653q0 -104 76 -105q33 0 53.5 21.5t24.5 56.5v621l369 59v-670q0 -61 19 -79.5t87 -18.5zM360 1413h326l227 -297h-307l-90 129 l-100 -129h-297z" />
<glyph unicode="&#xfc;" horiz-adv-x="1099" d="M1069 256v-256q-96 -39 -224 -15.5t-194 113.5q-12 -20 -30.5 -42.5t-81 -54.5t-140.5 -32q-150 0 -238.5 97.5t-88.5 291.5v605l368 61v-653q0 -104 76 -105q33 0 53.5 21.5t24.5 56.5v621l369 59v-670q0 -61 19 -79.5t87 -18.5zM567 1280q0 63 46 109.5t109.5 46.5 t109 -46.5t45.5 -109.5t-45.5 -108.5t-109 -45.5t-109.5 45.5t-46 108.5zM164 1280q0 63 45 109.5t110 46.5q63 0 108.5 -46.5t45.5 -109.5t-45 -108.5t-108.5 -45.5t-109.5 45.5t-46 108.5z" />
<glyph unicode="&#xfd;" horiz-adv-x="985" d="M143 -512l170 522l-323 1004h389l84 -461l29 -180h4l34 180l97 461h368l-483 -1526h-369zM479 1454h410l-322 -297h-241z" />
<glyph unicode="&#xfe;" horiz-adv-x="1052" d="M987 344q-6 -186 -105.5 -280.5t-260.5 -94.5q-43 0 -83 8.5t-59 16.5l-18 8v-514h-369v1987l369 61v-584q8 10 24.5 25.5t76 41t128.5 25.5q129 0 211 -81.5t86 -225.5q6 -188 0 -393zM618 348q2 150 0 322q0 78 -69 78q-39 0 -62.5 -25t-25.5 -64v-309 q0 -41 21.5 -62.5t56.5 -21.5q37 0 58 23.5t21 58.5z" />
<glyph unicode="&#xff;" horiz-adv-x="985" d="M143 -512l170 522l-323 1004h389l84 -461l29 -180h4l34 180l97 461h368l-483 -1526h-369zM143 1280q0 63 45 109.5t111 46.5q63 0 108.5 -46.5t45.5 -109.5t-45.5 -108.5t-108.5 -45.5t-109.5 45.5t-46.5 108.5zM547 1280q0 63 46 109.5t109.5 46.5t108.5 -46.5 t45 -109.5t-45 -108.5t-108.5 -45.5t-109.5 45.5t-46 108.5z" />
<glyph unicode="&#x131;" horiz-adv-x="600" d="M451 1024v-678q0 -55 29.5 -72.5t88.5 -17.5v-256q-82 -18 -155.5 -19t-154.5 18t-129 91t-48 191v680z" />
<glyph unicode="&#x152;" horiz-adv-x="1667" d="M68 985q8 238 162.5 369t387.5 131q111 0 197 -31h770v-338h-469v-215h426v-328h-426v-235h469v-338h-772q-86 -31 -197 -31q-233 0 -385.5 130t-162.5 372q-10 246 0 514zM477 461q8 -154 139 -154q82 0 111 31v776q-33 33 -109 33q-133 0 -141 -143q-6 -94 -6 -270.5 t6 -272.5z" />
<glyph unicode="&#x153;" horiz-adv-x="1507" d="M956 352q0 -39 19.5 -62.5t54.5 -23.5q33 0 53.5 21.5t22.5 60.5l338 -10q-6 -168 -122 -268.5t-292 -100.5q-152 0 -260 64q-115 -63 -260 -64q-188 0 -312 100.5t-132 268.5q-6 162 0 336q6 166 132 268t312 102q154 0 266 -71q117 72 264 71q178 0 297 -94t119 -268 q0 -102 -51 -147.5t-176 -71.5l-273 -47v-64zM584 664q-2 35 -22.5 59.5t-51.5 24.5t-52.5 -25t-23.5 -59q-6 -154 0 -310q2 -39 23.5 -63.5t52.5 -24.5t51.5 24.5t22.5 63.5q6 146 0 310zM956 676v-98q35 2 70 10q37 8 49 23.5t12 60.5q0 76 -63 76q-68 0 -68 -72z" />
<glyph unicode="&#x160;" horiz-adv-x="1185" d="M608 307q127 0 127 90q0 49 -58.5 90t-219.5 95q-383 125 -383 446q0 219 153.5 338t376.5 119q229 0 374.5 -126t135.5 -376l-379 -10q0 174 -135 174q-49 0 -83 -23.5t-34 -66.5q0 -57 52.5 -95t226.5 -100q193 -68 288 -165t95 -289q0 -199 -150.5 -319t-384.5 -120 q-154 0 -276.5 50.5t-200.5 167t-70 284.5l379 10q0 -90 46 -132t120 -42zM764 1526h-346l-228 246h318l90 -109l100 109h308z" />
<glyph unicode="&#x161;" horiz-adv-x="929" d="M872 666l-337 -11q0 92 -62 93q-59 0 -59 -56q0 -35 29.5 -54.5t113.5 -43.5q72 -20 104.5 -30.5t86 -36t78 -52t44 -74t19.5 -108.5q0 -133 -121 -228.5t-305 -95.5q-178 0 -296 93.5t-126 275.5l338 10q2 -37 21.5 -59.5t52.5 -22.5q31 0 49 16.5t18 41.5q0 12 -3 20 t-12 15.5t-17.5 12.5t-27 10t-31.5 9t-43 11.5t-50 13.5q-66 18 -110 36.5t-90 50.5t-68.5 83t-22.5 121q0 154 125 245.5t311 91.5q184 0 295.5 -105t95.5 -273zM578 1137h-285l-258 297h317l90 -129l101 129h307z" />
<glyph unicode="&#x178;" horiz-adv-x="1189" d="M795 0h-410v543l-426 911h434l164 -420l43 -141l45 141l170 420h416l-436 -913v-541zM246 1689.5q0 63.5 45 109.5t110 46q63 0 108.5 -46t45.5 -109.5t-45 -108.5t-108.5 -45t-109.5 45t-46 108.5zM649 1689.5q0 63.5 46 109.5t109.5 46t108.5 -46t45 -109.5t-45 -108.5 t-108.5 -45t-109.5 45t-46 108.5z" />
<glyph unicode="&#x17d;" horiz-adv-x="1110" d="M51 1116v338h996l14 -219l-529 -897h537v-338h-1016l-12 229l530 887h-520zM717 1524h-346l-228 245h318l90 -108l100 108h307z" />
<glyph unicode="&#x17e;" horiz-adv-x="923" d="M893 276v-276h-819l-11 236l371 501h-371v277h789l12 -258l-354 -480h383zM594 1137h-285l-258 297h318l90 -129l100 129h307z" />
<glyph unicode="&#x192;" horiz-adv-x="1062" d="M190 -80l134 838h-129l49 256h118l17 96q33 209 147.5 317.5t292.5 108.5q66 0 127.5 -14.5t89.5 -28.5l27 -14l-88 -260q-45 10 -98 10q-49 0 -84 -33t-43 -92l-15 -90h187l-50 -256h-178l-133 -844q-33 -209 -147.5 -317.5t-292.5 -108.5q-66 0 -127.5 14.5t-87.5 28.5 l-29 14l88 260q45 -10 98 -10q109 0 127 125z" />
<glyph unicode="&#x2b0;" horiz-adv-x="735" d="M428 799v415q0 66 -51 66q-31 0 -45.5 -21.5t-14.5 -37.5v-422h-256v905l256 39v-354h5q49 86 170 86q193 0 192 -224v-452h-256z" />
<glyph unicode="&#x2b2;" horiz-adv-x="423" d="M348 1464v-778q0 -70 -24.5 -118t-62.5 -71.5t-86 -33.5t-91 -8t-84 10v168q92 0 92 72v718zM68 1632q0 51 39.5 85t107.5 34t107.5 -34t39.5 -85q0 -49 -39.5 -81.5t-107.5 -32.5t-107.5 32.5t-39.5 81.5z" />
<glyph unicode="&#x2b7;" horiz-adv-x="1028" d="M1018 1454l-146 -655h-301l-36 254l-23 145h-4l-16 -145l-46 -254h-294l-142 655h266l27 -295l10 -112h4l17 110l61 297h248l55 -297l15 -108h6l14 108l39 297h246z" />
<glyph unicode="&#x2b8;" horiz-adv-x="673" d="M115 465l94 319l-199 670h262l50 -287l20 -118h2l21 118l49 287h250l-299 -989h-250z" />
<glyph unicode="&#x2c6;" horiz-adv-x="815" d="M252 1454h326l227 -297h-307l-90 129l-101 -129h-297z" />
<glyph unicode="&#x2c7;" horiz-adv-x="815" d="M532 1157h-284l-258 297h317l90 -129l101 129h307z" />
<glyph unicode="&#x2d8;" horiz-adv-x="708" d="M354.5 1382q139.5 0 139.5 109l77 -41q70 -125 0.5 -214t-217 -89t-217 89t-0.5 214l78 41q0 -109 139.5 -109z" />
<glyph unicode="&#x2d9;" horiz-adv-x="591" d="M102 1300q0 82 55.5 134.5t137.5 52.5t138 -52.5t56 -134.5q0 -80 -56 -131t-138 -51t-137.5 51t-55.5 131z" />
<glyph unicode="&#x2da;" horiz-adv-x="651" d="M82 1300.5q0 92.5 68.5 154t175 61.5t175 -61.5t68.5 -154t-68.5 -155t-175 -62.5t-175 62.5t-68.5 155zM264 1300.5q0 -24.5 17.5 -43t44 -18.5t44 18.5t17.5 43t-17.5 43t-44 18.5t-44 -18.5t-17.5 -43z" />
<glyph unicode="&#x2db;" horiz-adv-x="794" d="M692 205v-205l-180 -121q-72 -49 -72 -96q0 -55 30 -72.5t89 -17.5v-225q-63 -16 -130 -19.5t-139.5 13t-119.5 82t-47 171.5q0 98 44 162t136 115z" />
<glyph unicode="&#x2dc;" horiz-adv-x="856" d="M588 1190q-68 0 -177.5 44t-131.5 44q-10 0 -18.5 -5t-14.5 -15.5t-10.5 -18.5t-11.5 -24.5t-9 -22.5l-82 27q-29 66 -30 132t46.5 116.5t127 50.5t181 -44t128.5 -44q16 0 24 11t16.5 38.5t12.5 36.5l82 -27q29 -66 32 -132.5t-41 -116.5t-124 -50z" />
<glyph unicode="&#x2e3;" horiz-adv-x="741" d="M731 1454l-207 -326l207 -329h-282l-89 151l-92 -151h-258l217 329l-215 326h285l82 -168l92 168h260z" />
<glyph unicode="&#x394;" horiz-adv-x="1427" d="M102 0l-61 217l516 1237h328l501 -1237l-57 -217h-1227zM709 979l-244 -651h479z" />
<glyph unicode="&#x3a9;" horiz-adv-x="1310" d="M82 0l-21 307l203 -8q-129 98 -137 299q-10 213 0 412q14 229 160.5 352t372 123t370 -123t154.5 -352q8 -188 0 -416q-8 -197 -137 -295l202 8l-20 -307h-531v287q55 4 78 35.5t27 101.5q16 223 0 563q-2 76 -41 118t-102.5 42t-101.5 -41t-42 -119q-16 -317 0 -563 q4 -70 24.5 -101.5t71.5 -35.5v-287h-530z" />
<glyph unicode="&#x3bc;" horiz-adv-x="1099" d="M1069 256v-256q-96 -39 -224 -15.5t-194 113.5q-12 -20 -30.5 -42.5t-81 -54.5t-140.5 -32h-14q55 -100 55 -237v-244h-368v1475l368 61v-653q0 -104 76 -105q33 0 53.5 21.5t24.5 56.5v621l369 59v-670q0 -61 19 -79.5t87 -18.5z" />
<glyph unicode="&#x3c0;" horiz-adv-x="1226" d="M1073 788v-788h-368v788h-183v-788h-368v788h-154v267h1227v-267h-154z" />
<glyph unicode="&#x2013;" horiz-adv-x="966" d="M31 369v297h905v-297h-905z" />
<glyph unicode="&#x2014;" horiz-adv-x="1200" d="M31 369v297h1138v-297h-1138z" />
<glyph unicode="&#x2018;" horiz-adv-x="512" d="M453 1485l69 -105q-98 -29 -154.5 -81t-64.5 -91l-8 -37q78 -4 130 -60t52 -144q0 -90 -61.5 -143.5t-141.5 -53.5q-104 0 -163.5 71.5t-59.5 184.5q0 115 42 205t107.5 141t129.5 79t123 34z" />
<glyph unicode="&#x2019;" horiz-adv-x="512" d="M80 780l-70 105q98 29 154.5 81t64.5 91l9 37q-78 4 -130.5 60t-52.5 144q0 90 61.5 143.5t141.5 53.5q104 0 163.5 -71.5t59.5 -184.5q0 -115 -42 -205t-107.5 -141t-129 -79t-122.5 -34z" />
<glyph unicode="&#x201a;" horiz-adv-x="487" d="M59 -346l-69 104q98 29 154.5 81t64.5 91l8 37q-78 4 -130 60.5t-52 144.5q0 90 61.5 143.5t141.5 53.5q104 0 163.5 -72t59.5 -184q0 -115 -42 -205t-107.5 -141.5t-129.5 -79t-123 -33.5z" />
<glyph unicode="&#x201c;" horiz-adv-x="968" d="M909 1485l70 -105q-61 -18 -107.5 -45.5t-69 -55.5t-34.5 -52.5t-14 -38.5l-2 -17q78 -4 130 -60t52 -144q0 -90 -61.5 -143.5t-141.5 -53.5q-104 0 -163.5 71.5t-59.5 184.5q0 115 42 205t107.5 141t129 79t122.5 34zM453 1485l69 -105q-98 -29 -154.5 -81t-64.5 -91 l-8 -37q78 -4 130 -60t52 -144q0 -90 -61.5 -143.5t-141.5 -53.5q-104 0 -163.5 71.5t-59.5 184.5q0 115 42 205t107.5 141t129.5 79t123 34z" />
<glyph unicode="&#x201d;" horiz-adv-x="970" d="M539 782l-70 105q98 29 154.5 81t64.5 89l8 39q-78 4 -130 60t-52 144q0 90 61.5 143.5t141.5 53.5q104 0 163.5 -71.5t59.5 -184.5q0 -115 -42 -205t-107.5 -141t-129 -79t-122.5 -34zM80 782l-70 105q98 29 154.5 81t64.5 89l9 39q-78 4 -130.5 60t-52.5 144 q0 90 61.5 143.5t141.5 53.5q104 0 163.5 -71.5t59.5 -184.5q0 -115 -42 -205t-107.5 -141t-129 -79t-122.5 -34z" />
<glyph unicode="&#x201e;" horiz-adv-x="950" d="M522 -346l-69 104q98 29 154.5 81t64.5 91l8 37q-78 4 -130 60.5t-52 144.5q0 90 61.5 143.5t140.5 53.5q104 0 164 -72t60 -184q0 -115 -42 -205t-107.5 -141.5t-129.5 -79t-123 -33.5zM59 -346l-69 104q98 29 154.5 81t64.5 91l8 37q-78 4 -130 60.5t-52 144.5 q0 90 61.5 143.5t141.5 53.5q104 0 163.5 -72t59.5 -184q0 -115 -42 -205t-107.5 -141.5t-129.5 -79t-123 -33.5z" />
<glyph unicode="&#x2020;" horiz-adv-x="1107" d="M1087 973l-2 -266l-360 12l-23 -1231h-286l-19 1233l-374 -14l-3 266l375 -12l-12 464l356 41l-16 -505z" />
<glyph unicode="&#x2021;" horiz-adv-x="1067" d="M1047 229l-5 -280l-344 14l19 -432l-363 -41l15 473l-349 -14l5 280l346 -14l2 524q-229 -14 -353 -14l5 281l344 -15l-15 432l363 41l-19 -473l349 15l-5 -281l-346 12l4 -520z" />
<glyph unicode="&#x2022;" horiz-adv-x="833" d="M102 614q0 131 92.5 224.5t219.5 93.5q129 0 223 -93.5t94 -224.5q0 -125 -94 -216t-223 -91q-127 0 -219.5 91t-92.5 216z" />
<glyph unicode="&#x2026;" horiz-adv-x="1597" d="M51 164q0 94 57.5 152.5t145.5 58.5t146.5 -58.5t58.5 -152.5q0 -90 -58.5 -147.5t-146.5 -57.5q-86 0 -144.5 57.5t-58.5 147.5zM598 164q0 94 57.5 152.5t145.5 58.5t146.5 -58.5t58.5 -152.5q0 -90 -58.5 -147.5t-146.5 -57.5q-86 0 -144.5 57.5t-58.5 147.5z M1139 164q0 94 57 152.5t145.5 58.5t146.5 -58.5t58 -152.5q0 -90 -58 -147.5t-147 -57.5q-86 0 -144 57.5t-58 147.5z" />
<glyph unicode="&#x2030;" horiz-adv-x="2195" d="M41 1094q0 137 86 223t221 86q137 0 223 -86t86 -223q0 -133 -90 -219.5t-219 -86.5q-135 0 -221 85.5t-86 220.5zM289 1095.5q0 -30.5 17.5 -51t44 -20.5t44 20.5t17.5 51t-17.5 51t-44 20.5t-44 -20.5t-17.5 -51zM860 274q0 137 86 223.5t221 86.5q137 0 223.5 -86 t86.5 -224q0 -133 -90.5 -219t-219.5 -86q-135 0 -221 85t-86 220zM1108 276.5q0 -30.5 17.5 -51t44 -20.5t44 20.5t17.5 51t-17.5 51t-44 20.5t-44 -20.5t-17.5 -51zM1538 274q0 137 86 223.5t221 86.5q137 0 223 -86t86 -224q0 -133 -90 -219t-219 -86q-135 0 -221 85 t-86 220zM1786 276.5q0 -30.5 17.5 -51t44 -20.5t44 20.5t17.5 51t-17.5 51t-44 20.5t-44 -20.5t-17.5 -51zM1253 1454l-690 -1454h-266l690 1454h266z" />
<glyph unicode="&#x2039;" horiz-adv-x="669" d="M395 586v-39l258 -279l-174 -180l-448 449v43l461 426l167 -185z" />
<glyph unicode="&#x203a;" horiz-adv-x="669" d="M268 539v39l-258 264l189 194l440 -461v-43l-428 -475l-195 191z" />
<glyph unicode="&#x2044;" horiz-adv-x="1120" d="M1059 1454l-690 -1454h-267l691 1454h266z" />
<glyph unicode="&#x2070;" horiz-adv-x="808" d="M750 1032q-12 -119 -115 -186.5t-236 -67.5t-233 66.5t-109 187.5q-14 188 2 340q14 121 115.5 188.5t233 67.5t230.5 -67.5t112 -188.5q18 -158 0 -340zM475 1343q-6 70 -69 70q-66 0 -72 -70q-10 -143 0 -284q6 -66 69 -66q66 0 72 66q8 114 0 284z" />
<glyph unicode="&#x2074;" horiz-adv-x="784" d="M393 973h-342l-31 141l334 504q174 0 305 -10v-441h105v-194h-105v-174h-266v174zM223 1167h170v252z" />
<glyph unicode="&#x2075;" horiz-adv-x="780" d="M729 1065q0 -129 -94 -208t-236 -79q-139 0 -223 66.5t-94 199.5l264 11q0 -72 51 -72q55 0 56 92q0 86 -54 86q-35 0 -51 -35l-233 11l45 460h508v-204h-275l-16 -90q37 23 88 22q104 0 184 -65.5t80 -194.5z" />
<glyph unicode="&#x2076;" horiz-adv-x="837" d="M418 1143q-31 0 -51.5 -22.5t-20.5 -61.5q0 -43 20.5 -69.5t51.5 -26.5t51 23.5t20 62.5q0 45 -19 69.5t-52 24.5zM430 1423q-78 0 -78 -174q63 57 162 58q113 0 187.5 -57.5t74.5 -176.5q0 -129 -98 -212t-256 -83q-147 0 -248.5 98.5t-101.5 290.5q0 215 91 338 t277 123q309 0 310 -260l-267 -10q0 65 -53 65z" />
<glyph unicode="&#x2077;" horiz-adv-x="692" d="M653 1597l19 -135l-310 -663h-292l278 614h-328v184h633z" />
<glyph unicode="&#x2078;" horiz-adv-x="780" d="M334 1356q0 -72 57.5 -72t57.5 72q0 31 -16.5 49t-41 18t-41 -19t-16.5 -48zM328 1065q0 -39 18.5 -60.5t44.5 -21.5q63 0 64 82q0 37 -18.5 56.5t-45 19.5t-45 -19.5t-18.5 -56.5zM729 1034q0 -119 -97 -187.5t-247 -68.5q-145 0 -239.5 66.5t-94.5 183.5q0 57 29 97 t94 85q-117 78 -117 162q0 119 96.5 187.5t241.5 68.5q143 0 236.5 -66.5t93.5 -181.5q0 -86 -121 -170q125 -49 125 -176z" />
<glyph unicode="&#x2079;" horiz-adv-x="847" d="M420 1257q31 0 51.5 26t20.5 65q0 45 -21.5 69.5t-52.5 24.5t-50.5 -23.5t-19.5 -66.5q0 -41 20.5 -68t51.5 -27zM406 981q41 0 62 47t17 117q-51 -51 -161.5 -51t-186.5 61.5t-76 181.5q0 129 93.5 209t257.5 80q147 0 250.5 -98t103.5 -291q0 -209 -95.5 -334 t-279.5 -125q-150 0 -227.5 67.5t-85.5 190.5l266 11q1 -66 62 -66z" />
<glyph unicode="&#x207d;" horiz-adv-x="548" d="M571 571l-163 -36q-12 8 -34 23t-76 72.5t-96 123t-76 174t-34 229.5t33 231.5t81 183.5t95 127t80 79l33 24l166 -24q-8 -10 -21.5 -28.5t-48.5 -80t-61.5 -128t-48 -169t-21.5 -207.5q0 -106 19.5 -207.5t48 -168t57 -119t49.5 -76.5z" />
<glyph unicode="&#x207e;" horiz-adv-x="548" d="M121 535l-164 36q8 8 20.5 24.5t46 74t59.5 121t46.5 166t20.5 208.5q0 166 -50.5 318.5t-99.5 224.5l-51 70l166 24q12 -8 34.5 -25.5t78 -77t97.5 -129t76.5 -181t34.5 -232.5t-32.5 -228.5t-78.5 -176t-92.5 -120.5t-78.5 -75z" />
<glyph unicode="&#x207f;" horiz-adv-x="778" d="M414 1280q-31 0 -45.5 -22.5t-14.5 -38.5v-420h-256v422q0 37 -15 53t-52 16v164q51 10 104 10q127 0 180 -82h2q59 92 191 93q209 0 209 -238v-438h-256v428q0 53 -47 53z" />
<glyph unicode="&#x2080;" horiz-adv-x="808" d="M750 29q-12 -119 -115 -186.5t-236 -67.5t-233 66.5t-109 187.5q-14 188 2 340q14 121 115.5 188.5t233 67.5t230.5 -68t112 -188q18 -158 0 -340zM475 340q-6 70 -69 70q-66 0 -72 -70q-10 -143 0 -285q6 -66 69 -65q66 0 72 65q8 115 0 285z" />
<glyph unicode="&#x2081;" horiz-adv-x="698" d="M229 399h-135l-12 148l305 67l119 -10v-614l151 -25v-170h-575v168l147 25v411z" />
<glyph unicode="&#x2082;" horiz-adv-x="817" d="M94 -205l-22 174q39 33 132 99.5t126 93.5q76 61 103.5 104t27.5 96q0 27 -14.5 42.5t-36.5 15.5q-68 0 -68 -92l-266 -11q-8 137 87 222.5t257 85.5q145 0 231 -74t86 -201q0 -70 -28.5 -119t-87.5 -102q-47 -41 -193 -119h338v-215h-672z" />
<glyph unicode="&#x2083;" horiz-adv-x="786" d="M449 55q0 100 -123 101q-8 0 -64 -6l-16 102l139 137h-305v205h608v-148l-160 -180q90 -2 143.5 -61.5t53.5 -147.5q0 -127 -101.5 -204.5t-244.5 -77.5q-139 0 -228.5 66.5t-99.5 199.5l266 10q0 -72 66 -71q29 0 47.5 21t18.5 54z" />
<glyph unicode="&#x2084;" horiz-adv-x="784" d="M393 -31h-342l-31 142l334 503q174 0 305 -10v-440h105v-195h-105v-174h-266v174zM223 164h170v252z" />
<glyph unicode="&#x2085;" horiz-adv-x="790" d="M729 61q0 -129 -94 -207.5t-236 -78.5q-139 0 -223 66.5t-94 199.5l264 10q0 -72 51 -71q55 0 56 92q0 86 -54 86q-35 0 -51 -35l-233 10l45 461h508v-205h-275l-16 -90q37 23 88 23q104 0 184 -66t80 -195z" />
<glyph unicode="&#x2086;" horiz-adv-x="837" d="M418 139q-31 0 -51.5 -22.5t-20.5 -61.5q0 -43 20.5 -69.5t51.5 -26.5t51 23.5t20 62.5q0 45 -19 69.5t-52 24.5zM430 420q-78 0 -78 -174q63 57 162 57q113 0 187.5 -57.5t74.5 -175.5q0 -129 -98 -212t-256 -83q-147 0 -248.5 98t-101.5 291q0 215 91 338t277 123 q309 0 310 -260l-267 -11q0 66 -53 66z" />
<glyph unicode="&#x2087;" horiz-adv-x="692" d="M653 594l19 -135l-310 -664h-292l278 615h-328v184h633z" />
<glyph unicode="&#x2088;" horiz-adv-x="780" d="M334 352q0 -72 57.5 -71.5t57.5 71.5q0 31 -16.5 49.5t-41 18.5t-41 -19.5t-16.5 -48.5zM328 61q0 -39 18.5 -60t44.5 -21q63 0 64 81q0 37 -18.5 56.5t-45 19.5t-45 -19.5t-18.5 -56.5zM729 31q0 -119 -97 -187.5t-247 -68.5q-145 0 -239.5 66.5t-94.5 183.5q0 57 29 97 t94 85q-117 78 -117 162q0 119 96.5 187.5t241.5 68.5q143 0 236.5 -66.5t93.5 -181.5q0 -86 -121 -170q125 -49 125 -176z" />
<glyph unicode="&#x2089;" horiz-adv-x="847" d="M420 254q31 0 51.5 25.5t20.5 64.5q0 45 -21.5 69.5t-52.5 24.5t-50.5 -23.5t-19.5 -66.5q0 -41 20.5 -67.5t51.5 -26.5zM406 -23q41 0 62 47.5t17 116.5q-51 -51 -161.5 -51t-186.5 61.5t-76 182.5q0 129 93.5 209t257.5 80q147 0 250.5 -98.5t103.5 -291.5 q0 -209 -95.5 -333.5t-279.5 -124.5q-150 0 -227.5 67.5t-85.5 190.5l266 10q1 -66 62 -66z" />
<glyph unicode="&#x208d;" horiz-adv-x="548" d="M571 -432l-163 -37q-12 8 -34 23.5t-76 73t-96 123t-76 174t-34 229t33 231.5t81 183.5t95 127t80 78.5l33 25l166 -25q-8 -10 -21.5 -28.5t-48.5 -80t-61.5 -128t-48 -169t-21.5 -206.5q0 -106 19.5 -207.5t48 -168.5t57 -119t49.5 -77z" />
<glyph unicode="&#x208e;" horiz-adv-x="548" d="M121 -469l-164 37q8 8 20.5 24.5t46 74t59.5 120.5t46.5 165.5t20.5 209.5q0 166 -50.5 318.5t-99.5 224.5l-51 69l166 25q12 -8 34.5 -25.5t78 -77t97.5 -129t76.5 -181.5t34.5 -232.5t-32.5 -228t-78.5 -176t-92.5 -121t-78.5 -74.5z" />
<glyph unicode="&#x20ac;" horiz-adv-x="1216" d="M12 752l51 194h117l4 64q8 221 153.5 348t354.5 127q137 0 241.5 -46t169 -155.5t60.5 -269.5l-358 -10q0 143 -112.5 143t-119.5 -156q-2 -14 -2 -45h355l-49 -194h-308v-72h293l-51 -195h-238v-10q6 -168 117 -168q55 0 85 39t30 105l358 -11q0 -219 -127 -345 t-356 -126q-225 0 -357.5 131t-138.5 355q0 4 -1 14t-1 16h-182l51 195h129v72h-168z" />
<glyph unicode="&#x2116;" horiz-adv-x="2119" d="M1432 348v225h606v-225h-606zM2038 932q-4 -111 -86 -177.5t-217.5 -66.5t-217 66.5t-87.5 177.5q-6 102 0 209q6 111 89 177t216 66t216 -66.5t87 -176.5q6 -96 0 -209zM1782 1135q0 23 -13.5 39t-34 16t-34.5 -16.5t-14 -38.5q-6 -96 0 -193q0 -25 14 -42t34.5 -17 t34 17.5t13.5 41.5q6 91 0 193zM1432 0v225h606v-225h-606zM877 1454h389v-1454h-361l-344 598l-59 168v-766h-389v1454h354l360 -676l50 -137v813z" />
<glyph unicode="&#x2122;" horiz-adv-x="1662" d="M219 707v512h-199v235h685v-235h-199v-512h-287zM764 707v747h217l188 -276l189 276h223v-747h-287v329l-2 2l-114 -170h-35l-113 174v-335h-266z" />
<glyph unicode="&#x2153;" horiz-adv-x="1941" d="M250 1260h-135l-13 147l306 68l118 -11v-614l152 -25v-170h-576v168l148 25v412zM1563 260q0 100 -123 100q-8 0 -64 -6l-16 103l139 137h-305v205h608v-148l-160 -180q90 -2 143.5 -61.5t53.5 -147.5q0 -127 -101.5 -204.5t-244.5 -77.5q-139 0 -228 66.5t-100 199.5 l267 10q0 -72 65 -72q29 0 47.5 21.5t18.5 54.5zM1415 1454l-690 -1454h-266l690 1454h266z" />
<glyph unicode="&#x2154;" horiz-adv-x="2074" d="M125 653l-23 174q39 33 132.5 99.5t125.5 93.5q76 61 104 104t28 97q0 27 -14.5 42t-37.5 15q-68 0 -67 -92l-267 -10q-8 137 87.5 222t257.5 85q145 0 231 -74t86 -201q0 -70 -28.5 -119t-88.5 -102q-47 -41 -192 -119h338v-215h-672zM1696 260q0 100 -123 100 q-8 0 -64 -6l-16 103l139 137h-305v205h608v-148l-159 -180q90 -2 143 -61.5t53 -147.5q0 -127 -101.5 -204.5t-244.5 -77.5q-139 0 -228 66.5t-100 199.5l267 10q0 -72 65 -72q29 0 47.5 21.5t18.5 54.5zM1548 1454l-690 -1454h-266l690 1454h266z" />
<glyph unicode="&#x215b;" horiz-adv-x="1910" d="M250 1260h-135l-13 147l306 68l118 -11v-614l152 -25v-170h-576v168l148 25v412zM1413 557q0 -72 57.5 -72t57.5 72q0 31 -16.5 49.5t-41 18.5t-41 -19.5t-16.5 -48.5zM1407 266q0 -39 18.5 -60.5t44.5 -21.5q63 0 64 82q0 37 -18.5 56.5t-45 19.5t-45 -19.5t-18.5 -56.5 zM1808 236q0 -119 -97 -187.5t-247 -68.5q-145 0 -239.5 66.5t-94.5 182.5q0 57 29 97.5t94 85.5q-117 78 -116 161q0 119 95 187.5t243 68.5q143 0 236 -66.5t93 -180.5q0 -86 -121 -170q125 -49 125 -176zM1403 1454l-690 -1454h-267l691 1454h266z" />
<glyph unicode="&#x215c;" horiz-adv-x="1978" d="M500 915q0 100 -123 101q-8 0 -64 -6l-16 102l139 137h-305v205h608v-147l-159 -181q90 -2 143 -61t53 -147q0 -127 -101.5 -205t-244.5 -78q-139 0 -228 66.5t-100 199.5l267 10q0 -72 65 -71q29 0 47.5 21t18.5 54zM1481 557q0 -72 57 -72t57 72q0 31 -16 49.5 t-41 18.5t-41 -19.5t-16 -48.5zM1475 266q0 -39 18 -60.5t45 -21.5q63 0 64 82q0 37 -18.5 56.5t-45.5 19.5t-45 -19.5t-18 -56.5zM1876 236q0 -119 -97.5 -187.5t-246.5 -68.5q-145 0 -239.5 66.5t-94.5 182.5q0 57 28.5 97.5t94.5 85.5q-117 78 -117 161q0 119 96.5 187.5 t241.5 68.5q143 0 236.5 -66.5t93.5 -180.5q0 -86 -121 -170q125 -49 125 -176zM1460 1454l-690 -1454h-266l690 1454h266z" />
<glyph unicode="&#x215d;" horiz-adv-x="1898" d="M750 922q0 -129 -94.5 -208t-235.5 -79q-139 0 -223 66.5t-95 199.5l265 10q0 -72 51 -71q55 0 55 92q0 86 -53 86q-35 0 -51 -35l-234 10l45 461h508v-205h-274l-17 -90q37 23 88 23q104 0 184.5 -65.5t80.5 -194.5zM1401 557q0 -72 57.5 -72t57.5 72q0 31 -16.5 49.5 t-41 18.5t-41 -19.5t-16.5 -48.5zM1395 266q0 -39 18.5 -60.5t44.5 -21.5q63 0 64 82q0 37 -18.5 56.5t-45 19.5t-45 -19.5t-18.5 -56.5zM1796 236q0 -119 -97 -187.5t-247 -68.5q-145 0 -239.5 66.5t-94.5 182.5q0 57 29 97.5t94 85.5q-117 78 -117 161q0 119 95.5 187.5 t242.5 68.5q143 0 236.5 -66.5t93.5 -180.5q0 -86 -121 -170q125 -49 125 -176zM1386 1454l-690 -1454h-266l690 1454h266z" />
<glyph unicode="&#x215e;" horiz-adv-x="1804" d="M735 1454l19 -135l-310 -664h-292l278 615h-328v184h633zM1307 547q0 -72 57 -72t57 72q0 31 -16 49t-41 18t-41 -19t-16 -48zM1300 256q0 -39 18.5 -60.5t45.5 -21.5q63 0 63 82q0 37 -18 56.5t-45 19.5t-45.5 -19.5t-18.5 -56.5zM1702 225q0 -119 -97.5 -187.5 t-246.5 -68.5q-145 0 -239.5 66.5t-94.5 183.5q0 57 28.5 97t94.5 85q-117 78 -117 162q0 119 95.5 187.5t242.5 68.5q143 0 236.5 -66.5t93.5 -181.5q0 -86 -121 -170q125 -49 125 -176zM1280 1454l-690 -1454h-266l690 1454h266z" />
<glyph unicode="&#x2196;" horiz-adv-x="1232" d="M350 594l15 -332l-289 -8l-25 836l76 73l838 -6l12 -283l-309 11l-125 45l690 -707l-242 -241l-686 743z" />
<glyph unicode="&#x2197;" horiz-adv-x="1232" d="M868 262l15 324l47 129l-688 -733l-242 241l702 705l-127 -43l-319 -11l12 283l838 6l76 -73l-25 -836z" />
<glyph unicode="&#x2198;" horiz-adv-x="1232" d="M279 283l294 -23l129 -45l-702 713l231 233l707 -739l-43 125l-2 356h283l6 -848l-74 -75l-827 24z" />
<glyph unicode="&#x2199;" horiz-adv-x="1232" d="M659 260l295 23l-2 -279l-827 -24l-74 75l6 848h283l-2 -356l-43 -125l706 739l232 -241l-703 -705z" />
<glyph unicode="&#x2202;" horiz-adv-x="1118" d="M145 1182l-18 264q88 39 244 39q311 0 498.5 -215t187.5 -602q0 -133 -32 -254t-94.5 -222.5t-172 -162t-250.5 -60.5q-207 0 -332 134.5t-125 347.5q0 215 111.5 337.5t263.5 122.5q190 0 258 -133q-10 109 -48 196t-127 150.5t-220 63.5zM549 614q-59 0 -94 -46 t-35 -117q0 -74 32.5 -129.5t92.5 -55.5q133 0 133 185q0 66 -34 114.5t-95 48.5z" />
<glyph unicode="&#x220f;" horiz-adv-x="1325" d="M102 0v1454h1121v-1454h-389v1116h-342v-1116h-390z" />
<glyph unicode="&#x2211;" horiz-adv-x="1021" d="M53 0l-12 264l401 451l-401 422l18 317h942v-328h-469l349 -389l-349 -409h469v-328h-948z" />
<glyph unicode="&#x2212;" horiz-adv-x="942" d="M51 369v297h840v-297h-840z" />
<glyph unicode="&#x221a;" horiz-adv-x="1392" d="M1444 1536l-543 -1536h-457l-233 727h-191v287h512l187 -705l403 1227h322z" />
<glyph unicode="&#x221e;" horiz-adv-x="1593" d="M983 610l-127 154q14 18 40 44t108.5 70t171.5 44q186 0 281 -103.5t95 -259.5q0 -162 -103 -269.5t-269 -107.5q-145 0 -253 80t-210 215q-53 70 -79 101.5t-69 64.5t-77 33q-49 0 -77 -33t-28 -90q0 -49 28.5 -86t78.5 -37q41 0 69.5 18.5t36.5 34.5l8 19l127 -150 q-106 -172 -315 -172q-164 0 -271.5 99.5t-107.5 265.5q0 170 104.5 273.5t280.5 103.5q143 0 249.5 -80t203.5 -211q41 -57 59 -80t50 -58.5t57.5 -49t52.5 -13.5q45 0 75.5 36t30.5 87q0 49 -27.5 86t-72.5 37q-84 0 -121 -66z" />
<glyph unicode="&#x222b;" horiz-adv-x="847" d="M598 1130v-1257q0 -178 -113.5 -281.5t-281.5 -103.5q-137 0 -234 55l47 262q53 -10 107 -10q106 0 106 99v1257q0 178 114 281.5t282 103.5q137 0 233 -55l-47 -262q-53 10 -106 10q-45 0 -76 -25t-31 -74z" />
<glyph unicode="&#x2248;" horiz-adv-x="958" d="M700 174q-61 0 -238 41t-194 41q-39 0 -73 -80l-82 27q-29 66 -30 139.5t49 131.5t134 58q74 0 242 -40.5t190 -40.5q8 0 15.5 4t12.5 8t11 14t8.5 15.5t8.5 19.5t8 18l82 -26q29 -66 32 -139.5t-44.5 -132t-131.5 -58.5zM700 575q-61 0 -238 41t-194 41q-39 0 -73 -79 l-82 26q-29 66 -30 139.5t49 132t134 58.5q74 0 242 -41t190 -41q8 0 15.5 4t12.5 8t11 14.5t8.5 15.5t8.5 19.5t8 18.5l82 -27q29 -66 32 -139.5t-44.5 -132t-131.5 -58.5z" />
<glyph unicode="&#x2260;" horiz-adv-x="1048" d="M51 590v287h512l88 188h291l-88 -188h143v-287h-276l-51 -113h327v-287h-460l-103 -221h-295l103 221h-191v287h326l51 113h-377z" />
<glyph unicode="&#x2264;" horiz-adv-x="1046" d="M76 0v246h915v-246h-915zM61 786v82l799 514l135 -229l-489 -303l2 -23l485 -327l-157 -219z" />
<glyph unicode="&#x2265;" horiz-adv-x="1046" d="M57 0v246h916v-246h-916zM985 866v-82l-799 -503l-135 229l488 303l-2 27l-484 323l158 219z" />
<glyph unicode="&#x2460;" horiz-adv-x="1587" d="M102 676q0 287 203 496.5t489.5 209.5t488.5 -209.5t202 -496.5t-202 -497t-488.5 -210t-489.5 210t-203 497zM537 901h135v-412l-148 -24v-168h576v170l-152 25v614l-119 10l-305 -67z" />
<glyph unicode="&#x2461;" horiz-adv-x="1587" d="M102 676q0 287 203 496.5t489.5 209.5t488.5 -210.5t202 -495.5t-202 -496t-488.5 -211t-489.5 210t-203 497zM444 471l23 -174h672v215h-338q145 78 192 119q59 53 88 102t29 119q0 127 -86 200.5t-231 73.5q-162 0 -257.5 -85t-86.5 -222l266 10q0 92 67 93 q23 0 37.5 -15.5t14.5 -42.5q0 -53 -28 -96t-104 -104q-33 -27 -126 -93.5t-132 -99.5z" />
<glyph unicode="&#x2462;" horiz-adv-x="1587" d="M102 676q0 285 203 495.5t490 210.5q285 0 487.5 -210.5t202.5 -495.5t-203 -496t-487 -211q-287 0 -490 211t-203 496zM856 555q0 -33 -18.5 -54.5t-46.5 -21.5q-66 0 -66 72l-266 -10q10 -133 99 -200t228 -67q143 0 245 78t102 205q0 88 -53.5 147.5t-143.5 61.5 l160 190v148h-609v-205h306l-140 -147l17 -103q55 6 63 6q123 0 123 -100z" />
<glyph unicode="&#x2463;" horiz-adv-x="1587" d="M102 676q0 287 203 496.5t489.5 209.5t488.5 -210.5t202 -495.5t-202 -496t-488.5 -211t-489.5 210t-203 497zM403 471h342v-174h267v174h104v195h-104v440l-305 10l-334 -514zM745 666h-170l170 252v-252z" />
<glyph unicode="&#x2464;" horiz-adv-x="1587" d="M102 676q0 287 203 496.5t489.5 209.5t488.5 -210.5t202 -495.5t-202 -496t-488.5 -211t-489.5 210t-203 497zM1114 561q0 129 -80 194.5t-184 65.5q-23 0 -45.5 -5t-32.5 -11l-10 -6l16 100h275v205h-508l-45 -471l233 -10q16 35 51 34q53 0 54 -86q0 -92 -56 -92 q-51 0 -51 72l-264 -10q10 -133 94 -200t223 -67q141 0 235.5 79t94.5 208z" />
<glyph unicode="&#x2465;" horiz-adv-x="1587" d="M102 676q0 287 203 496.5t489.5 209.5t488.5 -210.5t202 -495.5t-202 -496t-488.5 -211t-489.5 210t-203 497zM778 645q33 0 52.5 -24.5t19.5 -69.5q0 -39 -20.5 -62.5t-51 -23.5t-51 26.5t-20.5 69.5q0 39 20 61.5t51 22.5zM791 926q53 0 53 -66l266 10q0 260 -309 260 q-186 0 -277.5 -122.5t-91.5 -337.5q0 -193 101.5 -291t248.5 -98q158 0 256.5 82.5t98.5 211.5q0 119 -75 176.5t-188 57.5q-98 0 -161 -57q0 174 78 174z" />
<glyph unicode="&#x2466;" horiz-adv-x="1587" d="M102 676q0 287 203 496.5t489.5 209.5t488.5 -210.5t202 -495.5t-202 -496t-488.5 -211t-489.5 210t-203 497zM1145 971l-19 135h-632v-184h327l-278 -625h293z" />
<glyph unicode="&#x2467;" horiz-adv-x="1587" d="M102 676q0 285 203 495.5t490 210.5q285 0 487.5 -210.5t202.5 -495.5t-203 -496t-487 -211q-287 0 -490 211t-203 496zM739 854q0 29 16.5 48.5t41 19.5t41 -18.5t16.5 -49.5q0 -72 -57.5 -72t-57.5 72zM733 563q0 37 18.5 56.5t45 19.5t45 -19.5t18.5 -56.5 q0 -82 -63 -82q-27 0 -45.5 21.5t-18.5 60.5zM1135 532q0 127 -125 177q121 84 120 170q0 115 -93 181t-236 66q-145 0 -241.5 -68.5t-96.5 -187.5q0 -84 117 -161q-66 -45 -94.5 -85t-28.5 -98q0 -117 94 -183.5t240 -66.5q150 0 247 68.5t97 187.5z" />
<glyph unicode="&#x2468;" horiz-adv-x="1587" d="M102 676q0 287 203 496.5t490 209.5q285 0 487.5 -210.5t202.5 -495.5t-203 -496t-487 -211q-287 0 -490 210t-203 497zM819 758q-31 0 -51 26.5t-20 67.5q0 43 19 66.5t50 23.5t52.5 -24.5t21.5 -69.5q0 -39 -20.5 -64.5t-51.5 -25.5zM805 481q-61 0 -62 66l-266 -10 q8 -123 86 -190.5t228 -67.5q184 0 279 124.5t95 333.5q0 193 -103.5 291t-250.5 98q-164 0 -257 -79.5t-93 -208.5q0 -121 75.5 -182.5t186.5 -61.5t162 51q4 -70 -17.5 -117t-62.5 -47z" />
<glyph unicode="&#x24ea;" horiz-adv-x="1587" d="M102 676q0 287 203 496.5t489.5 209.5t488.5 -209.5t202 -496.5t-202 -497t-488.5 -210t-489.5 210t-203 497zM1139 535q18 182 0 339q-12 121 -111.5 188.5t-230.5 67.5t-232.5 -67.5t-115.5 -188.5q-16 -152 -3 -339q8 -121 109.5 -187.5t237.5 -66.5q133 0 233.5 67.5 t112.5 186.5zM864 846q8 -170 0 -285q-6 -66 -71 -65q-63 0 -70 65q-10 141 0 285q6 70 72 69q63 1 69 -69z" />
<glyph unicode="&#x25ca;" horiz-adv-x="1243" d="M797 0h-348l-367 676l367 696h348l364 -696zM461 676l162 -340l159 340l-159 354z" />
<glyph unicode="&#x261c;" horiz-adv-x="2734" d="M143 1075q229 16 452.5 24.5t332.5 10.5h108q12 6 50 27.5t52.5 30t48.5 25.5t52 25.5t50 19.5t54.5 16.5t52 9.5t58.5 4q104 0 227 -46t212 -100.5t180.5 -100.5t140.5 -46l420 12q37 0 39 -452.5t-39 -452.5l-482 14q-57 -80 -175.5 -107.5t-209.5 -17.5l-90 13 q-35 -4 -102.5 -11.5t-107.5 -11.5t-102 -8t-100 0t-86.5 10t-77 23.5t-55 43t-37 64.5t-8.5 90q-109 23 -152.5 106t-19.5 173q-70 45 -92 116.5t-1.5 129t65.5 73.5q-563 20 -658 33q-72 8 -99.5 70.5t2 123t97.5 66.5zM2478 492q4 27 1 192.5t-19 165.5q-6 0 -51.5 -2 t-106.5 -4t-107 -2q-18 0 -39.5 4t-33.5 8l-15 4q41 -66 38 -149.5t-44 -130.5q33 -113 97 -220q29 -49 73.5 -74.5t88.5 -21.5t79 62.5t39 167.5zM1434 928q59 0 99 -39t59.5 -87t60.5 -99.5t98 -69.5l-8 -70q-66 -39 -78 -142.5t33 -191.5t123 -88q76 0 128 56.5t52 150.5 q0 186 -148 207q-2 2 -2 17.5t2 33.5l2 19q76 6 105 68.5t1 141t-97 134.5q-221 174 -410 174q-88 0 -146.5 -22.5t-207.5 -110.5l-258 -133q-6 0 9 -18.5t48 -38t68 -19.5q90 0 228.5 63.5t238.5 63.5zM1225 80q98 8 299 65q47 16 30.5 67.5t-63.5 41.5l-340 -51 q-33 -6 -27 -51q6 -55 62 -70q19 -4 39 -2zM1051 319q129 0 422 64q29 6 38 33.5t-6.5 52.5t-44.5 25q-37 0 -206 -19.5t-238 -32.5q-53 -8 -49 -55t53 -63q15 -5 31 -5zM942 553q27 -2 239 29.5t251 40.5q55 14 46.5 63t-71.5 49q-66 0 -256 -19.5t-223 -27.5 q-39 -12 -49.5 -45t9 -61.5t54.5 -28.5zM217 897q115 -8 227 -8q53 0 89 3t82.5 18.5t62.5 21.5t89 40t103 48q-461 -18 -651 -27q-31 -2 -44 -24.5t-2 -46t44 -25.5z" />
<glyph unicode="&#x261e;" horiz-adv-x="2734" d="M2591 1075q68 -6 97.5 -66.5t1.5 -123t-99 -70.5q-41 -6 -206 -14t-308 -15l-144 -4q45 -16 65.5 -73.5t-2 -129t-91.5 -116.5q25 -90 -19.5 -173t-152.5 -106q2 -51 -8.5 -90t-37 -64.5t-55 -43t-77 -23.5t-86 -10t-100 0t-102.5 8t-107.5 11.5t-102.5 11.5 q-14 -2 -38 -6.5t-90.5 -5.5t-125 7.5t-122 38t-99.5 78.5l-482 -14q-41 0 -39 452.5t39 452.5q356 -12 420 -12q49 0 140.5 46t180.5 100.5t212 100.5t227 46q29 0 58.5 -4t52 -9.5t54.5 -16.5t50 -19.5t52 -25.5t48.5 -25.5t52.5 -30t50 -27.5q379 0 893 -35zM256 492 q4 -109 39 -167.5t79 -62.5t89 21.5t74 74.5q29 47 52 102.5t34 86.5l10 31q-41 47 -44 131t38 149q-47 -16 -88 -16q-45 0 -106.5 2t-106.5 4t-52 2q-16 0 -19 -165.5t1 -192.5zM1300 928q100 0 238.5 -63.5t228.5 -63.5q35 0 68 19.5t48 38t9 18.5q-145 82 -258 133 q-150 88 -208 110.5t-146 22.5q-188 0 -410 -174q-70 -55 -97.5 -134t1.5 -141.5t105 -68.5q2 -18 3 -35t-1 -35q-147 -20 -148 -207q0 -94 52.5 -150.5t127.5 -56.5q78 0 123 88t33 191.5t-78 142.5l-8 70q57 18 98 69.5t60.5 99.5t59.5 87t99 39zM1509 80q74 -8 97 53 q18 49 -13 66q-4 4 -10 4q-272 37 -340 51q-47 10 -63.5 -41t30.5 -68q201 -57 299 -65zM1683 319q61 0 80 52q18 47 -24 65q-8 4 -21 6q-70 12 -238.5 32t-205.5 20q-29 0 -44.5 -25t-6 -52.5t38.5 -33.5q292 -64 421 -64zM1792 553q35 0 54.5 28.5t9 61.5t-49.5 45 q-33 8 -223 27.5t-256 19.5q-63 0 -71.5 -49t47.5 -63q39 -8 250.5 -40t238.5 -30zM2517 897q33 2 44 25.5t-2 46t-44 24.5l-651 27q35 -16 90 -42t75.5 -35t57.5 -23.5t61.5 -18.5t61.5 -8t80 -4q112 0 227 8z" />
<glyph unicode="&#xe000;" horiz-adv-x="1013" d="M0 1014h1014v-1014h-1014v1014z" />
<glyph unicode="&#xfb06;" horiz-adv-x="1720" d="M1079 1014v78q0 76 -43 116.5t-106.5 40.5t-105.5 -41t-42 -114q0 -63 9 -88q-41 27 -92.5 46t-84.5 25l-30 6q-8 41 -9 78q0 170 127 272.5t312 102.5q197 0 315.5 -119t118.5 -332v-71h244v-256h-244v-352q0 -82 39 -118t117 -36q72 0 96 4l10 -256q-88 -31 -223 -31 q-80 0 -148.5 18.5t-129 59.5t-95.5 118t-35 181v412h-141v256h141zM872 666l-337 -11q0 92 -62 93q-59 0 -59 -56q0 -35 29.5 -54.5t113.5 -43.5q72 -20 104.5 -30.5t86 -36t78 -52t44 -74t19.5 -108.5q0 -133 -121 -228.5t-305 -95.5q-178 0 -296 93.5t-126 275.5l338 10 q2 -37 21.5 -59.5t52.5 -22.5q31 0 49 16.5t18 41.5q0 12 -3 20t-12 15.5t-17.5 12.5t-27 10t-31.5 9t-43 11.5t-50 13.5q-66 18 -110 36.5t-90 50.5t-68.5 83t-22.5 121q0 154 125 245.5t311 91.5q184 0 295.5 -105t95.5 -273z" />
<glyph horiz-adv-x="1118" d="M1055 731q6 -168 0 -344q-6 -180 -135 -299t-354.5 -119t-360.5 120t-139 298q-4 223 0 340q8 180 141 305t352 125q213 0 350.5 -121t145.5 -305zM430 705q-6 -109 -4 -216l231 310q-35 51 -96 51q-123 0 -131 -145zM686 408q4 66 4 186l-215 -287q33 -31 86 -31 q57 0 89 35.5t36 96.5z" />
<glyph d="M252 512q27 6 145 25q-111 16 -211 38q-96 23 -96 127q0 158 124 250t302 92q188 0 302 -101t114 -296v-293q0 -61 19.5 -79.5t86.5 -18.5v-256q-43 -18 -113.5 -24.5t-157.5 23.5t-130 105h-4q-72 -135 -254 -135q-131 0 -224.5 77t-93.5 235q1 190 191 231zM502 637 v-221l-19 -6q-31 -10 -42 -23.5t-11 -46.5t19.5 -53.5t50.5 -20.5q63 0 63 70v338q0 74 -61 74q-29 0 -46.5 -15.5t-17.5 -36.5q0 -25 11.5 -36t52.5 -23z" />
<glyph horiz-adv-x="1015" d="M934 938v-1079q0 -188 -122 -295t-310 -107q-203 0 -332 90.5t-129 249.5q0 61 23.5 99t87.5 84q111 74 143 90q-96 18 -165 86.5t-75 187.5q-6 115 0 315q6 188 130 286.5t309 98.5q115 0 224 -26.5t163 -52.5zM496 328v-365l-56 -41q-23 -18 -26.5 -29.5t-3.5 -50.5 q0 -43 23.5 -65.5t58.5 -22.5q74 0 73 86v893q-25 14 -63 15q-76 0 -78 -74q-6 -145 0 -273q2 -37 22.5 -55t49.5 -18z" />
<glyph horiz-adv-x="1015" d="M53 961l369 63v-623q0 -35 20.5 -54t53.5 -19v-365l-56 -41q-23 -16 -26.5 -32.5t-3.5 -57.5q0 -88 79 -88q76 0 76 96v1123l369 61v-1165q0 -186 -129 -294t-313 -108q-201 0 -326 90.5t-125 249.5q0 63 20.5 99t90.5 84q90 63 143 90q-113 10 -177.5 93t-64.5 232v566z " />
<glyph horiz-adv-x="1343" d="M641 616l-23 228l91 43q37 18 49 43.5t12 79.5q0 147 -131 147q-61 0 -99 -43t-38 -115v-999h-410v958q0 236 154.5 381.5t402.5 145.5q260 0 391 -110.5t131 -289.5q0 -150 -161 -239q-16 -10 -48 -25.5t-44 -21.5q160 -18 267 -109.5t107 -255.5q0 -207 -169 -321.5 t-431 -114.5l-84 2v338q25 -2 64 -2q190 0 190 141q0 139 -162 139h-59z" />
<glyph d="M252 512q27 6 145 25q-111 16 -211 38q-96 23 -96 127q0 158 124 250t302 92q188 0 302 -101t114 -296v-293q0 -61 19.5 -79.5t86.5 -18.5v-256q-43 -18 -113.5 -24.5t-157.5 23.5t-130 105h-4q-72 -135 -254 -135q-131 0 -224.5 77t-93.5 235q1 190 191 231zM125 1454 h379l164 -297h-244zM502 637v-221l-19 -6q-31 -10 -42 -23.5t-11 -46.5t19.5 -53.5t50.5 -20.5q63 0 63 70v338q0 74 -61 74q-29 0 -46.5 -15.5t-17.5 -36.5q0 -25 11.5 -36t52.5 -23z" />
<glyph d="M252 512q27 6 145 25q-111 16 -211 38q-96 23 -96 127q0 158 124 250t302 92q188 0 302 -101t114 -296v-293q0 -61 19.5 -79.5t86.5 -18.5v-256q-43 -18 -113.5 -24.5t-157.5 23.5t-130 105h-4q-72 -135 -254 -135q-131 0 -224.5 77t-93.5 235q1 190 191 231zM524 1454 h410l-322 -297h-241zM502 637v-221l-19 -6q-31 -10 -42 -23.5t-11 -46.5t19.5 -53.5t50.5 -20.5q63 0 63 70v338q0 74 -61 74q-29 0 -46.5 -15.5t-17.5 -36.5q0 -25 11.5 -36t52.5 -23z" />
<glyph d="M252 512q27 6 145 25q-111 16 -211 38q-96 23 -96 127q0 158 124 250t302 92q188 0 302 -101t114 -296v-293q0 -61 19.5 -79.5t86.5 -18.5v-256q-43 -18 -113.5 -24.5t-157.5 23.5t-130 105h-4q-72 -135 -254 -135q-131 0 -224.5 77t-93.5 235q1 190 191 231zM360 1454 h326l227 -297h-307l-90 129l-100 -129h-297zM502 637v-221l-19 -6q-31 -10 -42 -23.5t-11 -46.5t19.5 -53.5t50.5 -20.5q63 0 63 70v338q0 74 -61 74q-29 0 -46.5 -15.5t-17.5 -36.5q0 -25 11.5 -36t52.5 -23z" />
<glyph d="M252 512q27 6 145 25q-111 16 -211 38q-96 23 -96 127q0 158 124 250t302 92q188 0 302 -101t114 -296v-293q0 -61 19.5 -79.5t86.5 -18.5v-256q-43 -18 -113.5 -24.5t-157.5 23.5t-130 105h-4q-72 -135 -254 -135q-131 0 -224.5 77t-93.5 235q1 190 191 231zM555 1280 q0 63 46 109.5t109.5 46.5t108.5 -46.5t45 -109.5t-45 -108.5t-108.5 -45.5t-109.5 45.5t-46 108.5zM152 1280q0 63 45 109.5t110 46.5q63 0 108.5 -46.5t45.5 -109.5t-45 -108.5t-108.5 -45.5t-109.5 45.5t-46 108.5zM502 637v-221l-19 -6q-31 -10 -42 -23.5t-11 -46.5 t19.5 -53.5t50.5 -20.5q63 0 63 70v338q0 74 -61 74q-29 0 -46.5 -15.5t-17.5 -36.5q0 -25 11.5 -36t52.5 -23z" />
<glyph d="M252 512q27 6 145 25q-111 16 -211 38q-96 23 -96 127q0 158 124 250t302 92q188 0 302 -101t114 -296v-293q0 -61 19.5 -79.5t86.5 -18.5v-256q-43 -18 -113.5 -24.5t-157.5 23.5t-130 105h-4q-72 -135 -254 -135q-131 0 -224.5 77t-93.5 235q1 190 191 231zM670 1149 q-68 0 -177.5 44t-132.5 44q-10 0 -18 -5t-14 -15.5t-10.5 -18.5t-11.5 -24.5t-9 -22.5l-82 27q-29 66 -30 132t46.5 116.5t127 50.5t181 -44t128.5 -44q16 0 24 11t16.5 38.5t12.5 36.5l82 -27q29 -66 32 -132.5t-41 -116.5t-124 -50zM502 637v-221l-19 -6 q-31 -10 -42 -23.5t-11 -46.5t19.5 -53.5t50.5 -20.5q63 0 63 70v338q0 74 -61 74q-29 0 -46.5 -15.5t-17.5 -36.5q0 -25 11.5 -36t52.5 -23z" />
<glyph d="M252 512q27 6 145 25q-111 16 -211 38q-96 23 -96 127q0 158 124 250t302 92q188 0 302 -101t114 -296v-293q0 -61 19.5 -79.5t86.5 -18.5v-256q-43 -18 -113.5 -24.5t-157.5 23.5t-130 105h-4q-72 -135 -254 -135q-131 0 -224.5 77t-93.5 235q1 190 191 231zM268 1321 q0 92 69 153.5t175 61.5t175 -61.5t69 -153.5t-69 -154.5t-175 -62.5t-175 62.5t-69 154.5zM502 637v-221l-19 -6q-31 -10 -42 -23.5t-11 -46.5t19.5 -53.5t50.5 -20.5q63 0 63 70v338q0 74 -61 74q-29 0 -46.5 -15.5t-17.5 -36.5q0 -25 11.5 -36t52.5 -23zM451 1321 q0 -25 17 -43t44 -18t44 18t17 43t-17 43t-44 18t-44 -18t-17 -43z" />
<glyph horiz-adv-x="1476" d="M924 332q0 -39 20.5 -62.5t52.5 -23.5q66 0 70 82h369q-20 -170 -144.5 -264.5t-314.5 -94.5q-211 0 -326 133q-33 -63 -110.5 -98t-161.5 -35q-135 0 -226.5 81t-91.5 237q0 102 40 149t141 64l194 30q-117 18 -239 54q-47 12 -66.5 32.5t-19.5 59.5q0 147 108.5 247.5 t294.5 100.5q143 0 250 -68q100 68 244 68q170 0 292.5 -94t122.5 -266q0 -100 -41 -133t-186 -62l-272 -49v-88zM502 639v-240l-35 -6q-25 -4 -31 -19.5t-6 -47.5q0 -80 66 -80q68 0 67 82v350q0 70 -63 70q-29 0 -45.5 -18.5t-16.5 -43.5q0 -23 12.5 -31t51.5 -16z M924 676v-103q37 4 69 11q41 8 51.5 22.5t10.5 65.5q0 76 -64 76q-67 0 -67 -72z" />
<glyph horiz-adv-x="1015" d="M53 961l369 63v-623q0 -35 20.5 -54t53.5 -19v-365l-56 -41q-23 -16 -26.5 -32.5t-3.5 -57.5q0 -88 79 -88q76 0 76 96v1123l369 61v-1165q0 -186 -129 -294t-313 -108q-201 0 -326 90.5t-125 249.5q0 63 20.5 99t90.5 84q90 63 143 90q-113 10 -177.5 93t-64.5 232v566z M489 1454h410l-321 -297h-242z" />
<glyph horiz-adv-x="1015" d="M53 961l369 63v-623q0 -35 20.5 -54t53.5 -19v-365l-56 -41q-23 -16 -26.5 -32.5t-3.5 -57.5q0 -88 79 -88q76 0 76 96v1123l369 61v-1165q0 -186 -129 -294t-313 -108q-201 0 -326 90.5t-125 249.5q0 63 20.5 99t90.5 84q90 63 143 90q-113 10 -177.5 93t-64.5 232v566z M139 1280q0 63 45 109.5t111 46.5q63 0 108.5 -46.5t45.5 -109.5t-45.5 -108.5t-109 -45.5t-109.5 45.5t-46 108.5zM543 1280q0 63 46 109.5t109.5 46.5t108.5 -46.5t45 -109.5t-45 -108.5t-108.5 -45.5t-109.5 45.5t-46 108.5z" />
<glyph horiz-adv-x="1136" d="M1067 393q-16 -201 -160.5 -312.5t-341 -111.5t-341 113t-158.5 311q-10 135 -10.5 340t10.5 328q18 193 163.5 308.5t337.5 115.5q199 0 340.5 -114t159.5 -310q10 -111 10 -326t-10 -342zM684 444q8 100 8 330l-227 -399q27 -68 100 -68q107 0 119 137zM442 672 l226 407q-29 68 -99 68q-106 0 -118 -143q-9 -109 -9 -332z" />
<glyph horiz-adv-x="1136" d="M1067 393q-16 -201 -160.5 -312.5t-341 -111.5t-341 113t-158.5 311q-10 135 -10.5 340t10.5 328q18 193 163.5 308.5t337.5 115.5q199 0 340.5 -114t159.5 -310q10 -111 10 -326t-10 -342zM684 1004q-12 143 -115 143q-106 0 -118 -143q-18 -238 0 -560 q8 -137 114.5 -137t118.5 137q8 98 8 282t-8 278z" />
<glyph horiz-adv-x="1136" d="M371 1137l-178 -27l-31 225l403 129l195 -10v-1182l213 -36v-236h-809v233l207 37v867z" />
<glyph horiz-adv-x="1136" d="M82 0l-10 252q379 379 463 493q125 172 124 299q0 49 -29.5 86t-84.5 37q-57 0 -90 -47t-33 -116l-359 -21q-6 223 141.5 362.5t368.5 139.5q217 0 341 -109.5t124 -316.5q0 -231 -209 -477q-115 -135 -305 -275h551v-307h-993z" />
<glyph horiz-adv-x="1136" d="M561 -31q-213 0 -349 116t-157 316l359 21q6 -68 44 -107t93 -39q57 0 98 45.5t41 135.5q0 221 -291 194l-28 162l233 334h-485v307h907l10 -235l-274 -375q133 -20 225 -124t92 -265q0 -215 -151.5 -350.5t-366.5 -135.5z" />
<glyph horiz-adv-x="1187" d="M629 330h-547l-51 178l536 967q209 -4 430 -21v-827h160v-297h-160v-330h-368v330zM373 627h256v508z" />
<glyph horiz-adv-x="1136" d="M1071 479q0 -207 -144.5 -358.5t-377.5 -151.5q-211 0 -344 114t-142 308l359 31q6 -70 39 -108t86 -38q68 0 101.5 65t33.5 142.5t-28.5 137t-98.5 59.5q-33 0 -64.5 -20.5t-48.5 -49.5l-305 19l58 825h784v-307h-481l-19 -268q98 49 197 49q166 0 280.5 -117 t114.5 -332z" />
<glyph horiz-adv-x="1136" d="M39 459q-16 303 0 534q16 215 154.5 353.5t375.5 138.5q203 0 332 -109.5t129 -310.5l-358 -21q0 133 -113 134q-61 0 -99 -48.5t-42 -134.5q-4 -66 -8 -241q84 158 303 157q166 0 278.5 -119.5t112.5 -318.5q0 -223 -151.5 -362.5t-379.5 -139.5q-217 0 -369.5 142.5 t-164.5 345.5zM571 625q-70 0 -109.5 -43t-43.5 -109q6 -84 47 -140.5t115 -56.5q59 0 97 44.5t38 123.5q0 86 -39 133.5t-105 47.5z" />
<glyph horiz-adv-x="1136" d="M1028 1454l41 -225l-534 -1229h-390l490 1147h-569v307h962z" />
<glyph horiz-adv-x="1136" d="M440 1032q0 -70 36 -105.5t91.5 -35.5t91 36t35.5 105q0 68 -35.5 101.5t-91 33.5t-91.5 -33.5t-36 -101.5zM430 440q0 -76 39 -114.5t98 -38.5q57 0 97.5 39t40.5 114q0 74 -40 114t-97.5 40t-97.5 -40t-40 -114zM1071 422q0 -219 -146.5 -336t-363.5 -117 q-213 0 -355.5 112t-142.5 320q0 225 207 347q-90 45 -144 130t-54 171q0 207 145 321.5t354 114.5q205 0 348.5 -111.5t143.5 -312.5q0 -86 -58.5 -175t-148.5 -138q100 -31 157.5 -125.5t57.5 -200.5z" />
<glyph horiz-adv-x="1136" d="M1090 999q20 -264 0 -550q-14 -225 -154.5 -352.5t-370.5 -127.5q-199 0 -338 115t-147 303l348 21q0 -59 39 -95.5t98 -36.5q61 0 105.5 48.5t50.5 128.5q6 92 6 209q-59 -147 -268 -148q-176 0 -300 130t-124 337q0 213 139 358.5t374.5 145.5t380.5 -133.5t161 -352.5 zM578 801q76 0 112.5 52t30.5 122v18q-4 82 -47 133.5t-119 51.5q-59 0 -100 -50.5t-41 -134.5q0 -92 45 -142t119 -50z" />
<glyph horiz-adv-x="739" d="M719 965v-166q-37 -14 -86 -18.5t-108.5 14t-84.5 71.5h-2q-23 -37 -69.5 -62.5t-106.5 -25.5q-96 0 -153.5 56.5t-57.5 146.5q0 68 35 105.5t111 60.5l196 45v41q0 47 -37 47q-47 0 -39 -53l-235 -6q-8 115 73 184.5t212 69.5q119 0 200.5 -62.5t81.5 -175.5v-209 q0 -39 13.5 -51t56.5 -12zM340 1073q-35 -14 -35 -53q0 -47 45 -47q43 0 43 45v69q-30 -6 -53 -14z" />
<glyph horiz-adv-x="731" d="M317 1741v-326q57 59 160 60q90 0 142.5 -52.5t56.5 -146.5q8 -127 0 -266q-6 -111 -97.5 -171.5t-207.5 -60.5q-78 0 -155 12.5t-116 24.5l-39 10v877zM317 1219v-236q20 -10 52 -10q47 0 51 47q2 100 0 213q0 47 -45 47q-27 0 -42.5 -17t-15.5 -44z" />
<glyph horiz-adv-x="677" d="M645 1223l-246 -6q4 29 -7 46t-34 17q-45 0 -47 -51q-6 -92 0 -199q0 -27 14.5 -42t34.5 -15q23 0 37.5 17.5t12.5 43.5l235 -8q-2 -109 -73.5 -178.5t-211.5 -69.5q-289 0 -305 250q-6 104 0 201q8 111 91 178.5t212 67.5q156 0 226.5 -67.5t60.5 -184.5z" />
<glyph horiz-adv-x="765" d="M410 1028v195q0 57 -49.5 57t-49.5 -53q-6 -98 0 -197q0 -25 14.5 -41t34.5 -16q50 0 50 55zM735 965v-166q-57 -27 -153.5 -11.5t-128.5 76.5q-6 -10 -17.5 -24.5t-56.5 -38t-100 -23.5q-96 0 -158 56.5t-66 160.5q-6 117 0 238q4 119 65.5 180.5t158.5 61.5 q37 0 69.5 -8.5t46.5 -16.5l15 -8v260l256 39v-713q0 -39 13 -51t56 -12z" />
<glyph horiz-adv-x="692" d="M309 1028q0 -55 49 -55q45 0 50 51l235 -6q-4 -111 -82 -175.5t-203 -64.5q-133 0 -215 63.5t-88 186.5q-6 94 0 191q8 117 91 186.5t219 69.5q129 0 207.5 -60.5t78.5 -175.5q0 -66 -35.5 -95.5t-117.5 -43.5l-189 -31v-41zM309 1233v-59q23 2 45 8q25 4 33 14t8 35 q0 49 -41 49q-45 0 -45 -47z" />
<glyph horiz-adv-x="460" d="M84 1454v37q0 115 78 182.5t188 67.5q92 0 152 -35l-31 -164q-31 4 -65 4q-29 0 -47.5 -17.5t-18.5 -49.5v-25h121v-174h-121v-481h-256v481h-74v174h74z" />
<glyph horiz-adv-x="739" d="M375 995q-43 0 -82 6q-18 -8 -19 -22q0 -25 25 -27q23 -4 100.5 -14t118.5 -18q94 -18 147.5 -75t53.5 -140q0 -127 -100.5 -196t-248 -69t-243.5 57.5t-96 151.5q0 39 17.5 58.5t60.5 27.5l71 13l66 4v4l-43 8q-137 27 -137 139q0 92 108 141q-106 63 -106 191 q0 117 84 178.5t219 61.5q31 0 59.5 -4.5t42.5 -8.5l14 -6h226q8 -70 -2 -160q-92 4 -136 13v-4q78 -31 78 -115q0 -88 -72.5 -141.5t-205.5 -53.5zM471 688q0 35 -57 47l-97 -18q-41 -6 -41 -31q0 -51 101 -51q94 0 94 53zM371 1290q-47 0 -47 -53q0 -57 47 -57t47 57 q0 53 -47 53z" />
<glyph horiz-adv-x="423" d="M51 1632q0 51 40 85t107.5 34t107.5 -34t40 -85q0 -49 -40 -81.5t-107.5 -32.5t-107.5 32.5t-40 81.5zM326 1464v-430q0 -37 19.5 -49t57.5 -12v-174q-53 -10 -103 -11.5t-106.5 11t-90 58.5t-33.5 124v442z" />
<glyph horiz-adv-x="745" d="M317 1741v-942h-256v903zM326 1184l110 159q49 72 90 102t105 30q18 0 38.5 -5.5t30.5 -11.5l13 -4v-168q-57 0 -86 -37l-58 -75l78 -150q25 -51 88 -51v-174q-47 -20 -94 -21q-147 0 -213 144l-102 225v37z" />
<glyph horiz-adv-x="415" d="M317 1741v-707q0 -37 19.5 -49t58.5 -12v-174q-53 -10 -103 -11.5t-106.5 11t-90.5 58.5t-34 124v721z" />
<glyph horiz-adv-x="1112" d="M354 799h-256v420q0 39 -15 55t-52 16v164q53 10 106 10q117 0 174 -78h6q55 88 183 89q117 0 170 -91h6q59 90 182 91q193 0 193 -232v-444h-256v430q0 51 -41 51q-20 0 -34.5 -17.5t-17.5 -37.5v-426h-256v426q0 55 -40 55q-23 0 -36.5 -16.5t-15.5 -36.5v-428z" />
<glyph horiz-adv-x="718" d="M664 1022q-4 -111 -86 -177.5t-217.5 -66.5t-217.5 66.5t-88 177.5q-6 102 0 209q6 111 89 177.5t216.5 66.5t216 -67t87.5 -177q6 -96 0 -209zM408 1225q0 23 -13.5 39t-34 16t-35 -16.5t-14.5 -38.5q-6 -96 0 -193q0 -25 14.5 -42t35 -17t34 17.5t13.5 41.5q6 91 0 193 z" />
<glyph horiz-adv-x="745" d="M78 465v756q0 70 -68 69v164q45 10 94 10q139 0 189 -82q6 10 20.5 25.5t62.5 41.5t105 26q96 0 151.5 -58.5t59.5 -169.5q4 -109 0 -225q-4 -123 -68.5 -183.5t-174.5 -60.5q-29 0 -58 6.5t-43 10.5l-14 6v-336h-256zM334 1217v-191q0 -25 14 -40t37 -15q25 0 38 15 t13 38v195q0 61 -47 61q-23 0 -39 -19t-16 -44z" />
<glyph horiz-adv-x="727" d="M666 1427v-962h-256v354q-51 -41 -140 -41q-94 0 -151.5 55.5t-63.5 157.5q-6 113 0 238t86 186.5t211 61.5q80 0 158 -12.5t117 -24.5zM410 1022v258q-8 4 -48 4q-51 0 -51 -53q-4 -133 0 -209q0 -23 13.5 -37t34 -14t36 15.5t15.5 35.5z" />
<glyph horiz-adv-x="557" d="M98 799v422q0 37 -15 53t-52 16v164q51 10 104 10q145 0 178 -149h6q0 66 43.5 113t108.5 47q55 0 76 -21l-12 -194q-16 2 -46 2q-129 0 -135 -105v-358h-256z" />
<glyph horiz-adv-x="665" d="M614 1229l-235 -6q0 57 -41 57q-39 0 -39 -33q0 -25 20.5 -39t73.5 -26q59 -14 89 -23.5t70 -31t56.5 -55.5t16.5 -83q0 -86 -86 -148.5t-207 -62.5q-117 0 -201 61.5t-90 178.5l235 6q4 -51 50 -51q18 0 30.5 10t12.5 27q0 20 -20.5 30.5t-69.5 22.5q-18 4 -29 6 q-47 12 -77 23.5t-63.5 32t-50 53t-16.5 77.5q0 98 89 159t212 61q121 0 200.5 -68.5t69.5 -177.5z" />
<glyph horiz-adv-x="548" d="M358 1073q0 -102 101 -102q47 0 63 2l6 -174q-57 -20 -145 -21q-281 0 -281 246v256h-92v174h92v145l256 39v-184h158v-174h-158v-207z" />
<glyph horiz-adv-x="751" d="M731 973v-174q-63 -27 -154.5 -11.5t-134.5 74.5q-6 -12 -19 -27.5t-55 -36t-98 -20.5q-102 0 -160.5 63.5t-58.5 190.5v391l256 41v-424q0 -70 49.5 -69.5t49.5 57.5v397l256 39v-424q0 -39 13 -53t56 -14z" />
<glyph horiz-adv-x="692" d="M682 1454l-160 -655h-340l-172 655h277l45 -299l20 -133h4l19 133l61 299h246z" />
<glyph horiz-adv-x="624" d="M594 983v-184h-547l-6 153l233 318h-233v184h526l8 -168l-227 -303h246z" />
<glyph horiz-adv-x="1773" d="M1133 1014v78q0 76 -45.5 116.5t-112.5 40.5q-63 0 -106.5 -41t-43.5 -114q0 -63 9 -88q-41 27 -92.5 46t-82.5 25l-32 6q-8 41 -9 78q0 170 128 272.5t313 102.5q199 0 320.5 -119t121.5 -332v-71h244v-256h-244v-352q0 -82 39 -118t117 -36q72 0 96 4l10 -256 q-88 -31 -223 -31q-80 0 -148.5 18.5t-129 59.5t-95 118t-34.5 181v412h-142v256h142zM911 655l-338 -10q6 45 -12 74t-53 29q-72 0 -74 -82q-6 -152 0 -314q2 -39 24.5 -62.5t51.5 -23.5q37 0 55.5 25.5t14.5 66.5l338 -10q-4 -164 -114 -271.5t-294 -107.5 q-195 0 -316.5 101.5t-128 281.5t0.5 328q8 168 134 266t308 98q201 0 309 -104.5t94 -284.5z" />
<glyph horiz-adv-x="1120" d="M1061 393q-16 -201 -160.5 -312.5t-341.5 -111.5t-341 113t-159 311q-10 135 -10 340t10 328q18 193 164 308.5t338 115.5q199 0 340 -114t160 -310q10 -111 10 -326t-10 -342zM436 666l226 411q-27 70 -99 70q-106 0 -119 -143q-8 -109 -8 -338zM678 444q8 98 8 326 l-227 -399q27 -63 100 -64q107 0 119 137z" />
<glyph horiz-adv-x="1146" d="M1073 393q-16 -201 -160.5 -312.5t-341 -111.5t-341 113t-158.5 311q-10 135 -10.5 340t10.5 328q18 193 163.5 308.5t337.5 115.5q199 0 340.5 -114t159.5 -310q10 -111 10 -326t-10 -342zM690 1004q-12 143 -115 143q-106 0 -118 -143q-18 -238 0 -560 q8 -137 114.5 -137t118.5 137q8 98 8 282t-8 278z" />
<glyph horiz-adv-x="913" d="M281 1137l-179 -27l-30 225l403 129l195 -10v-1182l213 -36v-236h-809v233l207 37v867z" />
<glyph horiz-adv-x="1128" d="M61 0l-10 252q16 16 84 82.5t93.5 93.5t81 83t84 89t64.5 74t58 71q125 172 125 299q0 55 -29.5 89t-85.5 34q-59 0 -92 -48t-33 -126l-358 -20q-6 227 139.5 369.5t372.5 142.5q217 0 341 -109.5t124 -316.5q0 -231 -209 -477q-115 -135 -305 -275h551v-307h-996z" />
<glyph horiz-adv-x="1118" d="M539 -31q-213 0 -350.5 116t-157.5 316l358 21q6 -68 44 -107t95.5 -39t98.5 45.5t41 135.5q0 221 -291 194l-29 162l234 334h-488v307h910l10 -235l-275 -375q133 -20 225.5 -124t92.5 -265q0 -215 -151.5 -350.5t-366.5 -135.5z" />
<glyph horiz-adv-x="1187" d="M618 330h-577l-51 178l567 967q209 -4 430 -21v-827h201v-297h-201v-330h-369v330zM332 627h286v508z" />
<glyph horiz-adv-x="1099" d="M1049 479q0 -207 -144.5 -358.5t-378.5 -151.5q-211 0 -344 114t-141 308l358 31q6 -70 39 -108t86 -38q68 0 101.5 65t33.5 142.5t-28.5 137t-98.5 59.5q-33 0 -64.5 -20.5t-47.5 -49.5l-305 19l57 825h784v-307h-481l-18 -268q98 49 196 49q166 0 281 -117t115 -332z " />
<glyph horiz-adv-x="1146" d="M49 459q-16 303 0 534q16 215 154.5 353.5t376.5 138.5q203 0 331.5 -109.5t128.5 -310.5l-358 -21q0 133 -113 134q-61 0 -99 -48.5t-42 -134.5q-4 -66 -8 -241q84 158 303 157q166 0 278.5 -119.5t112.5 -318.5q0 -223 -151.5 -362.5t-378.5 -139.5q-217 0 -370 142.5 t-165 345.5zM582 625q-70 0 -110 -43t-44 -109q6 -84 47 -140.5t115 -56.5q59 0 97 44.5t38 123.5q0 86 -38.5 133.5t-104.5 47.5z" />
<glyph horiz-adv-x="1024" d="M973 1454l41 -225l-535 -1229h-389l490 1147h-570v307h963z" />
<glyph horiz-adv-x="1101" d="M428 1032q0 -70 36 -105.5t91 -35.5t91 36t36 105q0 68 -36 101.5t-91 33.5t-91 -33.5t-36 -101.5zM418 440q0 -76 39 -114.5t98 -38.5q57 0 97 39t40 114q0 74 -40 114t-97 40t-97 -40t-40 -114zM1059 422q0 -219 -146.5 -336t-363.5 -117q-213 0 -355.5 112t-142.5 320 q0 225 207 347q-90 45 -144.5 130t-54.5 171q0 207 145.5 321.5t354.5 114.5q205 0 348.5 -111.5t143.5 -312.5q0 -86 -58.5 -175t-148.5 -138q100 -31 157.5 -125.5t57.5 -200.5z" />
<glyph horiz-adv-x="1167" d="M1096 999q20 -264 0 -550q-14 -225 -154.5 -352.5t-370.5 -127.5q-199 0 -338 115t-147 303l348 21q0 -59 39 -95.5t98 -36.5q61 0 105.5 48.5t50.5 128.5q6 92 6 209q-59 -147 -268 -148q-176 0 -300 130t-124 337q0 213 139 358.5t375 145.5t380.5 -133.5t160.5 -352.5 zM584 801q76 0 112.5 52t30.5 122v18q-4 82 -47 133.5t-119 51.5q-59 0 -100 -50.5t-41 -134.5q0 -92 45 -142t119 -50z" />
<glyph horiz-adv-x="1099" d="M690 0l-24 143h-263l-26 -143h-367l236 1040l2 86h583l259 -1126h-400zM539 868l-80 -428h157l-69 428h-8z" />
<glyph horiz-adv-x="1101" d="M102 0v1126q174 2 353 2q78 0 132 -2t131 -11t128 -28.5t101 -51t75 -84t25 -120.5q0 -100 -64.5 -165.5t-144.5 -85.5v-7q94 -18 153.5 -89.5t59.5 -170.5q0 -127 -117 -220t-318 -93h-514zM481 461v-164q2 0 24.5 -1t43.5 -1q113 0 113 88q0 80 -119 80h-39zM481 829 v-163q4 0 22.5 -1t33.5 -1q115 0 114.5 83.5t-114.5 83.5q-16 0 -35 -1t-21 -1z" />
<glyph horiz-adv-x="1038" d="M997 727l-368 -10q0 133 -84 133q-74 0 -80 -86q-10 -180 0 -391q6 -96 88 -96.5t86 133.5l369 -11q-8 -184 -135.5 -307t-325.5 -123q-207 0 -335 103.5t-136 318.5q-6 170 0 338q10 207 137 317.5t334 110.5q203 0 330.5 -123t119.5 -307z" />
<glyph horiz-adv-x="1095" d="M102 0v1126q121 4 267 4q86 0 145 -3t140 -15t135.5 -37.5t107.5 -67.5t84 -111t39 -159q12 -135 0 -340q-6 -100 -45 -173.5t-96.5 -117t-143.5 -69t-172 -33.5t-198 -8zM633 692q-4 72 -32 100.5t-85 28.5q-8 0 -17.5 -1t-17.5 -1v-512q6 0 14.5 -1t14.5 -1q63 0 91 31 t32 104q2 31 2 125t-2 127z" />
<glyph horiz-adv-x="927" d="M102 0v1126h754v-307h-364v-112h337v-287h-337v-113h360v-307h-750z" />
<glyph horiz-adv-x="886" d="M492 0h-390v1126h744v-307h-354v-174h327v-307h-327v-338z" />
<glyph horiz-adv-x="1081" d="M563 410v235h465q2 -98 0 -239q-4 -193 -132 -315t-335 -122q-215 0 -342 112t-141 329q-10 150 0 313q10 203 141 318.5t342 115.5q207 0 335 -112.5t122 -307.5l-369 -10q0 53 -24.5 88t-69.5 35q-86 0 -88 -107q-6 -164 0 -335q4 -70 26.5 -101t77.5 -31q49 0 74 34 t25 85v15h-107z" />
<glyph horiz-adv-x="1177" d="M1075 1126v-1126h-389v408h-194v-408h-390v1126h390v-411h194v411h389z" />
<glyph horiz-adv-x="593" d="M102 0v1126h390v-1126h-390z" />
<glyph horiz-adv-x="956" d="M496 1126h389v-677q0 -227 -118 -357.5t-359 -122.5q-195 6 -304.5 123t-101.5 307l338 11q-4 -59 16.5 -96.5t61.5 -37.5q78 0 78 105v745z" />
<glyph horiz-adv-x="1140" d="M1141 0h-410l-231 592l252 534h381l-256 -510zM492 1126v-1126h-390v1126h390z" />
<glyph horiz-adv-x="833" d="M102 0v1126h390v-819h321v-307h-711z" />
<glyph horiz-adv-x="1286" d="M102 0v1126h332l199 -426l211 426h340v-1126h-389v563l-4 2l-134 -266h-53l-133 264v-563h-369z" />
<glyph horiz-adv-x="1163" d="M692 1126h369v-1126h-338l-248 573q-4 -4 -4 -573h-369v1126h344l246 -575v575z" />
<glyph horiz-adv-x="1105" d="M76 741q8 197 140 306.5t337 109.5q203 0 335 -109.5t142 -306.5q2 -55 2 -182t-2 -188q-8 -186 -143 -294t-334 -108q-201 0 -335 110.5t-142 305.5q-6 235 0 356zM465 395q2 -63 21.5 -91t66.5 -28q45 0 64.5 29t23.5 90q4 106 0 334q-4 121 -88 121t-88 -121 q-4 -164 0 -334z" />
<glyph horiz-adv-x="1064" d="M492 0h-390v1126q150 2 320 2q317 0 469.5 -103t152.5 -333q0 -195 -134 -306.5t-365 -111.5l-53 5v-279zM492 819v-235q20 -2 43 -2q121 0 120 118q0 121 -127 121z" />
<glyph horiz-adv-x="1107" d="M76 741q8 197 140 306.5t337 109.5q203 0 335 -109.5t142 -306.5q2 -55 2 -182t-2 -188q-8 -160 -108.5 -262.5t-257.5 -128.5v-7q16 0 249 -43q143 -27 220 -26q45 0 57 2v-246q-25 -37 -100 -37q-47 0 -103.5 20.5t-97.5 44t-123 74.5q-313 193 -418 242 q-121 45 -194.5 143.5t-77.5 237.5q-6 235 0 356zM465 395q2 -63 21.5 -91t66.5 -28q45 0 64.5 29t23.5 90q4 106 0 334q-4 121 -88 121t-88 -121q-4 -164 0 -334z" />
<glyph horiz-adv-x="1064" d="M518 389h-26v-389h-390v1126q174 2 361 2q92 0 162.5 -6t151.5 -28.5t134.5 -61.5t89 -108.5t35.5 -163.5q0 -184 -178 -291q14 -16 33 -53l174 -416h-410zM492 819v-194q23 -2 40 -2q123 0 123 100q0 98 -129 98z" />
<glyph horiz-adv-x="1042" d="M530 276q72 0 72 50q0 18 -10 32.5t-36 27.5t-48.5 22.5t-68.5 25t-77 27.5q-147 57 -221.5 127.5t-74.5 202.5q0 170 140 268t324 98q225 0 341 -116.5t108 -292.5l-389 -11q6 49 -11.5 81t-56.5 32q-68 0 -67 -55q0 -47 51 -77t182 -75q66 -23 111 -44t94 -57 t73.5 -88.5t24.5 -119.5q0 -166 -134 -265.5t-341 -99.5q-211 0 -341 108.5t-122 291.5l389 10q-2 -103 88 -103z" />
<glyph horiz-adv-x="983" d="M297 0v819h-277v307h943v-307h-277v-819h-389z" />
<glyph horiz-adv-x="1116" d="M651 1126h389q4 -55 4 -371.5t-4 -385.5q-8 -188 -139 -294t-342 -106q-215 0 -347 108.5t-136 305.5q-2 80 -2 375t2 368h389q-2 -86 -2 -363.5t2 -365.5q2 -121 94 -121q86 0 92 121q2 80 2 361.5t-2 367.5z" />
<glyph horiz-adv-x="1089" d="M690 1126h400l-304 -1126h-477l-309 1126h420l133 -745z" />
<glyph horiz-adv-x="1673" d="M1151 426l102 700h400l-283 -1126h-377l-153 637l-133 -637h-404l-283 1126h420l111 -694l127 694h334z" />
<glyph horiz-adv-x="1040" d="M1051 1126l-297 -551l307 -575h-420l-131 309l-131 -309h-389l299 575l-299 551h420l127 -309l125 309h389z" />
<glyph horiz-adv-x="1030" d="M707 0h-390v410l-348 716h420l133 -387l129 387h410l-354 -718v-408z" />
<glyph horiz-adv-x="956" d="M51 819v307h836l10 -249l-375 -570h383v-307h-854l-10 231l377 588h-367z" />
<glyph horiz-adv-x="481" d="M35 168q0 90 57.5 145.5t143.5 55.5q88 0 146 -55.5t58 -145.5q0 -86 -58 -142.5t-146 -56.5q-86 0 -143.5 56.5t-57.5 142.5zM31 1126l420 31l-97 -665h-231q-92 603 -92 634z" />
<glyph horiz-adv-x="944" d="M934 838q0 -86 -38 -141.5t-151 -102.5q-98 -41 -130.5 -65.5t-32.5 -61.5h-207l-8 51q-8 45 13 75t79 75q61 45 77.5 64.5t16.5 53.5q0 74 -70 74q-39 0 -62.5 -28.5t-19.5 -73.5l-348 -10q-4 184 123 296.5t340 112.5q160 0 289 -81.5t129 -237.5zM279 168 q0 90 57 145.5t143 55.5q88 0 146.5 -55.5t58.5 -145.5q0 -86 -58.5 -142.5t-146.5 -56.5q-86 0 -143 56.5t-57 142.5z" />
<glyph horiz-adv-x="983" d="M37 289q0 86 38 141t150 102q98 41 131 66t33 61h207l8 -51q8 -45 -13.5 -74.5t-78.5 -74.5q-61 -45 -77.5 -64.5t-16.5 -54.5q0 -74 69 -74q39 0 62.5 29t19.5 74l349 10q4 -184 -123 -297t-340 -113q-160 0 -289 82t-129 238zM692 958q0 -90 -57 -145t-143 -55 q-88 0 -146.5 55t-58.5 145q0 86 58 142.5t147 56.5q86 0 143 -56.5t57 -142.5z" />
<glyph horiz-adv-x="518" d="M457 958q0 -90 -57.5 -145t-143.5 -55q-88 0 -146.5 55t-58.5 145q0 86 58.5 142.5t146.5 56.5q86 0 143.5 -56.5t57.5 -142.5zM461 0l-420 -31l96 666h232q92 -604 92 -635z" />
<glyph horiz-adv-x="1110" d="M700 0l-24 143h-262l-27 -143h-367l236 1040l2 86h584l258 -1126h-400zM152 1452h389l153 -235h-243zM549 868l-80 -428h158l-70 428h-8z" />
<glyph horiz-adv-x="1110" d="M700 0l-24 143h-262l-27 -143h-367l236 1040l2 86h584l258 -1126h-400zM573 1454h400l-322 -235h-241zM549 868l-80 -428h158l-70 428h-8z" />
<glyph horiz-adv-x="1110" d="M700 0l-24 143h-262l-27 -143h-367l236 1040l2 86h584l258 -1126h-400zM383 1454h346l186 -235h-297l-69 108l-80 -108h-287zM549 868l-80 -428h158l-70 428h-8z" />
<glyph horiz-adv-x="1110" d="M700 0l-24 143h-262l-27 -143h-367l236 1040l2 86h584l258 -1126h-400zM233 1339.5q0 59.5 42 102.5t104 43q57 0 99 -43t42 -102.5t-42 -101.5t-99 -42q-61 0 -103.5 42t-42.5 101.5zM592 1339.5q0 59.5 42 102.5t101.5 43t101.5 -43t42 -102.5t-42 -101.5t-101.5 -42 t-101.5 42t-42 101.5zM549 868l-80 -428h158l-70 428h-8z" />
<glyph horiz-adv-x="1110" d="M700 0l-24 143h-262l-27 -143h-367l236 1040l2 86h584l258 -1126h-400zM674 1196q-53 0 -143.5 39t-114.5 39q-8 0 -14.5 -2t-11.5 -7t-8 -8.5t-8 -13.5l-7 -14t-7.5 -15.5t-7.5 -15.5l-82 27q-29 59 -31.5 118.5t43.5 104.5t132 45q66 0 147.5 -39t110.5 -39 q12 0 20 7.5t12.5 15.5t10.5 26.5t10 26.5l82 -27q33 -57 35 -117.5t-41 -105.5t-127 -45zM549 868l-80 -428h158l-70 428h-8z" />
<glyph horiz-adv-x="1124" d="M864 1126l242 -1126h-399l-23 133h-266l-25 -133h-377l256 1126h66q78 -82 223 -82q139 0 225 82h78zM317 1321q0 92 69 153.5t175.5 61.5t175 -61.5t68.5 -153.5t-68.5 -154.5t-175 -62.5t-175.5 62.5t-69 154.5zM553 860l-78 -420h156l-70 420h-8zM500 1321 q0 -25 17.5 -43t44 -18t44 18t17.5 43t-17.5 43t-44 18t-44 -18t-17.5 -43z" />
<glyph horiz-adv-x="1413" d="M1337 0h-688v164h-237l-54 -164h-389l416 1126h956v-307h-323v-112h297v-287h-297v-113h319v-307zM649 895l-139 -424h139v424z" />
<glyph horiz-adv-x="1038" d="M997 727l-368 -10q0 133 -84 133q-74 0 -80 -86q-10 -180 0 -391q6 -96 88 -96.5t86 133.5l369 -11q-8 -184 -135.5 -307t-325.5 -123q-207 0 -335 103.5t-136 318.5q-6 170 0 338q10 207 137 317.5t334 110.5q203 0 330.5 -123t119.5 -307zM522 -225v184 q121 0 195 -66.5t74 -166.5q0 -104 -75 -171t-183.5 -67t-184.5 66.5t-67 177.5h194q0 -23 14.5 -41.5t40.5 -18.5q45 0 45 49q0 20 -14 37t-39 17z" />
<glyph horiz-adv-x="1116" d="M51 430v242l82 2v452q121 4 266 4q86 0 145.5 -3t140.5 -15t135 -37.5t107.5 -67.5t84 -111t39.5 -159q12 -135 0 -340q-6 -100 -45 -173.5t-96.5 -117t-143.5 -69t-172 -33.5t-199 -8l-262 4v426zM664 692q-4 72 -32 100.5t-85 28.5q-8 0 -17.5 -1t-17.5 -1v-145l78 -2 v-242l-78 -4v-119q6 0 14.5 -1t14.5 -1q63 0 90.5 31t32.5 104q2 31 2 125t-2 127z" />
<glyph horiz-adv-x="927" d="M102 0v1126h754v-307h-364v-112h337v-287h-337v-113h360v-307h-750zM473 1454h399l-321 -235h-242z" />
<glyph horiz-adv-x="927" d="M102 0v1126h754v-307h-364v-112h337v-287h-337v-113h360v-307h-750zM94 1454h389l154 -235h-244z" />
<glyph horiz-adv-x="927" d="M102 0v1126h754v-307h-364v-112h337v-287h-337v-113h360v-307h-750zM315 1454h347l186 -235h-297l-70 108l-80 -108h-286z" />
<glyph horiz-adv-x="927" d="M102 0v1126h754v-307h-364v-112h337v-287h-337v-113h360v-307h-750zM170 1339.5q0 59.5 42 102.5t103 43q57 0 99.5 -43t42.5 -102.5t-42 -101.5t-100 -42q-61 0 -103 42t-42 101.5zM528 1339.5q0 59.5 42 102.5t101.5 43t101.5 -43t42 -102.5t-42 -101.5t-101.5 -42 t-101.5 42t-42 101.5z" />
<glyph horiz-adv-x="593" d="M102 0v1126h390v-1126h-390zM252 1454h399l-321 -235h-242z" />
<glyph horiz-adv-x="593" d="M102 0v1126h390v-1126h-390zM-96 1454h389l153 -235h-243z" />
<glyph horiz-adv-x="593" d="M102 0v1126h390v-1126h-390zM123 1454h346l186 -235h-297l-69 108l-80 -108h-287z" />
<glyph horiz-adv-x="593" d="M102 0v1126h390v-1126h-390zM-25 1339.5q0 59.5 42 102.5t104 43q57 0 99 -43t42 -102.5t-42 -101.5t-99 -42q-61 0 -103.5 42t-42.5 101.5zM334 1339.5q0 59.5 42 102.5t101.5 43t101.5 -43t42 -102.5t-42 -101.5t-101.5 -42t-101.5 42t-42 101.5z" />
<glyph horiz-adv-x="1136" d="M655 1126h389v-997q0 -219 -121.5 -349t-355.5 -130q-201 0 -328.5 119.5t-146.5 320.5h389q-4 -59 20.5 -96t65.5 -37q88 0 88 104v1065zM92 205v921h389v-921h-389z" />
<glyph horiz-adv-x="1163" d="M692 1126h369v-1126h-338l-248 573q-4 -4 -4 -573h-369v1126h344l246 -575v575zM735 1178q-53 0 -143 38.5t-115 38.5q-8 0 -14 -2t-11.5 -7t-8.5 -8t-8 -13.5t-7 -14.5t-7 -15t-7 -15l-82 26q-29 59 -32 118.5t43 105t132 45.5q66 0 148 -39t110 -39q12 0 20.5 7 t12.5 15t10 26.5t10 27.5l82 -27q33 -57 35 -117.5t-41 -105.5t-127 -45z" />
<glyph horiz-adv-x="1105" d="M76 741q8 197 140 306.5t337 109.5q203 0 335 -109.5t142 -306.5q2 -55 2 -182t-2 -188q-8 -186 -143 -294t-334 -108q-201 0 -335 110.5t-142 305.5q-6 235 0 356zM465 395q2 -63 21.5 -91t66.5 -28q45 0 64.5 29t23.5 90q4 106 0 334q-4 121 -88 121t-88 -121 q-4 -164 0 -334zM584 1454h399l-321 -235h-242z" />
<glyph horiz-adv-x="1105" d="M76 741q8 197 140 306.5t337 109.5q203 0 335 -109.5t142 -306.5q2 -55 2 -182t-2 -188q-8 -186 -143 -294t-334 -108q-201 0 -335 110.5t-142 305.5q-6 235 0 356zM465 395q2 -63 21.5 -91t66.5 -28q45 0 64.5 29t23.5 90q4 106 0 334q-4 121 -88 121t-88 -121 q-4 -164 0 -334zM143 1454h389l154 -235h-244z" />
<glyph horiz-adv-x="1105" d="M76 741q8 197 140 306.5t337 109.5q203 0 335 -109.5t142 -306.5q2 -55 2 -182t-2 -188q-8 -186 -143 -294t-334 -108q-201 0 -335 110.5t-142 305.5q-6 235 0 356zM465 395q2 -63 21.5 -91t66.5 -28q45 0 64.5 29t23.5 90q4 106 0 334q-4 121 -88 121t-88 -121 q-4 -164 0 -334zM391 1454h346l187 -235h-297l-70 108l-80 -108h-287z" />
<glyph horiz-adv-x="1105" d="M76 741q8 197 140 306.5t337 109.5q203 0 335 -109.5t142 -306.5q2 -55 2 -182t-2 -188q-8 -186 -143 -294t-334 -108q-201 0 -335 110.5t-142 305.5q-6 235 0 356zM465 395q2 -63 21.5 -91t66.5 -28q45 0 64.5 29t23.5 90q4 106 0 334q-4 121 -88 121t-88 -121 q-4 -164 0 -334zM680 1188q-53 0 -143.5 39t-114.5 39q-8 0 -14.5 -2t-11.5 -7.5t-8 -8.5t-8 -13l-7 -14t-7.5 -15.5t-7.5 -15.5l-82 27q-29 59 -31.5 118.5t43.5 104.5t132 45q68 0 147.5 -39t110.5 -39q12 0 20.5 7t12.5 15.5t10 27t10 26.5l82 -27q33 -57 35 -117.5 t-41 -105.5t-127 -45z" />
<glyph horiz-adv-x="1105" d="M76 741q8 197 140 306.5t337 109.5q203 0 335 -109.5t142 -306.5q2 -55 2 -182t-2 -188q-8 -186 -143 -294t-334 -108q-201 0 -335 110.5t-142 305.5q-6 235 0 356zM465 395q2 -63 21.5 -91t66.5 -28q45 0 64.5 29t23.5 90q4 106 0 334q-4 121 -88 121t-88 -121 q-4 -164 0 -334zM236 1339.5q0 59.5 41.5 102.5t103.5 43q57 0 99 -43t42 -102.5t-42 -101.5t-99 -42q-61 0 -103 42t-42 101.5zM594 1339.5q0 59.5 42 102.5t101.5 43t101.5 -43t42 -102.5t-42 -101.5t-101.5 -42t-101.5 42t-42 101.5z" />
<glyph horiz-adv-x="1146" d="M96 741q8 197 140.5 306.5t336.5 109.5q166 0 289 -76l60 76h194l-137 -190q63 -94 72 -226q2 -55 2 -182t-2 -188q-8 -186 -143.5 -294t-334.5 -108q-150 0 -270 64l-47 -64h-195l119 168q-78 104 -84 248q-6 235 0 356zM485 729q-2 -57 -2 -205l170 262q-16 63 -80 64 q-84 0 -88 -121zM662 395q2 45 2 170l-164 -252q20 -37 73 -37q45 0 65 29t24 90z" />
<glyph horiz-adv-x="1429" d="M76 741q8 197 140 306.5t337 109.5q98 0 176 -31h629v-307h-375v-112h348v-287h-348v-113h371v-307h-629q-82 -31 -172 -31q-201 0 -335 110.5t-142 305.5q-6 235 0 356zM465 395q2 -63 21.5 -91t66.5 -28q49 0 72 25v520q-25 29 -72 29q-84 0 -88 -121q-4 -164 0 -334z " />
<glyph horiz-adv-x="1042" d="M530 276q72 0 72 50q0 18 -10 32.5t-36 27.5t-48.5 22.5t-68.5 25t-77 27.5q-147 57 -221.5 127.5t-74.5 202.5q0 170 140 268t324 98q225 0 341 -116.5t108 -292.5l-389 -11q6 49 -11.5 81t-56.5 32q-68 0 -67 -55q0 -47 51 -77t182 -75q66 -23 111 -44t94 -57 t73.5 -88.5t24.5 -119.5q0 -166 -134 -265.5t-341 -99.5q-211 0 -341 108.5t-122 291.5l389 10q-2 -103 88 -103zM692 1229h-346l-227 246h317l90 -109l101 109h307z" />
<glyph horiz-adv-x="1075" d="M102 0v1126h390v-133q281 -10 416.5 -113.5t135.5 -318.5q0 -195 -134 -307.5t-365 -112.5l-53 4v-145h-390zM492 686v-235q20 -2 43 -2q121 0 120 120q0 119 -127 119z" />
<glyph horiz-adv-x="1116" d="M651 1126h389q4 -55 4 -371.5t-4 -385.5q-8 -188 -139 -294t-342 -106q-215 0 -347 108.5t-136 305.5q-2 80 -2 375t2 368h389q-2 -86 -2 -363.5t2 -365.5q2 -121 94 -121q86 0 92 121q2 80 2 361.5t-2 367.5zM594 1454h399l-321 -235h-242z" />
<glyph horiz-adv-x="1116" d="M651 1126h389q4 -55 4 -371.5t-4 -385.5q-8 -188 -139 -294t-342 -106q-215 0 -347 108.5t-136 305.5q-2 80 -2 375t2 368h389q-2 -86 -2 -363.5t2 -365.5q2 -121 94 -121q86 0 92 121q2 80 2 361.5t-2 367.5zM145 1454h390l153 -235h-244z" />
<glyph horiz-adv-x="1116" d="M651 1126h389q4 -55 4 -371.5t-4 -385.5q-8 -188 -139 -294t-342 -106q-215 0 -347 108.5t-136 305.5q-2 80 -2 375t2 368h389q-2 -86 -2 -363.5t2 -365.5q2 -121 94 -121q86 0 92 121q2 80 2 361.5t-2 367.5zM391 1454h346l187 -235h-297l-70 108l-80 -108h-287z" />
<glyph horiz-adv-x="1116" d="M651 1126h389q4 -55 4 -371.5t-4 -385.5q-8 -188 -139 -294t-342 -106q-215 0 -347 108.5t-136 305.5q-2 80 -2 375t2 368h389q-2 -86 -2 -363.5t2 -365.5q2 -121 94 -121q86 0 92 121q2 80 2 361.5t-2 367.5zM242 1339.5q0 59.5 42 102.5t103 43q57 0 99 -43t42 -102.5 t-42 -101.5t-99 -42q-61 0 -103 42t-42 101.5zM600 1339.5q0 59.5 42 102.5t101.5 43t101.5 -43t42 -102.5t-42 -101.5t-101.5 -42t-101.5 42t-42 101.5z" />
<glyph horiz-adv-x="1153" d="M768 0h-389v410l-348 716h420l133 -387l129 387h409l-354 -718v-408zM614 1454h400l-322 -235h-241z" />
<glyph horiz-adv-x="1153" d="M768 0h-389v410l-348 716h420l133 -387l129 387h409l-354 -718v-408zM260 1337.5q0 59.5 42 102.5t104 43q57 0 99 -43t42 -102.5t-42 -101.5t-99 -42q-61 0 -103.5 42t-42.5 101.5zM618 1337.5q0 59.5 42 102.5t101.5 43t101.5 -43t42 -102.5t-42 -101.5t-101.5 -42 t-101.5 42t-42 101.5z" />
<glyph horiz-adv-x="956" d="M51 819v307h836l10 -249l-375 -570h383v-307h-854l-10 231l377 588h-367zM643 1219h-346l-227 245h317l90 -108l101 108h307z" />
<glyph horiz-adv-x="2058" d="M530 276q72 0 72 50q0 18 -10 32.5t-36 27.5t-48.5 22.5t-68.5 25t-77 27.5q-147 57 -221.5 127.5t-74.5 202.5q0 170 140 268t324 98q225 0 341 -116.5t108 -292.5l-389 -11q6 49 -11.5 81t-56.5 32q-68 0 -67 -55q0 -47 51 -77t182 -75q66 -23 111 -44t94 -57 t73.5 -88.5t24.5 -119.5q0 -166 -134 -265.5t-341 -99.5q-211 0 -341 108.5t-122 291.5l389 10q-2 -103 88 -103zM1546 276q72 0 72 50q0 18 -10.5 32.5t-36 27.5t-48 22.5t-68.5 25t-77 27.5q-147 57 -222 127.5t-75 202.5q0 170 140.5 268t324.5 98q225 0 341 -116.5 t108 -292.5l-389 -11q6 49 -11.5 81t-56.5 32q-68 0 -68 -55q0 -47 51.5 -77t182.5 -75q66 -23 111 -44t94 -57t73.5 -88.5t24.5 -119.5q0 -166 -134 -265.5t-341 -99.5q-211 0 -341 108.5t-122 291.5l389 10q-2 -103 88 -103z" />
<glyph horiz-adv-x="612" d="M614 1454h400l-322 -235h-241z" />
<glyph horiz-adv-x="604" d="M412 1454h389l153 -235h-243z" />
<glyph horiz-adv-x="815" d="M412 1454h346l186 -235h-297l-69 108l-80 -108h-287z" />
<glyph horiz-adv-x="733" d="M444 1178q-53 0 -143 38.5t-115 38.5q-8 0 -14 -2t-11 -7l-8 -8t-8.5 -13.5t-7.5 -14.5t-7 -15t-7 -15l-82 26q-29 59 -32 118.5t43 105t132 45.5q66 0 148 -39t110 -39q12 0 20.5 7t12.5 15t10.5 26.5t10.5 27.5l82 -27q33 -57 34.5 -117.5t-41.5 -105.5t-127 -45z" />
<glyph horiz-adv-x="1034" d="M563 1219h-346l-227 245h317l90 -108l101 108h307z" />
<glyph horiz-adv-x="888" d="M121 1339.5q0 59.5 42 102.5t103 43q57 0 99.5 -43t42.5 -102.5t-42 -101.5t-100 -42q-61 0 -103 42t-42 101.5zM479 1339.5q0 59.5 42 102.5t101.5 43t101.5 -43t42 -102.5t-42 -101.5t-101.5 -42t-101.5 42t-42 101.5z" />
<glyph horiz-adv-x="651" d="M82 1300.5q0 92.5 68.5 154t175 61.5t175 -61.5t68.5 -154t-68.5 -155t-175 -62.5t-175 62.5t-68.5 155zM264 1300.5q0 -24.5 17.5 -43t44 -18.5t44 18.5t17.5 43t-17.5 43t-44 18.5t-44 -18.5t-17.5 -43z" />
<glyph horiz-adv-x="579" d="M31 492v296h518v-296h-518z" />
<glyph horiz-adv-x="966" d="M31 492v296h905v-296h-905z" />
<glyph horiz-adv-x="1200" d="M31 492v296h1138v-296h-1138z" />
<glyph horiz-adv-x="669" d="M395 739v-39l258 -278l-174 -180l-448 448v43l461 426l167 -184z" />
<glyph horiz-adv-x="669" d="M268 692v39l-258 264l189 195l440 -461v-43l-428 -475l-195 190z" />
<glyph horiz-adv-x="1167" d="M903 739v-39l258 -278l-174 -180l-448 448v43l460 426l168 -184zM385 739v-39l258 -278l-174 -180l-449 448v43l461 426l168 -184z" />
<glyph horiz-adv-x="1167" d="M776 692v39l-258 264l189 195l440 -461v-43l-428 -475l-195 190zM258 692v39l-258 264l188 195l441 -461v-43l-428 -475l-195 190z" />
<glyph horiz-adv-x="995" d="M436 922h191l12 -52q18 -92 -12.5 -149t-130.5 -160q-51 -55 -63.5 -89t-12.5 -89q0 -96 84 -96q41 0 66.5 34.5t23.5 98.5l358 10q8 -221 -127 -341t-346 -120q-184 0 -316 104.5t-132 288.5q0 98 43 164t157 154q20 14 45 33.5t39.5 31t33 24.5t28.5 22.5t21.5 19.5 t17.5 17.5t11 16.5t7 16t2 16v45zM729 1284q0 -90 -58.5 -147.5t-146.5 -57.5t-147.5 57.5t-59.5 147.5q0 86 59.5 143.5t147.5 57.5q86 0 145.5 -57.5t59.5 -143.5z" />
<glyph horiz-adv-x="501" d="M457 1284q0 -90 -58.5 -147.5t-146.5 -57.5t-147.5 57.5t-59.5 147.5q0 86 59.5 143.5t147.5 57.5q86 0 145.5 -57.5t59.5 -143.5zM471 2l-440 -33l106 942h232q102 -868 102 -909z" />
<glyph horiz-adv-x="833" d="M102 717q0 131 92.5 224t219.5 93q129 0 223 -93t94 -224q0 -125 -94 -216t-223 -91q-127 0 -219.5 91t-92.5 216z" />
</font>
</defs>
</svg>
